{"glyphs":{"0":{"ha":833,"x_min":18,"x_max":813,"o":"m 234 192 l 642 666 q 654 496 654 600 q 648 352 654 413 q 626 238 642 291 q 584 153 610 186 q 516 103 557 121 q 418 85 475 85 q 234 192 291 85 m 418 865 q 602 776 547 865 l 197 304 q 181 496 181 385 q 191 645 181 582 q 220 751 201 709 q 269 818 239 793 q 334 854 298 844 q 418 865 370 865 m 756 496 q 722 759 756 658 l 813 865 l 763 962 l 671 857 q 418 966 589 966 q 274 940 336 966 q 176 871 212 913 q 117 765 140 828 q 87 638 95 701 q 79 496 79 575 q 116 212 79 322 l 18 97 l 71 3 l 163 111 q 418 -17 248 -17 q 561 9 500 -17 q 658 80 621 36 q 718 192 695 124 q 748 332 740 260 q 756 496 756 404 "},"1":{"ha":833,"x_min":301,"x_max":566,"o":"m 566 956 l 484 956 l 301 769 l 326 741 l 465 798 l 465 0 l 566 0 l 566 956 "},"2":{"ha":833,"x_min":107,"x_max":745,"o":"m 409 966 q 221 933 290 966 q 107 827 152 900 l 194 774 q 232 822 212 804 q 295 852 251 839 q 409 865 340 865 l 426 865 q 644 722 644 865 l 644 694 q 638 677 643 690 q 618 642 633 664 q 585 604 604 619 l 229 315 q 108 134 149 250 l 108 0 l 745 0 l 745 102 l 204 102 q 294 236 235 189 l 650 525 q 720 613 695 562 q 745 694 745 663 l 745 722 q 662 902 745 837 q 426 966 578 966 l 409 966 "},"3":{"ha":833,"x_min":88,"x_max":745,"o":"m 428 600 l 259 600 l 259 498 l 428 498 q 593 448 543 497 q 644 310 644 399 l 644 296 q 589 135 644 186 q 426 85 534 85 l 409 85 q 308 97 356 85 q 224 139 259 110 q 190 207 190 168 l 88 207 q 180 45 88 106 q 409 -17 271 -17 l 426 -17 q 572 7 509 -17 q 672 74 635 31 q 727 172 709 117 q 745 296 745 228 l 745 310 q 710 461 745 397 q 608 561 675 526 q 647 596 629 575 q 674 636 665 617 q 690 674 684 656 q 699 702 696 692 q 701 713 701 711 l 701 741 q 626 905 701 843 q 426 966 552 966 l 409 966 q 231 932 313 966 q 113 832 150 898 l 201 782 q 277 841 221 817 q 409 865 333 865 l 426 865 q 487 859 458 865 q 541 840 515 853 q 583 802 568 827 q 599 741 599 777 l 599 713 q 586 683 599 702 q 551 645 573 664 q 496 613 530 627 q 428 600 463 600 "},"4":{"ha":833,"x_min":89,"x_max":787,"o":"m 678 239 l 787 239 l 787 340 l 678 340 l 678 966 l 602 966 l 89 329 l 89 239 l 576 239 l 576 0 l 678 0 l 678 239 m 576 772 l 576 340 l 229 340 l 576 772 "},"5":{"ha":833,"x_min":60,"x_max":745,"o":"m 113 491 l 216 435 q 303 516 247 487 q 409 545 359 545 l 426 545 q 588 494 533 545 q 644 344 644 442 l 644 303 q 592 140 644 196 q 426 85 541 85 l 359 85 q 237 113 299 85 q 152 185 175 141 l 60 142 q 184 26 96 68 q 359 -17 271 -17 l 426 -17 q 554 2 496 -17 q 654 58 611 20 q 722 158 698 96 q 745 303 745 220 l 745 344 q 663 563 745 479 q 426 647 581 647 l 409 647 q 232 592 318 647 l 273 848 l 729 848 l 729 949 l 186 949 l 113 491 "},"6":{"ha":833,"x_min":88,"x_max":745,"o":"m 190 330 q 244 486 190 426 q 409 545 298 545 l 426 545 q 589 494 534 545 q 644 330 644 444 l 644 290 q 588 137 644 190 q 426 85 533 85 l 409 85 q 348 90 377 85 q 289 110 319 96 q 238 146 260 124 q 203 205 217 169 q 190 290 190 242 l 190 330 m 409 647 q 190 574 275 647 l 190 661 q 247 806 190 747 q 409 865 304 865 l 426 865 q 565 850 519 865 q 629 808 612 836 l 714 863 q 604 945 676 923 q 426 966 532 966 l 409 966 q 236 923 310 966 q 125 812 161 880 q 88 661 88 743 l 88 290 q 131 121 88 191 q 246 17 174 51 q 409 -17 317 -17 l 426 -17 q 663 68 581 -17 q 745 290 745 153 l 745 330 q 727 455 745 399 q 672 555 709 511 q 572 623 635 599 q 426 647 510 647 l 409 647 "},"7":{"ha":833,"x_min":88,"x_max":745,"o":"m 745 845 l 745 949 l 88 949 l 88 848 l 621 848 q 338 409 450 612 q 170 0 227 206 l 276 0 q 449 397 334 198 q 745 845 563 595 "},"8":{"ha":833,"x_min":88,"x_max":745,"o":"m 426 865 q 551 830 503 865 q 599 756 599 795 l 599 721 q 550 640 599 680 q 428 600 500 600 l 407 600 q 286 640 335 600 q 236 722 236 680 l 236 757 q 284 830 236 795 q 409 865 332 865 l 426 865 m 701 756 q 620 906 701 845 q 426 966 539 966 l 409 966 q 213 904 292 966 q 134 757 134 842 l 134 722 q 158 634 134 678 q 224 558 182 591 q 123 456 157 522 q 88 303 88 390 l 88 268 q 179 62 88 141 q 409 -17 269 -17 l 426 -17 q 664 59 582 -17 q 745 268 745 135 l 745 303 q 614 561 745 492 q 678 636 655 594 q 701 721 701 679 l 701 756 m 190 303 q 407 498 190 496 l 428 498 q 595 451 547 497 q 644 303 644 404 l 644 268 q 593 133 644 180 q 426 85 543 85 l 409 85 q 252 133 314 85 q 190 268 190 182 l 190 303 "},"9":{"ha":833,"x_min":88,"x_max":745,"o":"m 644 631 q 594 476 644 527 q 426 426 545 426 l 409 426 q 246 479 302 426 q 190 631 190 533 l 190 682 q 247 811 190 758 q 409 865 303 865 l 426 865 q 582 818 521 865 q 644 682 644 770 l 644 631 m 426 324 q 644 385 564 324 l 644 292 q 589 135 644 186 q 426 85 534 85 l 409 85 q 207 141 243 85 l 120 87 q 171 34 140 55 q 241 2 201 12 q 320 -13 281 -9 q 409 -17 359 -17 l 426 -17 q 664 66 583 -17 q 745 292 745 149 l 745 682 q 656 888 745 810 q 426 966 568 966 l 409 966 q 271 943 333 966 q 170 879 209 919 q 109 788 130 839 q 88 682 88 737 l 88 631 q 172 410 88 495 q 409 324 256 324 l 426 324 "}," ":{"ha":833,"x_min":0,"x_max":0,"o":""},"!":{"ha":833,"x_min":290,"x_max":543,"o":"m 543 55 q 505 141 543 107 q 416 175 467 175 q 327 139 363 175 q 290 55 290 103 q 328 -31 290 4 q 416 -65 366 -65 q 506 -31 468 -65 q 543 55 543 3 m 414 969 q 355 943 377 969 q 332 869 332 916 l 359 281 l 471 281 l 498 868 q 476 943 498 917 q 414 969 454 969 "},"\"":{"ha":833,"x_min":162,"x_max":672,"o":"m 257 672 l 370 863 q 380 903 380 880 q 360 961 380 936 q 304 987 339 987 q 250 970 276 987 q 218 927 224 953 l 165 711 q 162 690 162 699 q 175 653 162 667 q 206 640 188 640 q 257 672 238 640 m 549 672 l 662 863 q 672 903 672 880 q 651 961 672 936 q 596 987 631 987 q 542 970 568 987 q 510 927 516 953 l 457 711 q 454 690 454 699 q 467 653 454 667 q 499 640 480 640 q 549 672 530 640 "},"#":{"ha":833,"x_min":22,"x_max":820,"o":"m 642 609 l 800 609 l 820 711 l 661 711 l 701 916 l 597 916 l 557 711 l 378 711 l 419 916 l 314 916 l 274 711 l 115 711 l 96 609 l 254 609 l 200 333 l 42 333 l 22 231 l 180 231 l 135 0 l 239 0 l 283 231 l 464 231 l 419 0 l 523 0 l 568 231 l 727 231 l 747 333 l 587 333 l 642 609 m 357 609 l 538 609 l 484 333 l 304 333 l 357 609 "},"$":{"ha":833,"x_min":46,"x_max":766,"o":"m 367 586 l 294 611 q 244 634 265 621 q 214 661 223 648 q 200 683 204 673 q 196 701 196 692 l 196 721 q 206 771 196 749 q 232 809 216 794 q 271 836 248 825 q 317 853 294 847 q 367 862 340 859 l 367 586 m 469 443 l 522 424 q 630 352 595 397 q 665 249 665 306 l 665 229 q 608 140 665 182 q 469 87 551 98 l 469 443 m 469 -63 l 469 -16 q 615 25 547 -7 q 725 112 683 58 q 766 229 766 166 l 766 249 q 714 410 766 336 q 556 520 662 484 l 469 550 l 469 862 q 558 848 521 859 q 615 824 595 837 q 645 791 634 810 q 658 756 656 771 q 661 721 661 742 l 762 721 q 469 965 762 948 l 469 1013 l 367 1013 l 367 964 q 168 888 241 954 q 94 721 94 822 l 94 701 q 137 592 94 642 q 260 515 179 543 l 367 478 l 367 86 q 209 130 271 94 q 148 220 148 166 l 46 220 q 135 57 46 121 q 367 -16 223 -7 l 367 -63 l 469 -63 "},"%":{"ha":833,"x_min":9,"x_max":825,"o":"m 464 170 q 508 39 464 85 q 623 -8 551 -8 q 739 39 695 -8 q 783 170 783 85 q 740 303 783 258 q 623 349 696 349 q 507 303 550 349 q 464 170 464 258 m 681 170 q 665 118 681 142 q 623 94 649 94 q 581 114 595 94 q 566 170 566 134 q 582 224 566 201 q 623 247 598 247 q 666 227 651 247 q 681 170 681 207 m 748 932 l 9 85 l 87 18 l 825 865 l 748 932 m 50 777 q 93 645 50 692 q 209 598 137 598 q 325 645 281 598 q 368 777 368 692 q 325 910 368 865 q 209 955 282 955 q 93 910 136 955 q 50 777 50 865 m 267 777 q 251 724 267 748 q 209 700 235 700 q 166 720 181 700 q 151 777 151 741 q 168 830 151 807 q 209 853 184 853 q 252 833 237 853 q 267 777 267 813 "},"&":{"ha":833,"x_min":46,"x_max":831,"o":"m 595 156 q 404 85 532 85 l 386 85 q 216 124 284 85 q 148 229 148 163 l 148 249 q 170 318 148 284 q 252 393 192 352 l 357 463 l 595 156 m 658 75 l 735 -24 l 815 38 l 719 162 l 831 376 l 742 424 l 650 250 l 441 520 l 552 594 q 673 745 673 675 l 673 785 q 605 916 673 866 q 428 966 538 966 l 409 966 q 299 950 346 966 q 226 907 252 934 q 188 850 200 880 q 176 788 176 821 l 176 773 q 293 543 176 680 l 190 474 q 86 376 127 433 q 46 249 46 319 l 46 229 q 142 51 46 119 q 386 -17 237 -17 l 404 -17 q 658 75 564 -17 m 571 748 q 496 680 571 727 l 378 600 q 277 773 277 715 l 277 788 q 290 826 277 810 q 322 850 302 842 q 364 861 343 858 q 409 865 385 865 l 428 865 q 532 843 493 865 q 571 785 571 821 l 571 748 "},"'":{"ha":833,"x_min":307,"x_max":526,"o":"m 402 672 l 515 863 q 526 903 526 880 q 505 961 526 936 q 450 987 484 987 q 395 970 421 987 q 363 927 370 953 l 311 711 q 307 690 307 699 q 320 653 307 667 q 351 640 333 640 q 402 672 383 640 "},"(":{"ha":833,"x_min":256,"x_max":719,"o":"m 358 490 q 407 679 358 585 q 537 844 456 772 q 715 957 618 915 l 674 1050 q 520 960 593 1016 q 387 832 446 904 q 292 671 328 761 q 256 490 256 582 q 280 338 256 413 q 342 200 303 263 q 435 81 382 138 q 548 -20 489 24 q 670 -99 606 -64 l 719 -9 q 580 85 644 31 q 465 202 515 138 q 387 340 415 265 q 358 490 358 414 "},")":{"ha":833,"x_min":115,"x_max":578,"o":"m 578 490 q 543 671 578 582 q 448 832 507 761 q 314 960 389 904 q 159 1050 240 1016 l 119 957 q 257 876 192 926 q 371 766 321 827 q 448 633 420 705 q 477 490 477 562 q 374 209 477 342 q 115 -9 272 75 l 163 -99 q 287 -20 228 -64 q 399 81 346 24 q 492 200 453 138 q 555 338 532 263 q 578 490 578 413 "},"*":{"ha":833,"x_min":131,"x_max":703,"o":"m 604 237 l 499 380 l 668 435 q 693 454 684 440 q 703 484 703 468 q 701 499 703 492 q 682 525 696 515 q 652 534 668 534 q 637 532 644 534 l 468 477 l 468 654 q 453 690 468 675 q 417 705 438 705 q 381 690 396 705 q 366 654 366 675 l 366 477 l 197 532 q 182 534 190 534 q 152 525 166 534 q 134 499 138 515 q 131 484 131 492 q 141 454 131 468 q 166 435 151 440 l 335 380 l 230 237 q 220 208 220 223 q 241 165 220 181 q 271 156 255 156 q 313 177 297 156 l 417 321 l 522 177 q 564 156 537 156 q 593 165 579 156 q 614 208 614 181 q 604 237 614 223 "},"+":{"ha":833,"x_min":138,"x_max":696,"o":"m 696 458 l 468 458 l 468 686 l 366 686 l 366 458 l 138 458 l 138 356 l 366 356 l 366 106 l 468 106 l 468 356 l 696 356 l 696 458 "},",":{"ha":833,"x_min":304,"x_max":516,"o":"m 378 -34 q 402 -79 402 -45 q 370 -137 402 -109 q 304 -176 337 -164 l 314 -214 q 411 -185 371 -208 q 473 -128 451 -163 q 506 -51 496 -93 q 516 44 515 -9 q 488 114 516 85 q 416 142 459 142 q 346 113 374 142 q 317 44 317 84 q 334 0 317 20 q 378 -34 351 -20 "},"-":{"ha":833,"x_min":138,"x_max":696,"o":"m 696 458 l 138 458 l 138 356 l 696 356 l 696 458 "},".":{"ha":833,"x_min":317,"x_max":516,"o":"m 455 -26 l 455 -27 l 452 -27 l 452 -18 l 454 -18 l 454 -26 l 455 -26 m 450 -26 l 450 -22 l 448 -22 l 448 -26 l 450 -26 m 408 -14 l 408 -7 l 409 -4 l 413 -4 l 413 -14 l 412 -14 l 412 -9 l 409 -9 l 409 -14 l 408 -14 m 410 -5 l 409 -7 l 409 -8 l 412 -8 l 412 -5 l 410 -5 m 417 -8 l 416 -8 l 416 -14 l 414 -14 l 414 -7 l 418 -7 l 418 -8 l 418 -14 l 417 -14 l 417 -8 m 422 -8 l 421 -8 l 421 -14 l 420 -14 l 420 -7 l 423 -7 l 424 -8 l 424 -14 l 422 -14 l 422 -8 m 427 -11 l 427 -12 l 428 -12 l 428 -11 l 427 -11 m 426 -14 l 425 -12 l 425 -11 l 426 -9 l 428 -9 l 428 -8 l 425 -8 l 425 -7 l 429 -7 l 429 -8 l 429 -14 l 426 -14 m 433 -22 l 432 -22 l 432 -27 l 431 -27 l 431 -18 l 432 -18 l 432 -20 l 434 -20 l 435 -22 l 435 -27 l 433 -27 l 433 -22 m 429 -22 l 429 -23 l 429 -26 l 429 -27 l 424 -27 l 424 -26 l 428 -26 l 428 -23 l 425 -23 l 424 -22 l 424 -19 l 425 -18 l 429 -18 l 429 -19 l 425 -19 l 425 -22 l 429 -22 m 439 -26 l 439 -20 l 440 -20 l 440 -27 l 437 -27 l 436 -26 l 436 -20 l 437 -20 l 437 -26 l 439 -26 m 443 -26 l 444 -26 l 444 -22 l 443 -22 l 443 -26 m 442 -20 l 446 -20 l 446 -28 l 445 -30 l 441 -30 l 441 -28 l 444 -28 l 444 -27 l 442 -27 l 441 -26 l 441 -22 l 442 -20 m 448 -20 l 450 -20 l 451 -22 l 451 -26 l 450 -27 l 448 -27 l 447 -26 l 447 -22 l 448 -20 m 488 110 q 416 138 459 138 q 345 109 373 138 q 317 40 317 80 q 346 -30 317 -1 q 416 -58 374 -58 q 488 -30 460 -58 q 516 40 516 -1 q 502 95 516 81 q 488 110 488 110 "},"/":{"ha":833,"x_min":95,"x_max":739,"o":"m 650 991 l 95 8 l 183 -42 l 739 941 l 650 991 "},":":{"ha":833,"x_min":317,"x_max":516,"o":"m 455 69 l 455 68 l 452 68 l 452 77 l 454 77 l 454 69 l 455 69 m 450 69 l 450 73 l 448 73 l 448 69 l 450 69 m 408 81 l 408 88 l 409 91 l 413 91 l 413 81 l 412 81 l 412 85 l 409 85 l 409 81 l 408 81 m 410 90 l 409 88 l 409 87 l 412 87 l 412 90 l 410 90 m 417 87 l 416 87 l 416 81 l 414 81 l 414 88 l 418 88 l 418 87 l 418 81 l 417 81 l 417 87 m 422 87 l 421 87 l 421 81 l 420 81 l 420 88 l 423 88 l 424 87 l 424 81 l 422 81 l 422 87 m 427 84 l 427 83 l 428 83 l 428 84 l 427 84 m 426 81 l 425 83 l 425 84 l 426 85 l 428 85 l 428 87 l 425 87 l 425 88 l 429 88 l 429 87 l 429 81 l 426 81 m 433 73 l 432 73 l 432 68 l 431 68 l 431 77 l 432 77 l 432 75 l 434 75 l 435 73 l 435 68 l 433 68 l 433 73 m 429 73 l 429 72 l 429 69 l 429 68 l 424 68 l 424 69 l 428 69 l 428 72 l 425 72 l 424 73 l 424 76 l 425 77 l 429 77 l 429 76 l 425 76 l 425 73 l 429 73 m 439 69 l 439 75 l 440 75 l 440 68 l 437 68 l 436 69 l 436 75 l 437 75 l 437 69 l 439 69 m 443 69 l 444 69 l 444 73 l 443 73 l 443 69 m 442 75 l 446 75 l 446 66 l 445 65 l 441 65 l 441 66 l 444 66 l 444 68 l 442 68 l 441 69 l 441 73 l 442 75 m 448 75 l 450 75 l 451 73 l 451 69 l 450 68 l 448 68 l 447 69 l 447 73 l 448 75 m 488 204 q 416 233 459 233 q 345 204 373 233 q 317 135 317 175 q 346 65 317 94 q 416 37 374 37 q 488 65 460 37 q 516 135 516 94 q 502 190 516 176 q 488 204 488 204 m 455 556 l 455 555 l 452 555 l 452 564 l 454 564 l 454 556 l 455 556 m 450 556 l 450 560 l 448 560 l 448 556 l 450 556 m 408 568 l 408 575 l 409 578 l 413 578 l 413 568 l 412 568 l 412 572 l 409 572 l 409 568 l 408 568 m 410 576 l 409 575 l 409 574 l 412 574 l 412 576 l 410 576 m 417 574 l 416 574 l 416 568 l 414 568 l 414 575 l 418 575 l 418 574 l 418 568 l 417 568 l 417 574 m 422 574 l 421 574 l 421 568 l 420 568 l 420 575 l 423 575 l 424 574 l 424 568 l 422 568 l 422 574 m 427 571 l 427 570 l 428 570 l 428 571 l 427 571 m 426 568 l 425 570 l 425 571 l 426 572 l 428 572 l 428 574 l 425 574 l 425 575 l 429 575 l 429 574 l 429 568 l 426 568 m 433 560 l 432 560 l 432 555 l 431 555 l 431 564 l 432 564 l 432 562 l 434 562 l 435 560 l 435 555 l 433 555 l 433 560 m 429 560 l 429 559 l 429 556 l 429 555 l 424 555 l 424 556 l 428 556 l 428 559 l 425 559 l 424 560 l 424 563 l 425 564 l 429 564 l 429 563 l 425 563 l 425 560 l 429 560 m 439 556 l 439 562 l 440 562 l 440 555 l 437 555 l 436 556 l 436 562 l 437 562 l 437 556 l 439 556 m 443 556 l 444 556 l 444 560 l 443 560 l 443 556 m 442 562 l 446 562 l 446 553 l 445 552 l 441 552 l 441 553 l 444 553 l 444 555 l 442 555 l 441 556 l 441 560 l 442 562 m 448 562 l 450 562 l 451 560 l 451 556 l 450 555 l 448 555 l 447 556 l 447 560 l 448 562 m 488 691 q 416 720 459 720 q 345 691 373 720 q 317 622 317 662 q 346 552 317 581 q 416 524 374 524 q 488 552 460 524 q 516 622 516 581 q 502 677 516 663 q 488 691 488 691 "},";":{"ha":833,"x_min":304,"x_max":516,"o":"m 378 -34 q 402 -79 402 -45 q 370 -137 402 -109 q 304 -176 337 -164 l 314 -214 q 411 -185 371 -208 q 473 -128 451 -163 q 506 -51 496 -93 q 516 44 515 -9 q 488 114 516 85 q 416 142 459 142 q 346 113 374 142 q 317 44 317 84 q 334 0 317 20 q 378 -34 351 -20 m 455 517 l 455 515 l 452 515 l 452 525 l 454 525 l 454 517 l 455 517 m 450 517 l 450 521 l 448 521 l 448 517 l 450 517 m 408 529 l 408 536 l 409 538 l 413 538 l 413 529 l 412 529 l 412 533 l 409 533 l 409 529 l 408 529 m 410 537 l 409 536 l 409 534 l 412 534 l 412 537 l 410 537 m 417 534 l 416 534 l 416 529 l 414 529 l 414 536 l 418 536 l 418 534 l 418 529 l 417 529 l 417 534 m 422 534 l 421 534 l 421 529 l 420 529 l 420 536 l 423 536 l 424 534 l 424 529 l 422 529 l 422 534 m 427 532 l 427 530 l 428 530 l 428 532 l 427 532 m 426 529 l 425 530 l 425 532 l 426 533 l 428 533 l 428 534 l 425 534 l 425 536 l 429 536 l 429 534 l 429 529 l 426 529 m 433 521 l 432 521 l 432 515 l 431 515 l 431 525 l 432 525 l 432 522 l 434 522 l 435 521 l 435 515 l 433 515 l 433 521 m 429 521 l 429 519 l 429 517 l 429 515 l 424 515 l 424 517 l 428 517 l 428 519 l 425 519 l 424 521 l 424 524 l 425 525 l 429 525 l 429 524 l 425 524 l 425 521 l 429 521 m 439 517 l 439 522 l 440 522 l 440 515 l 437 515 l 436 517 l 436 522 l 437 522 l 437 517 l 439 517 m 443 517 l 444 517 l 444 521 l 443 521 l 443 517 m 442 522 l 446 522 l 446 514 l 445 513 l 441 513 l 441 514 l 444 514 l 444 515 l 442 515 l 441 517 l 441 521 l 442 522 m 448 522 l 450 522 l 451 521 l 451 517 l 450 515 l 448 515 l 447 517 l 447 521 l 448 522 m 488 652 q 416 681 459 681 q 345 652 373 681 q 317 583 317 623 q 346 513 317 542 q 416 484 374 484 q 488 513 460 484 q 516 583 516 542 q 502 638 516 623 q 488 652 488 652 "},"<":{"ha":833,"x_min":165,"x_max":669,"o":"m 165 460 l 165 354 l 669 28 l 669 149 l 271 407 l 669 665 l 669 785 l 165 460 "},"=":{"ha":833,"x_min":138,"x_max":696,"o":"m 696 622 l 138 622 l 138 520 l 696 520 l 696 622 m 696 322 l 138 322 l 138 220 l 696 220 l 696 322 "},">":{"ha":833,"x_min":165,"x_max":669,"o":"m 165 787 l 165 665 l 564 407 l 165 149 l 165 27 l 669 353 l 669 460 l 165 787 "},"?":{"ha":833,"x_min":88,"x_max":745,"o":"m 367 346 l 367 251 l 469 251 l 469 346 q 479 375 469 361 q 522 418 489 389 l 650 528 q 745 694 745 608 l 745 743 q 736 804 745 774 q 703 864 726 834 q 644 917 680 895 q 553 952 609 939 q 426 966 496 966 l 409 966 q 279 952 336 966 q 187 915 222 937 q 130 862 153 892 q 98 803 106 831 q 88 744 89 774 l 190 741 q 212 803 191 777 q 268 841 233 829 q 337 859 303 854 q 409 865 372 865 l 426 865 q 485 862 456 865 q 543 850 513 859 q 594 828 572 841 q 630 792 616 814 q 644 743 644 770 l 644 694 q 585 605 644 653 l 456 495 q 388 424 410 456 q 367 346 367 393 m 531 42 q 497 119 531 89 q 416 150 463 150 q 336 118 369 150 q 302 42 302 85 q 337 -35 302 -3 q 416 -66 371 -66 q 497 -35 463 -66 q 531 42 531 -4 "},"@":{"ha":833,"x_min":20,"x_max":786,"o":"m 566 628 l 684 628 l 684 433 q 651 375 684 404 q 566 346 618 346 q 475 382 505 346 q 445 498 445 418 q 475 599 445 570 q 566 628 505 628 m 418 -17 q 724 47 649 -17 l 665 130 q 418 85 601 85 q 305 110 357 85 q 211 184 252 135 q 145 314 170 233 q 121 496 121 394 q 129 595 121 547 q 158 693 137 643 q 211 780 178 743 q 296 841 243 817 q 418 865 349 865 q 505 858 463 865 q 588 838 547 852 q 655 796 629 824 q 684 730 682 768 l 566 730 q 400 669 457 730 q 343 498 343 608 q 356 395 343 440 q 391 322 370 351 q 443 276 413 294 q 503 251 473 258 q 566 244 533 244 q 684 275 631 244 l 684 231 l 786 231 l 786 730 q 773 795 785 764 q 733 859 761 827 q 665 914 706 890 q 561 952 625 937 q 418 966 497 966 q 270 941 336 966 q 157 871 203 915 q 80 766 111 827 q 34 638 48 706 q 20 496 20 570 q 51 277 20 375 q 136 115 82 178 q 262 17 191 51 q 418 -17 334 -17 "},"A":{"ha":833,"x_min":67,"x_max":768,"o":"m 262 271 l 418 754 l 574 271 l 262 271 m 229 169 l 606 169 l 661 0 l 768 0 l 456 966 l 379 966 l 67 0 l 174 0 l 229 169 "},"B":{"ha":833,"x_min":88,"x_max":745,"o":"m 426 0 q 745 229 745 0 l 745 329 q 633 542 745 479 q 696 694 696 593 l 696 743 q 683 827 696 791 q 643 887 669 863 q 577 924 618 910 q 489 944 537 939 q 377 949 441 949 l 88 949 l 88 0 l 426 0 m 644 229 q 596 134 644 166 q 426 102 548 102 l 190 102 l 190 483 l 426 483 q 516 475 478 483 q 579 455 555 468 q 618 423 604 443 q 638 380 633 403 q 644 329 644 358 l 644 229 m 377 585 l 190 585 l 190 848 l 377 848 q 517 836 470 848 q 580 804 565 825 q 595 743 595 783 l 595 694 q 591 658 595 673 q 574 628 587 643 q 538 604 561 613 q 474 590 515 595 q 377 585 434 585 "},"C":{"ha":833,"x_min":88,"x_max":747,"o":"m 444 -17 q 626 39 553 -17 q 736 197 699 94 l 640 231 q 569 122 615 160 q 444 85 523 85 l 421 85 q 190 472 190 85 l 190 517 q 206 684 190 615 q 254 792 222 753 q 326 848 285 831 q 420 865 366 865 l 444 865 q 581 827 534 865 q 650 718 628 789 l 747 747 q 444 966 680 966 l 420 966 q 176 858 263 966 q 88 517 88 750 l 88 472 q 100 313 88 385 q 131 192 111 241 q 177 104 150 142 q 234 43 205 66 q 297 7 263 21 q 361 -12 332 -7 q 421 -17 390 -17 l 444 -17 "},"D":{"ha":833,"x_min":88,"x_max":745,"o":"m 745 526 q 736 659 745 599 q 704 774 727 718 q 643 867 680 829 q 546 927 606 905 q 407 949 486 949 l 88 949 l 88 0 l 407 0 q 469 5 439 0 q 533 22 498 9 q 597 56 568 35 q 655 113 627 77 q 702 194 683 148 q 733 308 722 241 q 745 455 745 374 l 745 526 m 407 848 q 474 842 444 848 q 531 823 503 836 q 578 786 559 810 q 613 727 598 762 q 636 641 629 692 q 644 526 644 591 l 644 455 q 407 102 644 102 l 190 102 l 190 848 l 407 848 "},"E":{"ha":833,"x_min":88,"x_max":745,"o":"m 190 483 l 653 483 l 653 585 l 190 585 l 190 848 l 745 848 l 745 949 l 88 949 l 88 0 l 745 0 l 745 102 l 190 102 l 190 483 "},"F":{"ha":833,"x_min":88,"x_max":745,"o":"m 190 483 l 654 483 l 654 585 l 190 585 l 190 848 l 745 848 l 745 949 l 88 949 l 88 -17 l 190 -17 l 190 483 "},"G":{"ha":833,"x_min":88,"x_max":747,"o":"m 745 165 l 745 469 l 460 469 l 460 368 l 644 368 l 644 185 q 571 115 624 146 q 444 85 519 85 l 426 85 q 329 107 371 85 q 261 166 287 130 q 219 254 235 202 q 196 358 202 306 q 190 472 190 411 l 190 517 q 207 682 190 613 q 255 789 223 750 q 329 847 287 829 q 425 865 370 865 l 444 865 q 581 827 534 865 q 650 718 628 789 l 747 747 q 444 966 680 966 l 425 966 q 338 958 379 966 q 249 920 296 949 q 168 844 201 891 q 111 713 134 797 q 88 517 88 629 l 88 472 q 100 315 88 387 q 132 195 112 244 q 179 107 151 145 q 236 45 207 68 q 300 8 266 22 q 365 -12 334 -7 q 426 -17 395 -17 l 444 -17 q 630 31 548 -17 q 745 165 712 79 "},"H":{"ha":833,"x_min":88,"x_max":745,"o":"m 190 0 l 190 446 l 644 446 l 644 0 l 745 0 l 745 949 l 644 949 l 644 547 l 190 547 l 190 949 l 88 949 l 88 0 l 190 0 "},"I":{"ha":833,"x_min":136,"x_max":698,"o":"m 698 949 l 136 949 l 136 848 l 367 848 l 367 102 l 136 102 l 136 0 l 698 0 l 698 102 l 469 102 l 469 848 l 698 848 l 698 949 "},"J":{"ha":833,"x_min":71,"x_max":745,"o":"m 745 949 l 262 949 l 262 848 l 496 848 l 496 242 q 456 128 496 171 q 336 85 416 85 l 319 85 q 260 89 286 85 q 219 100 234 94 q 192 117 203 106 q 176 136 181 127 q 168 157 172 145 l 71 125 q 113 52 85 81 q 175 8 140 22 q 245 -12 211 -6 q 319 -17 279 -17 l 336 -17 q 526 54 454 -17 q 597 242 597 125 l 597 848 l 745 848 l 745 949 "},"K":{"ha":833,"x_min":87,"x_max":782,"o":"m 330 467 l 658 0 l 782 0 l 400 545 l 766 949 l 629 949 l 189 463 l 189 949 l 87 949 l 87 0 l 189 0 l 189 311 l 330 467 "},"L":{"ha":833,"x_min":88,"x_max":745,"o":"m 190 102 l 190 949 l 88 949 l 88 0 l 745 0 l 745 102 l 190 102 "},"M":{"ha":833,"x_min":59,"x_max":774,"o":"m 59 0 l 161 0 l 224 691 l 394 143 l 441 143 l 610 690 l 673 0 l 774 0 l 688 949 l 583 949 l 418 411 l 250 949 l 146 949 l 59 0 "},"N":{"ha":833,"x_min":88,"x_max":745,"o":"m 190 0 l 190 740 l 656 0 l 745 0 l 745 949 l 644 949 l 644 211 l 178 949 l 88 949 l 88 0 l 190 0 "},"O":{"ha":833,"x_min":88,"x_max":745,"o":"m 745 519 q 742 613 745 569 q 729 703 739 656 q 705 787 720 750 q 665 859 690 825 q 607 916 640 893 q 527 953 574 939 q 424 966 481 966 l 412 966 q 274 940 333 966 q 181 873 216 914 q 124 770 146 831 q 96 650 103 709 q 88 517 88 590 l 88 472 q 103 286 88 368 q 146 148 119 204 q 214 54 174 91 q 304 0 255 17 q 412 -17 353 -17 l 424 -17 q 745 472 745 -16 l 745 519 m 424 865 q 517 849 479 865 q 586 794 556 833 q 629 688 615 756 q 644 519 644 619 l 644 472 q 629 290 644 366 q 584 170 614 214 q 515 105 555 125 q 424 85 476 85 l 412 85 q 294 121 342 85 q 218 244 246 157 q 190 472 190 332 l 190 517 q 205 686 190 618 q 250 793 220 755 q 318 848 279 832 q 412 865 357 865 l 424 865 "},"P":{"ha":833,"x_min":88,"x_max":745,"o":"m 190 423 l 426 423 q 668 491 591 423 q 745 680 745 558 l 745 721 q 730 815 745 774 q 688 881 715 855 q 620 922 661 906 q 532 943 578 937 q 426 949 486 949 l 88 949 l 88 0 l 190 0 l 190 423 m 426 525 l 190 525 l 190 848 l 426 848 q 522 842 482 848 q 585 826 562 836 q 622 800 609 817 q 640 765 635 783 q 644 721 644 747 l 644 680 q 634 616 644 642 q 601 568 625 589 q 534 536 577 547 q 426 525 490 525 "},"Q":{"ha":833,"x_min":88,"x_max":745,"o":"m 424 865 q 517 849 479 865 q 586 794 556 833 q 629 688 615 756 q 644 519 644 619 l 644 472 q 571 151 644 244 l 458 301 l 377 240 l 487 94 q 424 85 458 85 l 412 85 q 294 121 342 85 q 218 244 246 157 q 190 472 190 332 l 190 517 q 205 686 190 618 q 250 793 220 755 q 318 848 279 832 q 412 865 357 865 l 424 865 m 735 -67 l 634 67 q 745 472 745 186 l 745 519 q 742 613 745 569 q 729 703 739 656 q 705 787 720 750 q 665 859 690 825 q 607 916 640 893 q 527 953 574 939 q 424 966 481 966 l 412 966 q 274 940 333 966 q 181 873 216 914 q 124 770 146 831 q 96 650 103 709 q 88 517 88 590 l 88 472 q 103 286 88 368 q 146 148 119 204 q 214 54 174 91 q 304 0 255 17 q 412 -17 353 -17 l 424 -17 q 551 8 494 -17 l 654 -128 l 735 -67 "},"R":{"ha":833,"x_min":88,"x_max":792,"o":"m 190 435 l 388 435 l 671 0 l 792 0 l 507 439 q 745 660 745 465 l 745 721 q 730 815 745 774 q 688 881 715 855 q 620 922 661 906 q 532 943 578 937 q 426 949 486 949 l 88 949 l 88 0 l 190 0 l 190 435 m 426 537 l 190 537 l 190 848 l 426 848 q 522 842 482 848 q 585 826 562 836 q 622 800 609 817 q 640 765 635 783 q 644 721 644 747 l 644 660 q 634 609 644 630 q 601 571 625 588 q 534 546 578 554 q 426 537 490 537 "},"S":{"ha":833,"x_min":87,"x_max":745,"o":"m 409 85 q 251 134 314 85 q 189 242 189 184 l 87 242 q 111 146 87 193 q 177 63 135 100 q 279 5 218 27 q 409 -17 340 -17 l 426 -17 q 553 5 493 -17 q 655 63 613 27 q 721 146 696 99 q 745 242 745 193 l 745 262 q 734 341 745 304 q 706 404 723 378 q 664 450 688 429 q 614 484 639 471 q 563 507 590 497 l 301 597 q 256 642 275 607 q 237 701 237 677 l 237 721 q 247 766 237 742 q 277 812 257 789 q 334 850 298 835 q 415 865 370 865 l 422 865 q 632 777 593 865 l 724 819 q 422 966 659 966 l 415 966 q 295 944 350 966 q 206 885 240 921 q 154 806 172 848 q 135 721 135 763 l 135 701 q 140 657 135 682 q 158 602 145 633 q 199 543 171 570 q 267 501 228 515 l 529 410 q 619 351 594 388 q 644 262 644 313 l 644 242 q 581 135 644 184 q 426 85 518 85 l 409 85 "},"T":{"ha":833,"x_min":88,"x_max":745,"o":"m 745 949 l 88 949 l 88 848 l 367 848 l 367 0 l 469 0 l 469 848 l 745 848 l 745 949 "},"U":{"ha":833,"x_min":88,"x_max":745,"o":"m 190 262 l 190 949 l 88 949 l 88 262 q 174 64 88 144 q 409 -17 259 -17 l 426 -17 q 661 64 576 -17 q 745 262 745 144 l 745 949 l 644 949 l 644 262 q 588 135 644 186 q 426 85 532 85 l 409 85 q 246 135 302 85 q 190 262 190 186 "},"V":{"ha":833,"x_min":62,"x_max":774,"o":"m 371 -17 l 465 -17 l 774 949 l 668 949 l 418 170 l 170 949 l 62 949 l 371 -17 "},"W":{"ha":833,"x_min":62,"x_max":772,"o":"m 150 0 l 254 0 l 418 536 l 581 0 l 685 0 l 772 949 l 671 949 l 607 262 l 442 807 l 394 807 l 228 262 l 164 949 l 62 949 l 150 0 "},"X":{"ha":833,"x_min":73,"x_max":762,"o":"m 418 574 l 192 949 l 73 949 l 358 475 l 73 0 l 192 0 l 418 376 l 643 0 l 762 0 l 477 475 l 762 949 l 643 949 l 418 574 "},"Y":{"ha":833,"x_min":69,"x_max":766,"o":"m 418 465 l 182 949 l 69 949 l 367 336 l 367 -17 l 469 -17 l 469 336 l 766 949 l 652 949 l 418 465 "},"Z":{"ha":833,"x_min":88,"x_max":745,"o":"m 88 848 l 617 848 l 88 95 l 88 0 l 745 0 l 745 102 l 218 102 l 745 854 l 745 949 l 88 949 l 88 848 "},"[":{"ha":833,"x_min":256,"x_max":620,"o":"m 358 953 l 620 953 l 620 1055 l 256 1055 l 256 -105 l 620 -105 l 620 -3 l 358 -3 l 358 953 "},"\\":{"ha":833,"x_min":95,"x_max":739,"o":"m 95 941 l 650 -42 l 739 8 l 183 991 l 95 941 "},"]":{"ha":833,"x_min":193,"x_max":578,"o":"m 193 1055 l 193 953 l 477 953 l 477 -3 l 193 -3 l 193 -105 l 578 -105 l 578 1055 l 193 1055 "},"^":{"ha":833,"x_min":139,"x_max":696,"o":"m 462 966 l 374 966 l 139 705 l 215 637 l 418 863 l 620 637 l 696 705 l 462 966 "},"_":{"ha":833,"x_min":165,"x_max":669,"o":"m 669 -12 l 165 -12 l 165 -113 l 669 -113 l 669 -12 "},"`":{"ha":833,"x_min":254,"x_max":581,"o":"m 254 909 q 284 842 254 867 l 499 675 q 529 663 514 663 q 564 679 547 663 q 581 715 581 694 q 570 745 581 734 l 400 959 q 334 990 376 990 q 272 966 291 990 q 254 909 254 941 "},"a":{"ha":833,"x_min":88,"x_max":745,"o":"m 426 85 l 409 85 q 312 96 356 85 q 242 125 268 108 q 203 159 217 142 q 190 189 190 176 l 190 229 q 196 247 190 236 q 218 273 202 258 q 257 300 234 288 q 320 321 281 313 q 409 330 360 330 l 644 330 l 644 205 q 634 186 644 200 q 606 156 625 173 q 562 122 587 138 q 501 96 537 106 q 426 85 465 85 m 88 229 l 88 189 q 136 77 88 125 q 255 6 184 28 q 409 -17 327 -17 l 426 -17 q 644 58 541 -17 l 644 0 l 745 0 l 745 467 q 738 530 745 500 q 709 595 731 561 q 654 654 688 629 q 561 695 620 679 q 426 711 503 711 l 409 711 q 119 593 194 711 l 206 538 q 409 610 250 610 l 426 610 q 644 467 644 610 l 644 431 l 409 431 q 262 411 327 431 q 161 360 197 391 q 106 295 125 329 q 88 229 88 261 "},"b":{"ha":833,"x_min":88,"x_max":745,"o":"m 190 303 l 190 405 q 246 556 190 503 q 409 610 302 610 l 426 610 q 588 557 533 610 q 644 405 644 504 l 644 303 q 590 145 644 205 q 426 85 536 85 l 409 85 q 253 147 317 85 q 190 303 190 210 m 409 711 q 190 643 273 711 l 190 949 l 88 949 l 88 0 l 190 0 l 190 67 q 409 -17 281 -17 l 426 -17 q 660 72 575 -17 q 745 303 745 161 l 745 405 q 663 626 745 541 q 426 711 581 711 l 409 711 "},"c":{"ha":833,"x_min":88,"x_max":727,"o":"m 426 609 q 633 529 597 609 l 727 570 q 426 711 665 711 l 409 711 q 171 626 254 711 q 88 405 88 541 l 88 290 q 131 130 88 201 q 247 21 174 59 q 409 -17 320 -17 l 426 -17 q 614 20 536 -17 q 725 125 691 56 l 634 170 q 557 106 612 127 q 426 85 502 85 l 409 85 q 253 141 315 85 q 190 290 190 198 l 190 405 q 246 556 190 503 q 409 609 302 609 l 426 609 "},"d":{"ha":833,"x_min":88,"x_max":745,"o":"m 190 405 q 246 556 190 503 q 409 610 302 610 l 426 610 q 588 557 533 610 q 644 405 644 504 l 644 290 q 588 137 644 190 q 426 85 533 85 l 409 85 q 253 141 315 85 q 190 290 190 198 l 190 405 m 409 711 q 171 626 254 711 q 88 405 88 541 l 88 290 q 131 130 88 201 q 247 21 174 59 q 409 -17 320 -17 l 426 -17 q 644 50 562 -17 l 644 0 l 745 0 l 745 949 l 644 949 l 644 644 q 426 711 561 711 l 409 711 "},"e":{"ha":833,"x_min":88,"x_max":745,"o":"m 190 330 l 745 330 l 745 447 q 661 637 745 564 q 426 711 577 711 l 409 711 q 173 637 258 711 q 88 447 88 564 l 88 249 q 110 152 88 199 q 171 67 132 104 q 273 6 211 29 q 409 -17 335 -17 l 426 -17 q 624 24 547 -17 q 730 139 702 66 l 635 176 q 603 132 626 151 q 556 105 579 113 q 502 91 532 96 q 456 85 471 86 q 426 85 441 85 l 409 85 q 310 100 354 85 q 241 141 267 116 q 203 193 216 165 q 190 249 190 221 l 190 330 m 644 431 l 190 431 l 190 447 q 245 565 190 520 q 409 610 300 610 l 426 610 q 589 565 534 610 q 644 447 644 520 l 644 431 "},"f":{"ha":833,"x_min":139,"x_max":724,"o":"m 269 776 l 269 631 l 139 631 l 139 530 l 269 530 l 269 0 l 370 0 l 370 530 l 627 530 l 627 631 l 370 631 l 370 776 q 404 834 370 804 q 498 865 437 865 l 515 865 q 586 842 549 865 q 636 795 623 820 l 724 846 q 636 930 696 895 q 515 966 576 966 l 498 966 q 397 948 443 966 q 324 900 351 929 q 283 838 297 870 q 269 776 269 806 "},"g":{"ha":833,"x_min":88,"x_max":763,"o":"m 190 -73 l 190 -59 q 200 -43 190 -53 q 229 -24 210 -34 q 275 -5 249 -14 q 336 10 300 4 q 409 16 372 16 l 426 16 q 510 8 471 16 q 573 -9 549 1 q 613 -31 596 -19 q 637 -50 630 -42 q 644 -60 644 -58 l 644 -73 q 613 -112 644 -92 q 531 -145 583 -132 q 426 -159 479 -159 l 409 -159 q 315 -149 359 -159 q 245 -126 272 -140 q 204 -98 219 -112 q 190 -73 190 -83 m 715 579 q 763 600 739 600 l 763 701 q 642 650 694 701 q 426 711 547 711 l 409 711 q 328 704 370 711 q 243 678 286 696 q 166 635 200 661 q 110 572 132 610 q 88 488 88 534 l 88 456 q 160 312 88 379 q 100 191 100 258 l 100 146 q 112 96 100 126 q 147 43 123 65 q 88 -59 88 -1 l 88 -73 q 180 -207 88 -152 q 409 -261 272 -261 l 426 -261 q 506 -255 465 -261 q 591 -235 547 -250 q 668 -200 634 -221 q 724 -146 702 -180 q 745 -73 745 -113 l 745 -59 q 655 63 745 8 q 426 117 564 117 l 409 117 q 252 94 326 117 q 202 146 202 118 l 202 191 q 213 220 202 203 q 250 251 224 237 q 409 214 328 214 l 426 214 q 579 248 505 214 q 700 338 654 281 q 745 456 745 395 l 745 488 q 715 579 745 534 m 644 488 l 644 456 q 576 363 644 410 q 426 316 508 316 l 409 316 q 258 363 327 316 q 190 456 190 410 l 190 488 q 224 549 190 520 q 309 594 258 578 q 409 610 359 610 l 426 610 q 521 596 477 610 q 590 564 564 583 q 630 524 616 544 q 644 488 644 504 "},"h":{"ha":833,"x_min":88,"x_max":745,"o":"m 644 467 l 644 0 l 745 0 l 745 467 q 658 640 745 569 q 426 711 571 711 l 409 711 q 190 614 287 711 l 190 949 l 88 949 l 88 0 l 190 0 l 190 405 q 207 464 190 429 q 251 531 223 498 q 321 587 278 564 q 409 610 363 610 l 426 610 q 526 596 482 610 q 594 562 569 583 q 631 516 618 540 q 644 467 644 492 "},"i":{"ha":833,"x_min":139,"x_max":694,"o":"m 200 694 l 200 593 l 367 593 l 367 102 l 139 102 l 139 0 l 694 0 l 694 102 l 469 102 l 469 694 l 200 694 m 360 818 q 422 792 385 792 q 484 818 458 792 q 510 880 510 844 q 484 941 510 916 q 422 967 458 967 q 360 942 385 967 q 335 880 335 916 q 348 830 335 843 q 360 818 360 818 "},"j":{"ha":833,"x_min":212,"x_max":654,"o":"m 432 -149 q 351 -113 389 -149 q 314 -47 314 -78 l 212 -47 q 279 -185 212 -119 q 432 -250 347 -250 q 587 -190 520 -250 q 654 -47 654 -130 l 654 694 l 313 694 l 313 593 l 552 593 l 552 -47 q 515 -118 552 -87 q 432 -149 477 -149 m 483 818 q 545 792 508 792 q 607 818 581 792 q 633 880 633 844 q 607 941 633 916 q 545 967 581 967 q 483 942 508 967 q 458 880 458 916 q 470 830 458 843 q 483 818 483 818 "},"k":{"ha":833,"x_min":88,"x_max":764,"o":"m 330 352 l 630 0 l 764 0 l 409 417 l 727 682 l 662 760 l 190 367 l 190 966 l 88 966 l 88 0 l 190 0 l 190 235 l 330 352 "},"l":{"ha":833,"x_min":139,"x_max":694,"o":"m 139 949 l 139 848 l 367 848 l 367 102 l 139 102 l 139 0 l 694 0 l 694 102 l 469 102 l 469 949 l 139 949 "},"m":{"ha":833,"x_min":49,"x_max":786,"o":"m 684 528 l 684 0 l 786 0 l 786 528 q 736 662 786 612 q 601 711 686 711 l 591 711 q 437 640 503 711 q 283 711 388 711 l 273 711 q 151 669 208 711 l 151 694 l 49 694 l 49 0 l 151 0 l 151 467 q 188 564 151 519 q 273 610 225 610 l 283 610 q 348 589 329 610 q 367 528 367 568 l 367 0 l 469 0 l 469 467 q 506 564 469 519 q 591 610 543 610 l 601 610 q 666 588 647 610 q 684 528 684 566 "},"n":{"ha":833,"x_min":88,"x_max":745,"o":"m 644 460 l 644 0 l 745 0 l 745 460 q 662 644 745 576 q 426 711 578 711 l 409 711 q 190 610 286 711 l 190 694 l 88 694 l 88 0 l 190 0 l 190 391 q 200 439 190 411 q 231 496 211 467 q 277 552 251 526 q 338 593 303 577 q 409 610 373 610 l 426 610 q 490 606 460 610 q 548 591 519 602 q 598 565 577 581 q 631 522 618 549 q 644 460 644 495 "},"o":{"ha":833,"x_min":88,"x_max":745,"o":"m 745 381 q 666 621 745 531 q 435 711 587 711 l 396 711 q 167 620 245 711 q 88 380 88 530 l 88 326 q 107 192 88 253 q 162 83 125 130 q 259 9 199 36 q 397 -17 319 -17 l 432 -17 q 572 9 511 -17 q 670 81 633 35 q 726 190 707 128 q 745 326 745 251 l 745 381 m 435 609 q 644 381 644 609 l 644 326 q 432 85 644 85 l 397 85 q 312 99 349 85 q 253 135 275 113 q 215 190 230 158 q 195 255 201 222 q 190 326 190 288 l 190 380 q 396 609 190 609 l 435 609 "},"p":{"ha":833,"x_min":88,"x_max":745,"o":"m 190 290 l 190 405 q 246 556 190 503 q 409 610 302 610 l 426 610 q 588 557 533 610 q 644 405 644 504 l 644 303 q 590 145 644 205 q 426 85 536 85 l 409 85 q 253 141 315 85 q 190 290 190 198 m 190 -261 l 190 61 q 409 -17 279 -17 l 426 -17 q 660 72 575 -17 q 745 303 745 161 l 745 405 q 663 626 745 541 q 426 711 581 711 l 409 711 q 190 643 273 711 l 190 694 l 88 694 l 88 -261 l 190 -261 "},"q":{"ha":833,"x_min":88,"x_max":745,"o":"m 190 405 q 246 556 190 503 q 409 610 302 610 l 426 610 q 588 557 533 610 q 644 405 644 504 l 644 303 q 590 145 644 205 q 426 85 536 85 l 409 85 q 254 144 317 85 q 190 296 190 203 l 190 405 m 409 711 q 171 626 254 711 q 88 405 88 541 l 88 296 q 131 135 88 208 q 248 23 174 63 q 409 -17 321 -17 l 426 -17 q 644 56 559 -17 l 644 -261 l 745 -261 l 745 694 l 644 694 l 644 644 q 426 711 561 711 l 409 711 "},"r":{"ha":833,"x_min":88,"x_max":743,"o":"m 496 610 q 661 555 621 610 l 743 616 q 496 711 673 711 l 479 711 q 322 672 398 711 q 190 566 247 632 l 190 694 l 88 694 l 88 0 l 190 0 l 190 319 q 230 448 190 380 q 338 563 269 515 q 479 610 406 610 l 496 610 "},"s":{"ha":833,"x_min":88,"x_max":745,"o":"m 117 535 l 117 527 q 152 427 117 477 q 256 358 186 376 l 582 274 q 621 250 599 269 q 644 204 644 231 l 644 180 q 605 127 644 150 q 518 95 567 104 q 426 85 470 85 l 378 85 q 244 126 299 85 q 190 215 190 168 l 88 215 q 173 54 88 124 q 378 -17 257 -17 l 426 -17 q 493 -13 457 -17 q 575 4 528 -9 q 658 37 622 17 q 720 94 694 57 q 745 180 745 132 l 745 204 q 712 306 745 258 q 607 372 679 353 l 281 456 q 235 486 250 464 q 219 527 219 508 l 219 535 q 229 559 219 547 q 260 583 239 572 q 320 602 281 595 q 409 610 359 610 l 426 610 q 553 584 496 610 q 633 522 610 558 l 719 576 q 596 676 678 641 q 426 711 513 711 l 409 711 q 288 700 340 711 q 203 670 235 688 q 152 627 172 652 q 124 581 132 603 q 117 535 117 558 "},"t":{"ha":833,"x_min":89,"x_max":707,"o":"m 349 212 l 378 582 l 627 582 l 627 684 l 386 684 l 408 966 l 306 966 l 283 684 l 89 684 l 89 582 l 276 582 l 247 203 q 316 47 247 111 q 479 -17 385 -17 l 496 -17 q 628 25 572 -17 q 707 122 684 68 l 614 163 q 569 108 600 132 q 496 85 538 85 l 479 85 q 437 92 458 85 q 396 112 416 98 q 362 152 375 126 q 349 212 349 178 "},"u":{"ha":833,"x_min":88,"x_max":745,"o":"m 190 249 l 190 694 l 88 694 l 88 249 q 105 146 88 193 q 157 62 123 100 q 251 4 192 25 q 388 -17 310 -17 l 406 -17 q 533 17 472 -17 q 644 106 594 51 l 644 0 l 745 0 l 745 694 l 644 694 l 644 323 q 624 259 644 298 q 573 180 604 219 q 496 113 541 141 q 406 85 451 85 l 388 85 q 190 249 190 85 "},"v":{"ha":833,"x_min":81,"x_max":755,"o":"m 384 -17 l 452 -17 l 755 694 l 644 694 l 418 163 l 191 694 l 81 694 l 384 -17 "},"w":{"ha":833,"x_min":57,"x_max":778,"o":"m 147 0 l 235 0 l 418 446 l 600 0 l 688 0 l 778 694 l 675 694 l 615 231 l 447 644 l 389 644 l 220 231 l 159 694 l 57 694 l 147 0 "},"x":{"ha":833,"x_min":75,"x_max":760,"o":"m 417 429 l 205 694 l 75 694 l 352 347 l 75 0 l 205 0 l 417 266 l 629 0 l 760 0 l 482 347 l 760 694 l 629 694 l 417 429 "},"y":{"ha":833,"x_min":68,"x_max":772,"o":"m 512 -91 l 772 694 l 665 694 l 500 196 l 205 694 l 87 694 l 457 68 l 416 -58 q 292 -149 385 -149 l 271 -149 q 208 -133 241 -149 q 161 -100 174 -117 l 151 -85 l 68 -145 l 79 -159 q 166 -226 109 -201 q 271 -250 224 -250 l 292 -250 q 429 -209 372 -250 q 512 -91 487 -167 "},"z":{"ha":833,"x_min":87,"x_max":744,"o":"m 87 100 l 87 0 l 744 0 l 744 102 l 233 102 l 744 608 l 744 694 l 98 694 l 98 593 l 585 593 l 87 100 "},"{":{"ha":833,"x_min":193,"x_max":640,"o":"m 579 953 l 640 953 l 640 1055 l 579 1055 q 411 996 477 1055 q 345 842 345 937 l 345 658 q 317 582 345 616 q 240 547 290 547 l 193 547 l 193 446 l 240 446 q 298 421 273 446 q 334 362 323 396 q 345 292 345 328 l 345 107 q 411 -46 345 13 q 579 -105 477 -105 l 640 -105 l 640 -3 l 579 -3 q 484 26 520 -3 q 447 107 447 56 l 447 292 q 427 404 447 351 q 371 492 407 456 q 427 567 408 523 q 447 658 447 612 l 447 842 q 484 923 447 894 q 579 953 521 953 "},"|":{"ha":833,"x_min":366,"x_max":468,"o":"m 366 1002 l 366 -52 l 468 -52 l 468 1002 l 366 1002 "},"}":{"ha":833,"x_min":193,"x_max":640,"o":"m 247 1055 l 193 1055 l 193 953 l 247 953 q 342 923 305 953 q 379 842 379 894 l 379 658 q 399 567 379 612 q 455 492 418 523 q 399 404 419 456 q 379 292 379 351 l 379 107 q 342 26 379 56 q 247 -3 306 -3 l 193 -3 l 193 -105 l 247 -105 q 415 -46 349 -105 q 481 107 481 13 l 481 292 q 509 397 481 349 q 586 446 537 446 l 640 446 l 640 547 l 586 547 q 509 582 536 547 q 481 658 481 616 l 481 842 q 415 996 481 937 q 247 1055 349 1055 "},"~":{"ha":833,"x_min":151,"x_max":685,"o":"m 151 583 l 246 546 q 284 598 271 584 q 309 612 297 612 l 316 612 q 344 606 328 612 q 367 596 361 601 l 418 553 q 518 514 463 514 l 528 514 q 593 527 564 514 q 640 563 622 541 q 668 605 658 585 q 685 648 678 625 l 587 677 q 564 635 581 654 q 528 616 547 616 l 517 616 q 483 631 503 616 l 432 673 q 377 702 411 691 q 316 713 342 713 l 306 713 q 263 704 287 713 q 207 663 239 694 q 151 583 174 631 "}," ":{"ha":833,"x_min":0,"x_max":0,"o":""},"¡":{"ha":833,"x_min":294,"x_max":547,"o":"m 294 855 q 332 769 294 803 q 420 735 370 735 q 510 771 473 735 q 547 855 547 807 q 509 941 547 906 q 420 975 471 975 q 331 941 369 975 q 294 855 294 907 m 422 -59 q 482 -33 460 -59 q 505 41 505 -6 l 477 629 l 366 629 l 339 42 q 361 -33 339 -7 q 422 -59 383 -59 "},"¢":{"ha":833,"x_min":88,"x_max":727,"o":"m 511 816 l 480 711 q 426 712 463 712 l 409 712 q 232 671 305 712 q 123 562 158 630 q 88 405 88 494 l 88 290 q 139 118 88 193 q 273 9 189 44 l 253 -60 l 351 -89 l 372 -16 q 409 -18 390 -18 l 426 -18 q 615 9 540 -18 q 725 105 691 36 l 634 150 q 618 127 628 137 q 586 107 608 118 q 524 90 564 96 q 426 83 483 83 l 409 83 l 401 83 l 553 598 q 633 543 616 582 l 727 583 q 582 694 690 665 l 609 787 l 511 816 m 426 610 l 451 610 l 302 107 q 220 180 250 132 q 190 290 190 227 l 190 405 q 246 557 190 503 q 409 610 302 610 l 426 610 "},"£":{"ha":833,"x_min":27,"x_max":745,"o":"m 162 547 l 88 547 l 88 445 l 241 445 q 260 400 252 427 q 269 350 269 372 l 269 319 q 198 190 269 263 q 59 86 128 117 l 27 72 l 69 -20 l 101 -6 q 192 25 152 17 q 290 33 232 33 l 319 33 q 391 20 364 33 l 426 3 q 477 -12 445 -7 q 534 -17 510 -17 l 569 -17 q 745 39 677 -17 l 682 117 q 569 85 642 85 l 534 85 q 497 88 517 85 q 471 94 476 91 l 437 111 q 319 135 389 135 l 286 135 q 370 319 370 231 l 370 350 q 353 445 370 395 l 614 445 l 614 547 l 291 547 l 237 616 q 204 668 219 641 q 190 708 190 695 l 190 734 q 210 799 190 772 q 262 839 229 825 q 332 859 296 852 q 409 865 368 865 l 426 865 q 538 847 488 865 q 614 801 587 830 l 688 870 q 571 944 642 921 q 426 966 500 966 l 409 966 q 172 903 255 966 q 88 734 88 839 l 88 708 q 105 640 88 679 q 137 581 123 602 q 162 547 151 560 "},"¤":{"ha":833,"x_min":87,"x_max":746,"o":"m 684 543 q 644 679 684 616 l 746 796 l 669 863 l 573 753 q 423 802 504 802 l 410 802 q 260 753 330 802 l 164 863 l 87 796 l 190 679 q 149 543 149 615 l 149 522 q 191 382 149 446 l 87 264 l 164 198 l 262 309 q 410 262 330 262 l 423 262 q 573 308 506 262 l 669 198 l 746 264 l 644 381 q 684 522 684 444 l 684 543 m 423 701 q 533 654 484 701 q 582 543 582 608 l 582 522 q 534 407 582 450 q 423 364 486 364 l 410 364 q 300 409 349 364 q 251 522 251 454 l 251 543 q 300 654 251 608 q 410 701 350 701 l 423 701 "},"¥":{"ha":833,"x_min":69,"x_max":766,"o":"m 694 310 l 469 310 l 469 336 l 766 949 l 652 949 l 418 465 l 182 949 l 69 949 l 367 336 l 367 310 l 136 310 l 136 208 l 367 208 l 367 134 l 136 134 l 136 33 l 367 33 l 367 -109 l 469 -109 l 469 33 l 694 33 l 694 134 l 469 134 l 469 208 l 694 208 l 694 310 "},"¦":{"ha":833,"x_min":366,"x_max":468,"o":"m 366 407 l 366 -52 l 468 -52 l 468 407 l 366 407 m 366 1002 l 366 564 l 468 564 l 468 1002 l 366 1002 "},"§":{"ha":833,"x_min":88,"x_max":745,"o":"m 426 625 q 582 581 519 625 q 644 490 644 537 l 644 459 q 584 359 644 406 q 426 312 524 312 l 409 312 q 309 326 353 312 q 240 363 265 340 q 202 410 215 385 q 190 459 190 435 l 190 490 q 250 582 190 539 q 409 625 310 625 l 426 625 m 603 117 l 603 101 q 563 22 603 57 q 454 -13 522 -13 l 437 -13 q 332 16 385 -13 q 256 82 279 44 l 169 28 q 280 -73 205 -31 q 437 -115 355 -115 l 454 -115 q 635 -50 566 -115 q 705 101 705 15 l 705 117 q 705 120 705 117 q 617 260 699 206 q 711 349 677 296 q 745 459 745 403 l 745 490 q 653 654 745 583 q 426 726 562 726 l 410 726 q 288 759 338 726 q 237 830 237 791 l 237 846 q 276 924 237 889 q 381 960 314 960 l 397 960 q 500 932 449 960 q 576 867 552 904 l 662 923 q 551 1020 625 979 q 397 1061 477 1061 l 381 1061 q 205 997 275 1061 q 136 846 136 933 l 136 830 q 219 682 136 741 q 123 599 158 650 q 88 490 88 548 l 88 459 q 110 367 88 412 q 171 288 132 323 q 273 231 211 252 q 409 210 335 210 l 425 210 q 547 183 495 210 q 603 117 600 156 "},"¨":{"ha":833,"x_min":195,"x_max":638,"o":"m 324 1087 q 270 1110 302 1110 q 217 1088 240 1110 q 195 1034 195 1067 q 217 978 195 1001 q 271 956 239 956 q 323 979 301 956 q 346 1034 346 1002 q 335 1076 346 1065 q 324 1087 324 1087 m 615 1088 q 564 1110 593 1110 q 512 1088 534 1110 q 490 1034 490 1066 q 512 979 490 1002 q 564 956 534 956 q 616 978 593 956 q 638 1034 638 1000 q 627 1078 638 1067 q 615 1088 615 1088 "},"©":{"ha":833,"x_min":24,"x_max":809,"o":"m 809 402 q 783 554 809 482 q 709 683 757 627 q 585 773 661 739 q 416 806 509 806 q 251 773 326 806 q 127 684 176 740 q 51 555 78 627 q 24 402 24 482 q 51 250 24 323 q 125 121 77 178 q 249 31 174 64 q 416 -3 325 -3 q 585 31 509 -3 q 709 123 661 66 q 783 253 758 181 q 809 402 809 325 m 416 705 q 544 680 488 705 q 636 611 601 654 q 689 515 671 568 q 707 402 707 462 q 689 291 707 344 q 636 194 671 237 q 544 124 601 151 q 416 98 487 98 q 290 124 347 98 q 198 192 233 149 q 145 289 163 235 q 126 402 126 342 q 145 516 126 463 q 199 613 164 570 q 291 680 235 655 q 416 705 347 705 m 423 196 q 574 257 516 196 l 500 328 q 423 298 473 298 q 345 328 371 298 q 318 401 318 358 q 345 475 318 446 q 423 505 371 505 q 500 477 473 505 l 574 547 q 423 607 517 607 q 274 548 331 607 q 216 401 216 490 q 273 255 216 315 q 423 196 329 196 "},"ª":{"ha":833,"x_min":139,"x_max":694,"o":"m 694 267 l 139 267 l 139 165 l 694 165 l 694 267 m 275 532 l 275 558 q 276 568 275 562 q 284 587 277 574 q 304 610 292 600 q 343 628 317 620 q 406 636 370 636 l 550 636 l 550 581 q 541 557 550 576 q 515 514 531 538 q 473 472 500 490 q 418 453 447 453 l 406 453 q 311 478 347 453 q 275 532 275 504 m 173 558 l 173 532 q 193 450 173 485 q 239 396 212 414 q 302 367 267 378 q 361 354 338 356 q 406 351 385 351 l 418 351 q 550 408 483 351 l 550 363 l 652 363 l 652 761 q 591 924 652 859 q 418 988 531 988 l 406 988 q 194 882 247 988 l 285 836 q 406 886 310 886 l 418 886 q 519 852 488 886 q 550 761 550 818 l 550 738 l 406 738 q 306 724 349 738 q 238 689 262 709 q 198 643 214 669 q 178 596 182 616 q 173 558 173 576 "},"«":{"ha":833,"x_min":170,"x_max":671,"o":"m 585 58 l 671 110 l 557 302 l 557 333 l 671 526 l 585 578 l 455 361 l 455 274 l 585 58 m 300 58 l 387 110 l 272 302 l 272 333 l 387 526 l 300 578 l 170 361 l 170 274 l 300 58 "},"¬":{"ha":833,"x_min":138,"x_max":657,"o":"m 138 458 l 138 356 l 555 356 l 555 145 l 657 145 l 657 458 l 138 458 "},"­":{"ha":833,"x_min":255,"x_max":579,"o":"m 579 458 l 255 458 l 255 356 l 579 356 l 579 458 "},"®":{"ha":833,"x_min":24,"x_max":809,"o":"m 429 619 l 267 619 l 267 232 l 368 232 l 368 351 l 406 351 l 498 205 l 584 259 l 515 368 q 566 414 549 385 q 584 480 584 444 l 584 497 q 429 619 584 619 m 482 497 l 482 480 q 471 459 482 466 q 429 452 459 452 l 368 452 l 368 517 l 429 517 q 482 497 482 517 m 809 404 q 783 556 809 484 q 709 684 757 628 q 585 773 661 740 q 416 806 509 806 q 251 773 326 806 q 127 685 176 741 q 51 556 78 629 q 24 404 24 484 q 51 252 24 324 q 125 122 77 179 q 249 31 174 64 q 416 -3 325 -3 q 585 32 509 -3 q 709 124 661 66 q 783 254 758 182 q 809 404 809 326 m 416 705 q 544 680 488 705 q 636 612 601 654 q 689 516 671 570 q 707 404 707 463 q 696 314 707 357 q 661 231 685 270 q 604 162 637 192 q 522 116 570 133 q 416 98 473 98 q 290 124 347 98 q 198 192 233 149 q 145 290 163 235 q 126 404 126 344 q 145 517 126 463 q 199 613 164 571 q 291 680 235 655 q 416 705 347 705 "},"¯":{"ha":833,"x_min":260,"x_max":568,"o":"m 260 315 l 568 315 l 568 416 l 260 416 l 260 315 "},"°":{"ha":833,"x_min":214,"x_max":621,"o":"m 621 751 q 566 897 621 838 q 417 955 511 955 q 270 897 326 955 q 214 751 214 838 q 269 606 214 665 q 417 547 325 547 q 565 607 509 547 q 621 751 621 666 m 417 853 q 467 844 446 853 q 499 818 488 834 q 514 786 509 802 q 519 751 519 770 q 493 679 519 709 q 417 649 468 649 q 341 679 366 649 q 315 751 315 708 q 341 824 315 795 q 417 853 366 853 "},"±":{"ha":833,"x_min":138,"x_max":696,"o":"m 696 158 l 138 158 l 138 56 l 696 56 l 696 158 m 696 635 l 468 635 l 468 863 l 366 863 l 366 635 l 138 635 l 138 534 l 366 534 l 366 284 l 468 284 l 468 534 l 696 534 l 696 635 "},"²":{"ha":833,"x_min":263,"x_max":618,"o":"m 517 825 l 517 810 q 509 781 517 802 q 490 751 500 761 l 347 618 q 294 549 326 598 l 294 390 l 611 390 l 611 492 l 378 492 q 418 545 402 531 l 559 676 q 602 742 586 702 q 618 810 618 782 l 618 825 q 609 886 618 859 q 583 928 600 913 q 548 955 566 944 q 508 969 530 965 q 471 975 486 974 q 440 977 456 977 l 431 977 q 367 967 395 977 q 318 940 338 958 q 287 906 298 922 q 263 868 275 890 l 353 819 q 385 863 370 850 q 431 875 401 875 l 440 875 q 462 874 454 875 q 482 871 470 874 q 500 864 494 869 q 512 849 507 859 q 517 825 517 840 "},"³":{"ha":833,"x_min":241,"x_max":593,"o":"m 413 871 l 421 871 q 458 858 446 871 q 471 822 471 844 l 471 806 q 452 765 471 787 q 416 744 433 744 l 346 744 l 346 642 l 421 642 q 471 624 452 642 q 491 581 491 606 l 491 566 q 490 545 491 554 q 486 523 490 536 q 474 500 481 509 q 454 486 467 492 q 421 479 440 479 l 413 479 q 367 502 391 479 q 343 551 343 524 l 241 551 q 295 429 241 481 q 413 378 348 378 l 421 378 q 485 388 455 378 q 539 420 515 399 q 578 479 564 442 q 593 566 593 517 l 593 581 q 533 705 593 656 q 572 806 572 753 l 572 822 q 530 929 572 886 q 421 973 488 973 l 413 973 q 349 962 378 973 q 299 932 319 950 q 271 902 280 913 q 254 878 261 890 l 347 836 q 413 871 367 871 "},"´":{"ha":833,"x_min":276,"x_max":559,"o":"m 383 806 l 559 1053 l 452 1130 l 276 884 l 383 806 "},"µ":{"ha":833,"x_min":53,"x_max":763,"o":"m 687 -61 l 763 7 q 745 67 745 24 l 745 694 l 644 694 l 644 269 q 627 214 644 245 q 584 154 611 182 q 514 105 556 125 q 426 85 471 85 l 409 85 q 247 138 303 85 q 190 269 190 192 l 190 694 l 88 694 l 88 -17 q 82 -129 88 -92 q 53 -214 77 -165 l 145 -258 q 182 -149 174 -197 q 190 -17 190 -101 l 190 53 q 409 -17 277 -17 l 426 -17 q 644 71 547 -17 l 644 67 q 687 -61 644 -14 "},"¶":{"ha":833,"x_min":86,"x_max":745,"o":"m 347 464 l 367 464 l 367 0 l 469 0 l 469 899 l 644 899 l 644 0 l 745 0 l 745 1000 l 347 1000 q 254 985 300 1000 q 171 941 209 970 q 110 867 133 913 q 86 764 86 821 l 86 717 q 93 644 86 678 q 118 576 100 610 q 165 518 136 542 q 240 479 193 494 q 347 464 286 464 "},"·":{"ha":833,"x_min":331,"x_max":503,"o":"m 478 553 q 416 578 454 578 q 355 553 379 578 q 331 493 331 528 q 355 433 331 458 q 416 408 380 408 q 478 433 454 408 q 503 493 503 458 q 490 541 503 528 q 478 553 478 553 "},"¸":{"ha":833,"x_min":275,"x_max":621,"o":"m 519 -183 q 499 -226 519 -211 q 444 -241 479 -241 q 341 -201 387 -241 l 275 -265 q 444 -330 349 -330 q 529 -315 490 -330 q 594 -267 568 -301 q 621 -183 621 -233 q 490 -43 621 -65 l 493 -2 l 493 12 l 391 12 l 391 2 l 382 -127 l 436 -127 q 519 -183 519 -127 "},"¹":{"ha":833,"x_min":317,"x_max":524,"o":"m 524 966 l 447 966 l 317 838 l 342 810 l 422 850 l 422 435 l 524 435 l 524 966 "},"º":{"ha":833,"x_min":139,"x_max":694,"o":"m 694 267 l 139 267 l 139 165 l 694 165 l 694 267 m 679 673 q 661 809 679 750 q 617 902 644 868 q 554 956 591 935 q 485 983 517 977 q 418 990 453 990 q 268 948 330 990 q 178 835 206 905 q 149 673 149 765 q 177 510 149 580 q 267 397 205 439 q 418 355 329 355 q 534 379 484 355 q 616 446 585 403 q 663 547 648 490 q 679 673 679 604 m 418 888 q 536 840 495 888 q 577 673 577 791 q 418 456 577 456 q 336 474 370 456 q 284 525 302 492 q 259 593 267 557 q 251 673 251 629 q 259 752 251 716 q 284 820 267 788 q 336 870 302 852 q 418 888 370 888 "},"»":{"ha":833,"x_min":163,"x_max":664,"o":"m 277 302 l 163 110 l 250 58 l 379 274 l 379 361 l 250 578 l 163 526 l 277 333 l 277 302 m 562 302 l 448 110 l 534 58 l 664 274 l 664 361 l 534 578 l 448 526 l 562 333 l 562 302 "},"¼":{"ha":833,"x_min":89,"x_max":744,"o":"m 684 -23 l 744 -23 l 744 79 l 684 79 l 684 390 l 595 390 l 372 100 l 372 -23 l 583 -23 l 583 -142 l 684 -142 l 684 -23 m 650 991 l 95 8 l 183 -42 l 739 941 l 650 991 m 583 207 l 583 79 l 484 79 l 583 207 m 292 1064 l 221 1064 l 89 939 l 113 905 l 191 941 l 191 545 l 292 545 l 292 1064 "},"½":{"ha":833,"x_min":82,"x_max":817,"o":"m 650 991 l 95 8 l 184 -42 l 739 941 l 650 991 m 609 372 q 518 357 557 372 q 460 325 479 343 q 424 280 441 307 l 509 224 q 546 260 526 250 q 609 270 566 270 l 619 270 q 694 257 673 270 q 715 220 715 245 l 715 205 q 706 177 715 197 q 684 147 697 157 l 505 7 q 441 -65 467 -22 l 441 -193 l 783 -193 l 783 -92 l 547 -92 q 567 -73 555 -83 l 749 70 q 817 205 817 123 l 817 220 q 813 259 817 241 q 795 299 808 278 q 761 336 782 321 q 704 361 740 351 q 619 372 667 372 l 609 372 m 286 1064 l 214 1064 l 82 939 l 106 905 l 184 941 l 184 545 l 286 545 l 286 1064 "},"¾":{"ha":833,"x_min":9,"x_max":751,"o":"m 691 -23 l 751 -23 l 751 79 l 691 79 l 691 390 l 602 390 l 378 100 l 378 -23 l 589 -23 l 589 -142 l 691 -142 l 691 -23 m 650 991 l 95 8 l 183 -42 l 739 941 l 650 991 m 285 935 q 274 910 285 919 q 231 902 262 902 l 132 902 l 132 800 l 231 800 q 299 791 286 800 q 313 736 313 781 l 313 728 q 292 660 313 683 q 218 637 271 637 l 207 637 q 157 644 178 637 q 127 662 136 651 q 115 680 119 672 q 111 694 111 688 l 9 694 q 20 642 9 668 q 51 591 30 616 q 113 551 73 566 q 207 535 153 535 l 218 535 q 363 587 311 535 q 414 728 414 639 l 414 736 q 367 866 414 827 q 387 926 387 901 l 387 949 q 370 1015 387 987 q 331 1056 353 1043 q 281 1077 309 1069 q 239 1086 253 1085 q 218 1088 226 1088 l 207 1088 q 101 1064 149 1088 q 27 997 53 1040 l 115 945 q 149 975 125 963 q 207 986 172 986 l 218 986 q 285 935 285 986 m 589 207 l 589 79 l 490 79 l 589 207 "},"¿":{"ha":833,"x_min":-120,"x_max":537,"o":"m 258 597 l 258 692 l 157 692 l 157 597 q 146 568 157 582 q 103 525 136 553 l -25 415 q -120 248 -120 334 l -120 200 q -111 138 -120 168 q -78 78 -101 109 q -19 26 -54 48 q 73 -10 16 4 q 199 -24 129 -24 l 216 -24 q 346 -9 289 -24 q 438 28 404 5 q 496 81 473 51 q 528 140 519 111 q 537 199 536 169 l 435 201 q 413 140 435 165 q 357 101 392 114 q 288 83 322 89 q 216 78 254 78 l 199 78 q 140 81 169 78 q 82 93 112 84 q 31 115 53 102 q -4 150 9 128 q -18 200 -18 172 l -18 248 q 40 338 -18 290 l 170 448 q 237 518 216 487 q 258 597 258 550 m 94 901 q 129 823 94 854 q 209 793 163 793 q 290 825 256 793 q 323 901 323 857 q 289 977 323 946 q 209 1008 254 1008 q 129 978 163 1008 q 94 901 94 947 "},"À":{"ha":833,"x_min":67,"x_max":768,"o":"m 262 271 l 418 754 l 574 271 l 262 271 m 229 169 l 606 169 l 661 0 l 768 0 l 456 966 l 379 966 l 67 0 l 174 0 l 229 169 m 510 1029 l 335 1213 l 240 1122 l 415 937 l 510 1029 "},"Á":{"ha":833,"x_min":67,"x_max":768,"o":"m 262 271 l 418 754 l 574 271 l 262 271 m 229 169 l 606 169 l 661 0 l 768 0 l 456 966 l 379 966 l 67 0 l 174 0 l 229 169 m 428 939 l 603 1123 l 508 1215 l 333 1030 l 428 939 "},"Â":{"ha":833,"x_min":67,"x_max":768,"o":"m 262 271 l 418 754 l 574 271 l 262 271 m 229 169 l 606 169 l 661 0 l 768 0 l 456 966 l 379 966 l 67 0 l 174 0 l 229 169 m 477 1157 l 360 1157 l 222 1081 l 271 991 l 418 1073 l 566 991 l 615 1081 l 477 1157 "},"Ã":{"ha":833,"x_min":67,"x_max":768,"o":"m 262 271 l 418 754 l 574 271 l 262 271 m 229 169 l 606 169 l 661 0 l 768 0 l 456 966 l 379 966 l 67 0 l 174 0 l 229 169 m 189 1106 l 177 1088 l 262 1033 l 274 1050 q 316 1084 296 1084 l 327 1084 q 369 1072 355 1084 l 381 1061 q 429 1035 398 1046 q 490 1023 460 1023 l 502 1023 l 524 1027 q 579 1050 546 1029 q 633 1107 612 1071 l 642 1123 l 554 1175 l 545 1158 q 523 1134 535 1142 q 502 1125 511 1125 l 490 1125 q 466 1130 479 1125 q 449 1137 452 1135 l 436 1149 q 327 1186 394 1186 l 316 1186 q 189 1106 241 1186 "},"Ä":{"ha":833,"x_min":67,"x_max":768,"o":"m 262 271 l 418 754 l 574 271 l 262 271 m 229 169 l 606 169 l 661 0 l 768 0 l 456 966 l 379 966 l 67 0 l 174 0 l 229 169 m 325 1136 q 271 1158 302 1158 q 218 1137 241 1158 q 195 1082 195 1115 q 218 1026 195 1049 q 271 1004 240 1004 q 324 1027 302 1004 q 347 1082 347 1050 q 336 1124 347 1113 q 325 1136 325 1136 m 616 1137 q 565 1158 593 1158 q 513 1136 535 1158 q 490 1082 490 1114 q 513 1027 490 1050 q 565 1004 535 1004 q 616 1026 594 1004 q 639 1082 639 1048 q 627 1126 639 1115 q 616 1137 616 1137 "},"Å":{"ha":833,"x_min":67,"x_max":768,"o":"m 262 271 l 418 754 l 574 271 l 262 271 m 229 169 l 606 169 l 661 0 l 768 0 l 456 966 l 379 966 l 67 0 l 174 0 l 229 169 m 315 913 q 411 873 354 873 q 509 913 468 873 q 549 1010 549 953 q 509 1107 549 1067 q 411 1147 468 1147 q 315 1107 354 1147 q 275 1010 275 1067 q 295 933 275 953 q 315 913 315 913 m 368 1054 q 412 1072 386 1072 q 456 1054 437 1072 q 475 1010 475 1036 q 456 966 475 984 q 412 947 437 947 q 368 966 386 947 q 350 1010 350 984 q 359 1045 350 1036 q 368 1054 368 1054 "},"Æ":{"ha":833,"x_min":52,"x_max":745,"o":"m 439 569 l 279 569 l 326 781 q 333 807 329 798 q 347 827 336 816 q 378 843 357 838 q 432 848 399 848 l 439 848 l 439 569 m 227 803 l 52 0 l 155 0 l 257 467 l 439 467 l 439 0 l 745 0 l 745 102 l 541 102 l 541 467 l 694 467 l 694 569 l 541 569 l 541 848 l 745 848 l 745 949 l 432 949 q 349 939 385 949 q 292 914 313 928 q 257 878 271 900 q 237 840 242 856 q 227 803 231 824 "},"Ç":{"ha":833,"x_min":88,"x_max":747,"o":"m 444 -17 q 626 39 553 -17 q 736 197 699 94 l 640 231 q 569 122 615 160 q 444 85 523 85 l 421 85 q 190 472 190 85 l 190 517 q 206 684 190 615 q 254 792 222 753 q 326 848 285 831 q 420 865 366 865 l 444 865 q 581 827 534 865 q 650 718 628 789 l 747 747 q 444 966 680 966 l 420 966 q 176 858 263 966 q 88 517 88 750 l 88 472 q 100 313 88 385 q 131 192 111 241 q 177 104 150 142 q 234 43 205 66 q 297 7 263 21 q 361 -12 332 -7 q 421 -17 390 -17 l 444 -17 m 526 -187 q 506 -230 526 -215 q 451 -245 486 -245 q 348 -205 394 -245 l 281 -269 q 451 -334 356 -334 q 536 -319 497 -334 q 601 -271 574 -305 q 628 -187 628 -237 q 497 -47 628 -69 l 500 -6 l 500 8 l 398 8 l 398 -2 l 389 -131 l 443 -131 q 526 -187 526 -131 "},"È":{"ha":833,"x_min":88,"x_max":745,"o":"m 190 483 l 653 483 l 653 585 l 190 585 l 190 848 l 745 848 l 745 949 l 88 949 l 88 0 l 745 0 l 745 102 l 190 102 l 190 483 m 509 1030 l 334 1215 l 239 1123 l 414 939 l 509 1030 "},"É":{"ha":833,"x_min":88,"x_max":745,"o":"m 190 483 l 653 483 l 653 585 l 190 585 l 190 848 l 745 848 l 745 949 l 88 949 l 88 0 l 745 0 l 745 102 l 190 102 l 190 483 m 427 939 l 602 1123 l 507 1215 l 332 1030 l 427 939 "},"Ê":{"ha":833,"x_min":88,"x_max":745,"o":"m 190 483 l 653 483 l 653 585 l 190 585 l 190 848 l 745 848 l 745 949 l 88 949 l 88 0 l 745 0 l 745 102 l 190 102 l 190 483 m 476 1156 l 359 1156 l 221 1080 l 270 991 l 418 1072 l 566 991 l 614 1080 l 476 1156 "},"Ë":{"ha":833,"x_min":88,"x_max":745,"o":"m 190 483 l 653 483 l 653 585 l 190 585 l 190 848 l 745 848 l 745 949 l 88 949 l 88 0 l 745 0 l 745 102 l 190 102 l 190 483 m 324 1134 q 270 1156 302 1156 q 217 1135 240 1156 q 195 1080 195 1113 q 217 1024 195 1047 q 271 1002 239 1002 q 323 1025 301 1002 q 346 1080 346 1048 q 335 1122 346 1111 q 324 1134 324 1134 m 615 1135 q 564 1156 593 1156 q 512 1134 534 1156 q 490 1080 490 1112 q 512 1025 490 1048 q 564 1002 534 1002 q 616 1024 593 1002 q 638 1080 638 1046 q 627 1124 638 1113 q 615 1135 615 1135 "},"Ì":{"ha":833,"x_min":136,"x_max":698,"o":"m 698 949 l 136 949 l 136 848 l 367 848 l 367 102 l 136 102 l 136 0 l 698 0 l 698 102 l 469 102 l 469 848 l 698 848 l 698 949 m 510 1030 l 335 1215 l 240 1123 l 415 939 l 510 1030 "},"Í":{"ha":833,"x_min":136,"x_max":698,"o":"m 698 949 l 136 949 l 136 848 l 367 848 l 367 102 l 136 102 l 136 0 l 698 0 l 698 102 l 469 102 l 469 848 l 698 848 l 698 949 m 428 939 l 603 1123 l 508 1215 l 333 1030 l 428 939 "},"Î":{"ha":833,"x_min":136,"x_max":698,"o":"m 698 949 l 136 949 l 136 848 l 367 848 l 367 102 l 136 102 l 136 0 l 698 0 l 698 102 l 469 102 l 469 848 l 698 848 l 698 949 m 477 1156 l 360 1156 l 222 1080 l 271 991 l 418 1072 l 566 991 l 615 1080 l 477 1156 "},"Ï":{"ha":833,"x_min":136,"x_max":698,"o":"m 698 949 l 136 949 l 136 848 l 367 848 l 367 102 l 136 102 l 136 0 l 698 0 l 698 102 l 469 102 l 469 848 l 698 848 l 698 949 m 325 1134 q 271 1156 302 1156 q 218 1135 241 1156 q 195 1080 195 1113 q 218 1024 195 1047 q 271 1002 240 1002 q 324 1025 302 1002 q 347 1080 347 1048 q 336 1122 347 1111 q 325 1134 325 1134 m 616 1135 q 565 1156 593 1156 q 513 1134 535 1156 q 490 1080 490 1112 q 513 1025 490 1048 q 565 1002 535 1002 q 616 1024 594 1002 q 639 1080 639 1046 q 627 1124 639 1113 q 616 1135 616 1135 "},"Ð":{"ha":833,"x_min":54,"x_max":744,"o":"m 744 517 q 397 949 744 949 l 149 949 l 149 564 l 54 564 l 54 462 l 149 462 l 149 0 l 397 0 q 452 4 426 0 q 510 17 479 7 q 568 43 541 26 q 623 84 595 60 q 671 145 650 109 q 709 228 692 182 q 735 337 726 274 q 744 475 744 400 l 744 517 m 397 848 q 498 833 456 848 q 574 782 541 818 q 625 680 608 745 q 642 517 642 614 l 642 475 q 578 190 642 277 q 397 102 515 102 l 251 102 l 251 462 l 389 462 l 389 564 l 251 564 l 251 848 l 397 848 "},"Ñ":{"ha":833,"x_min":88,"x_max":745,"o":"m 190 0 l 190 740 l 656 0 l 745 0 l 745 949 l 644 949 l 644 211 l 178 949 l 88 949 l 88 0 l 190 0 m 189 1111 l 177 1093 l 262 1038 l 274 1055 q 316 1089 296 1089 l 327 1089 q 369 1077 355 1089 l 381 1066 q 429 1040 398 1051 q 490 1028 460 1028 l 502 1028 l 524 1031 q 579 1055 546 1034 q 633 1112 612 1076 l 642 1128 l 554 1179 l 545 1163 q 523 1138 535 1147 q 502 1130 511 1130 l 490 1130 q 466 1135 479 1130 q 449 1142 452 1139 l 436 1154 q 327 1191 394 1191 l 316 1191 q 189 1111 241 1191 "},"Ò":{"ha":833,"x_min":88,"x_max":745,"o":"m 745 519 q 742 613 745 569 q 729 703 739 656 q 705 787 720 750 q 665 859 690 825 q 607 916 640 893 q 527 953 574 939 q 424 966 481 966 l 412 966 q 274 940 333 966 q 181 873 216 914 q 124 770 146 831 q 96 650 103 709 q 88 517 88 590 l 88 472 q 103 286 88 368 q 146 148 119 204 q 214 54 174 91 q 304 0 255 17 q 412 -17 353 -17 l 424 -17 q 745 472 745 -16 l 745 519 m 424 865 q 517 849 479 865 q 586 794 556 833 q 629 688 615 756 q 644 519 644 619 l 644 472 q 629 290 644 366 q 584 170 614 214 q 515 105 555 125 q 424 85 476 85 l 412 85 q 294 121 342 85 q 218 244 246 157 q 190 472 190 332 l 190 517 q 205 686 190 618 q 250 793 220 755 q 318 848 279 832 q 412 865 357 865 l 424 865 m 513 1030 l 338 1215 l 243 1123 l 418 939 l 513 1030 "},"Ó":{"ha":833,"x_min":88,"x_max":745,"o":"m 745 519 q 742 613 745 569 q 729 703 739 656 q 705 787 720 750 q 665 859 690 825 q 607 916 640 893 q 527 953 574 939 q 424 966 481 966 l 412 966 q 274 940 333 966 q 181 873 216 914 q 124 770 146 831 q 96 650 103 709 q 88 517 88 590 l 88 472 q 103 286 88 368 q 146 148 119 204 q 214 54 174 91 q 304 0 255 17 q 412 -17 353 -17 l 424 -17 q 745 472 745 -16 l 745 519 m 424 865 q 517 849 479 865 q 586 794 556 833 q 629 688 615 756 q 644 519 644 619 l 644 472 q 629 290 644 366 q 584 170 614 214 q 515 105 555 125 q 424 85 476 85 l 412 85 q 294 121 342 85 q 218 244 246 157 q 190 472 190 332 l 190 517 q 205 686 190 618 q 250 793 220 755 q 318 848 279 832 q 412 865 357 865 l 424 865 m 431 938 l 606 1122 l 511 1214 l 336 1029 l 431 938 "},"Ô":{"ha":833,"x_min":88,"x_max":745,"o":"m 745 519 q 742 613 745 569 q 729 703 739 656 q 705 787 720 750 q 665 859 690 825 q 607 916 640 893 q 527 953 574 939 q 424 966 481 966 l 412 966 q 274 940 333 966 q 181 873 216 914 q 124 770 146 831 q 96 650 103 709 q 88 517 88 590 l 88 472 q 103 286 88 368 q 146 148 119 204 q 214 54 174 91 q 304 0 255 17 q 412 -17 353 -17 l 424 -17 q 745 472 745 -16 l 745 519 m 424 865 q 517 849 479 865 q 586 794 556 833 q 629 688 615 756 q 644 519 644 619 l 644 472 q 629 290 644 366 q 584 170 614 214 q 515 105 555 125 q 424 85 476 85 l 412 85 q 294 121 342 85 q 218 244 246 157 q 190 472 190 332 l 190 517 q 205 686 190 618 q 250 793 220 755 q 318 848 279 832 q 412 865 357 865 l 424 865 m 480 1156 l 363 1156 l 225 1080 l 274 990 l 422 1072 l 570 990 l 618 1080 l 480 1156 "},"Õ":{"ha":833,"x_min":88,"x_max":745,"o":"m 745 519 q 742 613 745 569 q 729 703 739 656 q 705 787 720 750 q 665 859 690 825 q 607 916 640 893 q 527 953 574 939 q 424 966 481 966 l 412 966 q 274 940 333 966 q 181 873 216 914 q 124 770 146 831 q 96 650 103 709 q 88 517 88 590 l 88 472 q 103 286 88 368 q 146 148 119 204 q 214 54 174 91 q 304 0 255 17 q 412 -17 353 -17 l 424 -17 q 745 472 745 -16 l 745 519 m 424 865 q 517 849 479 865 q 586 794 556 833 q 629 688 615 756 q 644 519 644 619 l 644 472 q 629 290 644 366 q 584 170 614 214 q 515 105 555 125 q 424 85 476 85 l 412 85 q 294 121 342 85 q 218 244 246 157 q 190 472 190 332 l 190 517 q 205 686 190 618 q 250 793 220 755 q 318 848 279 832 q 412 865 357 865 l 424 865 m 193 1108 l 181 1090 l 267 1035 l 278 1053 q 320 1086 300 1086 l 331 1086 q 373 1074 359 1086 l 385 1063 q 433 1037 402 1048 q 494 1025 464 1025 l 506 1025 l 528 1029 q 583 1052 550 1031 q 637 1109 616 1073 l 646 1125 l 558 1177 l 549 1160 q 527 1136 539 1144 q 506 1127 515 1127 l 494 1127 q 470 1132 484 1127 q 453 1139 456 1137 l 440 1151 q 331 1188 398 1188 l 320 1188 q 193 1108 245 1188 "},"Ö":{"ha":833,"x_min":88,"x_max":745,"o":"m 745 519 q 742 613 745 569 q 729 703 739 656 q 705 787 720 750 q 665 859 690 825 q 607 916 640 893 q 527 953 574 939 q 424 966 481 966 l 412 966 q 274 940 333 966 q 181 873 216 914 q 124 770 146 831 q 96 650 103 709 q 88 517 88 590 l 88 472 q 103 286 88 368 q 146 148 119 204 q 214 54 174 91 q 304 0 255 17 q 412 -17 353 -17 l 424 -17 q 745 472 745 -16 l 745 519 m 424 865 q 517 849 479 865 q 586 794 556 833 q 629 688 615 756 q 644 519 644 619 l 644 472 q 629 290 644 366 q 584 170 614 214 q 515 105 555 125 q 424 85 476 85 l 412 85 q 294 121 342 85 q 218 244 246 157 q 190 472 190 332 l 190 517 q 205 686 190 618 q 250 793 220 755 q 318 848 279 832 q 412 865 357 865 l 424 865 m 328 1132 q 274 1155 306 1155 q 221 1133 244 1155 q 199 1078 199 1112 q 221 1023 199 1046 q 275 1000 243 1000 q 328 1024 305 1000 q 350 1078 350 1047 q 339 1121 350 1109 q 328 1132 328 1132 m 620 1133 q 568 1155 597 1155 q 516 1133 538 1155 q 494 1078 494 1111 q 516 1023 494 1046 q 568 1000 538 1000 q 620 1023 597 1000 q 642 1078 642 1045 q 631 1122 642 1112 q 620 1133 620 1133 "},"×":{"ha":833,"x_min":183,"x_max":651,"o":"m 578 661 l 417 492 l 256 661 l 183 591 l 347 418 l 183 245 l 256 174 l 417 344 l 578 174 l 651 245 l 487 418 l 651 591 l 578 661 "},"Ø":{"ha":833,"x_min":18,"x_max":813,"o":"m 234 192 l 642 666 q 654 496 654 600 q 648 352 654 413 q 626 238 642 291 q 584 153 610 186 q 516 103 557 121 q 418 85 475 85 q 234 192 291 85 m 418 865 q 602 776 547 865 l 197 304 q 181 496 181 385 q 191 645 181 582 q 220 751 201 709 q 269 818 239 793 q 334 854 298 844 q 418 865 370 865 m 756 496 q 722 759 756 658 l 813 865 l 763 962 l 671 857 q 418 966 589 966 q 274 940 336 966 q 176 871 212 913 q 117 765 140 828 q 87 638 95 701 q 79 496 79 575 q 116 212 79 322 l 18 97 l 71 3 l 163 111 q 418 -17 248 -17 q 561 9 500 -17 q 658 80 621 36 q 718 192 695 124 q 748 332 740 260 q 756 496 756 404 "},"Ù":{"ha":833,"x_min":88,"x_max":745,"o":"m 190 262 l 190 949 l 88 949 l 88 262 q 174 64 88 144 q 409 -17 259 -17 l 426 -17 q 661 64 576 -17 q 745 262 745 144 l 745 949 l 644 949 l 644 262 q 588 135 644 186 q 426 85 532 85 l 409 85 q 246 135 302 85 q 190 262 190 186 m 509 1029 l 334 1214 l 239 1122 l 414 938 l 509 1029 "},"Ú":{"ha":833,"x_min":88,"x_max":745,"o":"m 190 262 l 190 949 l 88 949 l 88 262 q 174 64 88 144 q 409 -17 259 -17 l 426 -17 q 661 64 576 -17 q 745 262 745 144 l 745 949 l 644 949 l 644 262 q 588 135 644 186 q 426 85 532 85 l 409 85 q 246 135 302 85 q 190 262 190 186 m 427 939 l 602 1123 l 507 1215 l 332 1030 l 427 939 "},"Û":{"ha":833,"x_min":88,"x_max":745,"o":"m 190 262 l 190 949 l 88 949 l 88 262 q 174 64 88 144 q 409 -17 259 -17 l 426 -17 q 661 64 576 -17 q 745 262 745 144 l 745 949 l 644 949 l 644 262 q 588 135 644 186 q 426 85 532 85 l 409 85 q 246 135 302 85 q 190 262 190 186 m 476 1155 l 359 1155 l 221 1079 l 270 989 l 418 1071 l 566 989 l 614 1079 l 476 1155 "},"Ü":{"ha":833,"x_min":88,"x_max":745,"o":"m 190 262 l 190 949 l 88 949 l 88 262 q 174 64 88 144 q 409 -17 259 -17 l 426 -17 q 661 64 576 -17 q 745 262 745 144 l 745 949 l 644 949 l 644 262 q 588 135 644 186 q 426 85 532 85 l 409 85 q 246 135 302 85 q 190 262 190 186 m 324 1133 q 270 1156 302 1156 q 217 1134 240 1156 q 195 1079 195 1112 q 217 1024 195 1046 q 271 1001 239 1001 q 323 1024 301 1001 q 346 1079 346 1048 q 335 1122 346 1110 q 324 1133 324 1133 m 615 1134 q 564 1156 593 1156 q 512 1134 534 1156 q 490 1079 490 1112 q 512 1024 490 1047 q 564 1001 534 1001 q 616 1023 593 1001 q 638 1079 638 1046 q 627 1123 638 1112 q 615 1134 615 1134 "},"Ý":{"ha":833,"x_min":69,"x_max":766,"o":"m 418 465 l 182 949 l 69 949 l 367 336 l 367 -17 l 469 -17 l 469 336 l 766 949 l 652 949 l 418 465 m 428 938 l 603 1122 l 508 1214 l 333 1029 l 428 938 "},"Þ":{"ha":833,"x_min":88,"x_max":745,"o":"m 426 353 l 190 353 l 190 783 l 426 783 q 489 779 459 783 q 547 763 518 774 q 597 733 576 751 q 631 685 618 715 q 644 617 644 656 l 644 527 q 588 402 644 451 q 426 353 532 353 m 190 0 l 190 251 l 426 251 q 564 273 503 251 q 665 333 625 295 q 725 420 704 371 q 745 527 745 470 l 745 617 q 726 721 745 673 q 668 806 707 769 q 568 864 630 843 q 426 885 506 885 l 190 885 l 190 1044 l 88 1044 l 88 0 l 190 0 "},"ß":{"ha":833,"x_min":88,"x_max":745,"o":"m 88 703 l 88 -263 l 190 -263 l 190 703 q 203 755 190 728 q 242 808 217 783 q 312 849 268 833 q 409 865 355 865 l 426 865 q 488 859 460 865 q 541 840 515 853 q 581 802 566 827 q 595 741 595 777 l 595 715 q 546 618 595 652 q 377 585 497 585 l 359 585 l 359 483 l 426 483 q 504 476 468 483 q 573 452 540 469 q 625 405 606 436 q 644 329 644 373 l 644 256 q 596 134 644 184 q 471 85 549 85 l 463 85 q 358 109 395 85 l 302 23 q 463 -17 364 -17 l 471 -17 q 668 62 590 -17 q 745 256 745 140 l 745 329 q 712 455 745 400 q 617 544 680 511 q 696 715 696 604 l 696 741 q 624 906 696 846 q 426 966 551 966 l 409 966 q 252 935 325 966 q 134 843 180 904 q 88 703 88 782 "},"à":{"ha":833,"x_min":88,"x_max":745,"o":"m 426 85 l 409 85 q 312 96 356 85 q 242 125 268 108 q 203 159 217 142 q 190 189 190 176 l 190 229 q 196 247 190 236 q 218 273 202 258 q 257 300 234 288 q 320 321 281 313 q 409 330 360 330 l 644 330 l 644 205 q 634 186 644 200 q 606 156 625 173 q 562 122 587 138 q 501 96 537 106 q 426 85 465 85 m 88 229 l 88 189 q 136 77 88 125 q 255 6 184 28 q 409 -17 327 -17 l 426 -17 q 644 58 541 -17 l 644 0 l 745 0 l 745 467 q 738 530 745 500 q 709 595 731 561 q 654 654 688 629 q 561 695 620 679 q 426 711 503 711 l 409 711 q 119 593 194 711 l 206 538 q 409 610 250 610 l 426 610 q 644 467 644 610 l 644 431 l 409 431 q 262 411 327 431 q 161 360 197 391 q 106 295 125 329 q 88 229 88 261 m 523 801 l 348 985 l 253 894 l 428 709 l 523 801 "},"á":{"ha":833,"x_min":88,"x_max":745,"o":"m 426 85 l 409 85 q 312 96 356 85 q 242 125 268 108 q 203 159 217 142 q 190 189 190 176 l 190 229 q 196 247 190 236 q 218 273 202 258 q 257 300 234 288 q 320 321 281 313 q 409 330 360 330 l 644 330 l 644 205 q 634 186 644 200 q 606 156 625 173 q 562 122 587 138 q 501 96 537 106 q 426 85 465 85 m 88 229 l 88 189 q 136 77 88 125 q 255 6 184 28 q 409 -17 327 -17 l 426 -17 q 644 58 541 -17 l 644 0 l 745 0 l 745 467 q 738 530 745 500 q 709 595 731 561 q 654 654 688 629 q 561 695 620 679 q 426 711 503 711 l 409 711 q 119 593 194 711 l 206 538 q 409 610 250 610 l 426 610 q 644 467 644 610 l 644 431 l 409 431 q 262 411 327 431 q 161 360 197 391 q 106 295 125 329 q 88 229 88 261 m 441 709 l 616 894 l 521 985 l 346 801 l 441 709 "},"â":{"ha":833,"x_min":88,"x_max":745,"o":"m 426 85 l 409 85 q 312 96 356 85 q 242 125 268 108 q 203 159 217 142 q 190 189 190 176 l 190 229 q 196 247 190 236 q 218 273 202 258 q 257 300 234 288 q 320 321 281 313 q 409 330 360 330 l 644 330 l 644 205 q 634 186 644 200 q 606 156 625 173 q 562 122 587 138 q 501 96 537 106 q 426 85 465 85 m 88 229 l 88 189 q 136 77 88 125 q 255 6 184 28 q 409 -17 327 -17 l 426 -17 q 644 58 541 -17 l 644 0 l 745 0 l 745 467 q 738 530 745 500 q 709 595 731 561 q 654 654 688 629 q 561 695 620 679 q 426 711 503 711 l 409 711 q 119 593 194 711 l 206 538 q 409 610 250 610 l 426 610 q 644 467 644 610 l 644 431 l 409 431 q 262 411 327 431 q 161 360 197 391 q 106 295 125 329 q 88 229 88 261 m 490 954 l 373 954 l 235 878 l 283 789 l 431 870 l 579 789 l 628 878 l 490 954 "},"ã":{"ha":833,"x_min":88,"x_max":745,"o":"m 426 85 l 409 85 q 312 96 356 85 q 242 125 268 108 q 203 159 217 142 q 190 189 190 176 l 190 229 q 196 247 190 236 q 218 273 202 258 q 257 300 234 288 q 320 321 281 313 q 409 330 360 330 l 644 330 l 644 205 q 634 186 644 200 q 606 156 625 173 q 562 122 587 138 q 501 96 537 106 q 426 85 465 85 m 88 229 l 88 189 q 136 77 88 125 q 255 6 184 28 q 409 -17 327 -17 l 426 -17 q 644 58 541 -17 l 644 0 l 745 0 l 745 467 q 738 530 745 500 q 709 595 731 561 q 654 654 688 629 q 561 695 620 679 q 426 711 503 711 l 409 711 q 119 593 194 711 l 206 538 q 409 610 250 610 l 426 610 q 644 467 644 610 l 644 431 l 409 431 q 262 411 327 431 q 161 360 197 391 q 106 295 125 329 q 88 229 88 261 m 202 895 l 191 878 l 276 822 l 288 840 q 330 873 309 873 l 340 873 q 382 861 369 873 l 395 850 q 443 824 412 836 q 504 812 473 812 l 515 812 l 537 816 q 592 839 559 819 q 646 896 625 860 l 656 912 l 568 964 l 558 947 q 536 923 549 931 q 515 914 524 914 l 504 914 q 479 919 493 914 q 463 926 465 924 l 450 938 q 340 975 408 975 l 330 975 q 202 895 254 975 "},"ä":{"ha":833,"x_min":88,"x_max":745,"o":"m 426 85 l 409 85 q 312 96 356 85 q 242 125 268 108 q 203 159 217 142 q 190 189 190 176 l 190 229 q 196 247 190 236 q 218 273 202 258 q 257 300 234 288 q 320 321 281 313 q 409 330 360 330 l 644 330 l 644 205 q 634 186 644 200 q 606 156 625 173 q 562 122 587 138 q 501 96 537 106 q 426 85 465 85 m 88 229 l 88 189 q 136 77 88 125 q 255 6 184 28 q 409 -17 327 -17 l 426 -17 q 644 58 541 -17 l 644 0 l 745 0 l 745 467 q 738 530 745 500 q 709 595 731 561 q 654 654 688 629 q 561 695 620 679 q 426 711 503 711 l 409 711 q 119 593 194 711 l 206 538 q 409 610 250 610 l 426 610 q 644 467 644 610 l 644 431 l 409 431 q 262 411 327 431 q 161 360 197 391 q 106 295 125 329 q 88 229 88 261 m 337 904 q 283 927 315 927 q 231 905 254 927 q 208 850 208 884 q 231 795 208 818 q 284 772 253 772 q 337 796 315 772 q 359 850 359 819 q 348 893 359 882 q 337 904 337 904 m 629 905 q 578 927 606 927 q 526 905 548 927 q 503 850 503 883 q 526 795 503 819 q 578 772 548 772 q 629 795 607 772 q 652 850 652 817 q 640 895 652 884 q 629 905 629 905 "},"å":{"ha":833,"x_min":88,"x_max":745,"o":"m 426 85 l 409 85 q 312 96 356 85 q 242 125 268 108 q 203 159 217 142 q 190 189 190 176 l 190 229 q 196 247 190 236 q 218 273 202 258 q 257 300 234 288 q 320 321 281 313 q 409 330 360 330 l 644 330 l 644 205 q 634 186 644 200 q 606 156 625 173 q 562 122 587 138 q 501 96 537 106 q 426 85 465 85 m 88 229 l 88 189 q 136 77 88 125 q 255 6 184 28 q 409 -17 327 -17 l 426 -17 q 644 58 541 -17 l 644 0 l 745 0 l 745 467 q 738 530 745 500 q 709 595 731 561 q 654 654 688 629 q 561 695 620 679 q 426 711 503 711 l 409 711 q 119 593 194 711 l 206 538 q 409 610 250 610 l 426 610 q 644 467 644 610 l 644 431 l 409 431 q 262 411 327 431 q 161 360 197 391 q 106 295 125 329 q 88 229 88 261 m 328 831 q 424 791 367 791 q 522 831 481 791 q 562 928 562 871 q 522 1025 562 985 q 424 1065 481 1065 q 328 1025 367 1065 q 288 928 288 985 q 308 851 288 871 q 328 831 328 831 m 381 972 q 425 991 399 991 q 469 972 450 991 q 488 928 488 954 q 469 884 488 903 q 425 866 450 866 q 381 884 399 866 q 363 928 363 903 q 372 963 363 954 q 381 972 381 972 "},"æ":{"ha":833,"x_min":69,"x_max":766,"o":"m 367 317 l 367 169 q 341 112 367 138 q 273 85 316 85 q 197 109 222 85 q 171 169 171 133 l 171 222 q 198 289 171 260 q 277 317 226 317 l 367 317 m 469 418 l 469 526 q 494 583 469 556 q 563 610 519 610 q 638 586 612 610 q 664 526 664 562 l 664 418 l 469 418 m 469 169 l 469 317 l 766 317 l 766 526 q 711 657 766 602 q 563 711 656 711 q 418 651 475 711 q 273 711 361 711 q 125 657 182 711 q 69 526 69 602 l 171 526 q 198 585 171 560 q 273 610 224 610 q 341 584 316 610 q 367 526 367 558 l 367 418 l 277 418 q 126 360 182 418 q 69 222 69 302 l 69 169 q 124 38 69 92 q 273 -17 180 -17 q 417 43 360 -17 q 563 -17 474 -17 q 710 38 654 -17 q 766 169 766 92 l 664 169 q 637 110 664 134 q 563 85 610 85 q 494 110 519 85 q 469 169 469 136 "},"ç":{"ha":833,"x_min":88,"x_max":727,"o":"m 426 609 q 633 529 597 609 l 727 570 q 426 711 665 711 l 409 711 q 171 626 254 711 q 88 405 88 541 l 88 290 q 131 130 88 201 q 247 21 174 59 q 409 -17 320 -17 l 426 -17 q 614 20 536 -17 q 725 125 691 56 l 634 170 q 557 106 612 127 q 426 85 502 85 l 409 85 q 253 141 315 85 q 190 290 190 198 l 190 405 q 246 556 190 503 q 409 609 302 609 l 426 609 m 530 -192 q 509 -235 530 -220 q 454 -250 489 -250 q 351 -210 397 -250 l 285 -274 q 454 -338 359 -338 q 539 -324 500 -338 q 605 -276 578 -310 q 631 -192 631 -241 q 500 -52 631 -74 l 503 -11 l 503 3 l 401 3 l 401 -7 l 392 -136 l 446 -136 q 530 -192 530 -136 "},"è":{"ha":833,"x_min":88,"x_max":745,"o":"m 190 330 l 745 330 l 745 447 q 661 637 745 564 q 426 711 577 711 l 409 711 q 173 637 258 711 q 88 447 88 564 l 88 249 q 110 152 88 199 q 171 67 132 104 q 273 6 211 29 q 409 -17 335 -17 l 426 -17 q 624 24 547 -17 q 730 139 702 66 l 635 176 q 603 132 626 151 q 556 105 579 113 q 502 91 532 96 q 456 85 471 86 q 426 85 441 85 l 409 85 q 310 100 354 85 q 241 141 267 116 q 203 193 216 165 q 190 249 190 221 l 190 330 m 644 431 l 190 431 l 190 447 q 245 565 190 520 q 409 610 300 610 l 426 610 q 589 565 534 610 q 644 447 644 520 l 644 431 m 525 802 l 350 987 l 255 895 l 430 711 l 525 802 "},"é":{"ha":833,"x_min":88,"x_max":745,"o":"m 190 330 l 745 330 l 745 447 q 661 637 745 564 q 426 711 577 711 l 409 711 q 173 637 258 711 q 88 447 88 564 l 88 249 q 110 152 88 199 q 171 67 132 104 q 273 6 211 29 q 409 -17 335 -17 l 426 -17 q 624 24 547 -17 q 730 139 702 66 l 635 176 q 603 132 626 151 q 556 105 579 113 q 502 91 532 96 q 456 85 471 86 q 426 85 441 85 l 409 85 q 310 100 354 85 q 241 141 267 116 q 203 193 216 165 q 190 249 190 221 l 190 330 m 644 431 l 190 431 l 190 447 q 245 565 190 520 q 409 610 300 610 l 426 610 q 589 565 534 610 q 644 447 644 520 l 644 431 m 443 711 l 618 895 l 523 987 l 348 802 l 443 711 "},"ê":{"ha":833,"x_min":88,"x_max":745,"o":"m 190 330 l 745 330 l 745 447 q 661 637 745 564 q 426 711 577 711 l 409 711 q 173 637 258 711 q 88 447 88 564 l 88 249 q 110 152 88 199 q 171 67 132 104 q 273 6 211 29 q 409 -17 335 -17 l 426 -17 q 624 24 547 -17 q 730 139 702 66 l 635 176 q 603 132 626 151 q 556 105 579 113 q 502 91 532 96 q 456 85 471 86 q 426 85 441 85 l 409 85 q 310 100 354 85 q 241 141 267 116 q 203 193 216 165 q 190 249 190 221 l 190 330 m 644 431 l 190 431 l 190 447 q 245 565 190 520 q 409 610 300 610 l 426 610 q 589 565 534 610 q 644 447 644 520 l 644 431 m 492 956 l 375 956 l 237 880 l 286 790 l 433 871 l 581 790 l 630 880 l 492 956 "},"ë":{"ha":833,"x_min":88,"x_max":745,"o":"m 190 330 l 745 330 l 745 447 q 661 637 745 564 q 426 711 577 711 l 409 711 q 173 637 258 711 q 88 447 88 564 l 88 249 q 110 152 88 199 q 171 67 132 104 q 273 6 211 29 q 409 -17 335 -17 l 426 -17 q 624 24 547 -17 q 730 139 702 66 l 635 176 q 603 132 626 151 q 556 105 579 113 q 502 91 532 96 q 456 85 471 86 q 426 85 441 85 l 409 85 q 310 100 354 85 q 241 141 267 116 q 203 193 216 165 q 190 249 190 221 l 190 330 m 644 431 l 190 431 l 190 447 q 245 565 190 520 q 409 610 300 610 l 426 610 q 589 565 534 610 q 644 447 644 520 l 644 431 m 339 906 q 286 928 317 928 q 233 907 256 928 q 210 852 210 885 q 233 797 210 819 q 286 774 255 774 q 339 797 317 774 q 361 852 361 821 q 350 894 361 883 q 339 906 339 906 m 631 907 q 580 928 608 928 q 528 906 550 928 q 505 852 505 884 q 528 797 505 820 q 580 774 550 774 q 631 796 609 774 q 654 852 654 819 q 642 896 654 885 q 631 907 631 907 "},"ì":{"ha":833,"x_min":139,"x_max":694,"o":"m 200 694 l 200 593 l 367 593 l 367 102 l 139 102 l 139 0 l 694 0 l 694 102 l 469 102 l 469 694 l 200 694 m 515 801 l 340 985 l 245 894 l 420 709 l 515 801 "},"í":{"ha":833,"x_min":139,"x_max":694,"o":"m 200 694 l 200 593 l 367 593 l 367 102 l 139 102 l 139 0 l 694 0 l 694 102 l 469 102 l 469 694 l 200 694 m 433 709 l 608 894 l 513 985 l 338 801 l 433 709 "},"î":{"ha":833,"x_min":139,"x_max":694,"o":"m 200 694 l 200 593 l 367 593 l 367 102 l 139 102 l 139 0 l 694 0 l 694 102 l 469 102 l 469 694 l 200 694 m 482 954 l 366 954 l 227 878 l 276 789 l 424 870 l 572 789 l 621 878 l 482 954 "},"ï":{"ha":833,"x_min":139,"x_max":694,"o":"m 200 694 l 200 593 l 367 593 l 367 102 l 139 102 l 139 0 l 694 0 l 694 102 l 469 102 l 469 694 l 200 694 m 330 904 q 276 927 308 927 q 223 905 246 927 q 201 850 201 884 q 223 795 201 818 q 277 772 245 772 q 330 796 307 772 q 352 850 352 819 q 341 893 352 882 q 330 904 330 904 m 622 905 q 570 927 599 927 q 518 905 541 927 q 496 850 496 883 q 518 795 496 819 q 570 772 541 772 q 622 795 600 772 q 644 850 644 817 q 633 895 644 884 q 622 905 622 905 "},"ð":{"ha":833,"x_min":88,"x_max":745,"o":"m 644 303 q 590 145 644 205 q 426 85 536 85 l 409 85 q 253 147 317 85 q 190 303 190 210 l 190 323 q 247 466 190 408 q 409 525 304 525 l 426 525 q 523 507 480 525 q 592 459 566 488 q 630 394 617 429 q 644 323 644 359 l 644 303 m 409 627 q 295 610 347 627 q 204 564 242 593 q 140 496 167 534 q 101 413 114 457 q 88 323 88 370 l 88 303 q 181 76 88 168 q 409 -17 275 -17 l 426 -17 q 660 72 575 -17 q 745 303 745 161 l 745 420 q 686 617 745 517 q 528 811 627 718 l 709 867 l 680 964 l 438 890 q 255 1015 350 961 l 205 927 q 319 853 262 895 l 126 794 l 156 696 l 416 777 q 581 592 522 683 q 426 627 512 627 l 409 627 "},"ñ":{"ha":833,"x_min":88,"x_max":745,"o":"m 644 460 l 644 0 l 745 0 l 745 460 q 662 644 745 576 q 426 711 578 711 l 409 711 q 190 610 286 711 l 190 694 l 88 694 l 88 0 l 190 0 l 190 391 q 200 439 190 411 q 231 496 211 467 q 277 552 251 526 q 338 593 303 577 q 409 610 373 610 l 426 610 q 490 606 460 610 q 548 591 519 602 q 598 565 577 581 q 631 522 618 549 q 644 460 644 495 m 189 897 l 177 879 l 262 823 l 274 841 q 316 875 296 875 l 327 875 q 369 863 355 875 l 381 852 q 429 825 398 837 q 490 814 460 814 l 502 814 l 524 817 q 579 841 546 820 q 633 897 612 861 l 642 913 l 554 965 l 545 949 q 523 924 535 932 q 502 916 511 916 l 490 916 q 466 920 479 916 q 449 928 452 925 l 436 939 q 327 977 394 977 l 316 977 q 189 897 241 977 "},"ò":{"ha":833,"x_min":88,"x_max":745,"o":"m 745 381 q 666 621 745 531 q 435 711 587 711 l 396 711 q 167 620 245 711 q 88 380 88 530 l 88 326 q 107 192 88 253 q 162 83 125 130 q 259 9 199 36 q 397 -17 319 -17 l 432 -17 q 572 9 511 -17 q 670 81 633 35 q 726 190 707 128 q 745 326 745 251 l 745 381 m 435 609 q 644 381 644 609 l 644 326 q 432 85 644 85 l 397 85 q 312 99 349 85 q 253 135 275 113 q 215 190 230 158 q 195 255 201 222 q 190 326 190 288 l 190 380 q 396 609 190 609 l 435 609 m 517 801 l 342 985 l 247 894 l 422 709 l 517 801 "},"ó":{"ha":833,"x_min":88,"x_max":745,"o":"m 745 381 q 666 621 745 531 q 435 711 587 711 l 396 711 q 167 620 245 711 q 88 380 88 530 l 88 326 q 107 192 88 253 q 162 83 125 130 q 259 9 199 36 q 397 -17 319 -17 l 432 -17 q 572 9 511 -17 q 670 81 633 35 q 726 190 707 128 q 745 326 745 251 l 745 381 m 435 609 q 644 381 644 609 l 644 326 q 432 85 644 85 l 397 85 q 312 99 349 85 q 253 135 275 113 q 215 190 230 158 q 195 255 201 222 q 190 326 190 288 l 190 380 q 396 609 190 609 l 435 609 m 435 709 l 610 894 l 515 985 l 340 801 l 435 709 "},"ô":{"ha":833,"x_min":88,"x_max":745,"o":"m 745 381 q 666 621 745 531 q 435 711 587 711 l 396 711 q 167 620 245 711 q 88 380 88 530 l 88 326 q 107 192 88 253 q 162 83 125 130 q 259 9 199 36 q 397 -17 319 -17 l 432 -17 q 572 9 511 -17 q 670 81 633 35 q 726 190 707 128 q 745 326 745 251 l 745 381 m 435 609 q 644 381 644 609 l 644 326 q 432 85 644 85 l 397 85 q 312 99 349 85 q 253 135 275 113 q 215 190 230 158 q 195 255 201 222 q 190 326 190 288 l 190 380 q 396 609 190 609 l 435 609 m 484 954 l 368 954 l 229 878 l 278 789 l 426 870 l 574 789 l 623 878 l 484 954 "},"õ":{"ha":833,"x_min":88,"x_max":745,"o":"m 745 381 q 666 621 745 531 q 435 711 587 711 l 396 711 q 167 620 245 711 q 88 380 88 530 l 88 326 q 107 192 88 253 q 162 83 125 130 q 259 9 199 36 q 397 -17 319 -17 l 432 -17 q 572 9 511 -17 q 670 81 633 35 q 726 190 707 128 q 745 326 745 251 l 745 381 m 435 609 q 644 381 644 609 l 644 326 q 432 85 644 85 l 397 85 q 312 99 349 85 q 253 135 275 113 q 215 190 230 158 q 195 255 201 222 q 190 326 190 288 l 190 380 q 396 609 190 609 l 435 609 m 195 895 l 184 878 l 269 822 l 281 840 q 323 873 302 873 l 334 873 q 376 861 362 873 l 388 850 q 436 824 405 836 q 497 812 467 812 l 509 812 l 530 816 q 586 839 553 819 q 640 896 618 860 l 649 912 l 561 964 l 551 947 q 530 923 542 931 q 509 914 517 914 l 497 914 q 472 919 486 914 q 456 926 458 924 l 443 938 q 334 975 401 975 l 323 975 q 195 895 248 975 "},"ö":{"ha":833,"x_min":88,"x_max":745,"o":"m 745 381 q 666 621 745 531 q 435 711 587 711 l 396 711 q 167 620 245 711 q 88 380 88 530 l 88 326 q 107 192 88 253 q 162 83 125 130 q 259 9 199 36 q 397 -17 319 -17 l 432 -17 q 572 9 511 -17 q 670 81 633 35 q 726 190 707 128 q 745 326 745 251 l 745 381 m 435 609 q 644 381 644 609 l 644 326 q 432 85 644 85 l 397 85 q 312 99 349 85 q 253 135 275 113 q 215 190 230 158 q 195 255 201 222 q 190 326 190 288 l 190 380 q 396 609 190 609 l 435 609 m 332 904 q 278 927 310 927 q 225 905 248 927 q 203 850 203 884 q 225 795 203 818 q 279 772 248 772 q 332 796 309 772 q 354 850 354 819 q 343 893 354 882 q 332 904 332 904 m 624 905 q 572 927 601 927 q 520 905 543 927 q 498 850 498 883 q 520 795 498 819 q 572 772 543 772 q 624 795 602 772 q 646 850 646 817 q 635 895 646 884 q 624 905 624 905 "},"÷":{"ha":833,"x_min":138,"x_max":696,"o":"m 696 458 l 138 458 l 138 356 l 696 356 l 696 458 m 476 708 q 416 731 450 731 q 357 707 381 731 q 332 651 332 683 q 358 594 332 617 q 416 571 383 571 q 476 594 451 571 q 501 651 501 616 q 488 697 501 686 q 476 708 476 708 m 476 221 q 416 244 450 244 q 357 220 381 244 q 332 164 332 196 q 358 107 332 130 q 416 84 383 84 q 476 107 451 84 q 501 164 501 130 q 488 210 501 199 q 476 221 476 221 "},"ø":{"ha":833,"x_min":96,"x_max":736,"o":"m 606 513 q 627 381 627 463 l 627 319 q 614 204 627 251 q 573 132 600 157 q 513 96 547 106 q 432 85 479 85 l 397 85 q 300 103 338 85 l 606 513 m 435 609 q 536 590 496 609 l 231 180 q 208 319 208 234 l 208 380 q 221 492 208 446 q 260 562 235 537 q 319 598 286 587 q 396 609 351 609 l 435 609 m 655 751 l 597 672 q 435 711 530 711 l 396 711 q 287 695 336 711 q 196 643 238 679 q 130 540 154 607 q 106 380 106 473 l 106 319 q 164 90 106 173 l 96 -2 l 177 -63 l 239 20 q 397 -17 304 -17 l 432 -17 q 522 -8 480 -17 q 602 25 563 1 q 669 86 642 49 q 712 182 696 123 q 729 319 729 241 l 729 381 q 672 603 729 521 l 736 690 l 655 751 "},"ù":{"ha":833,"x_min":88,"x_max":745,"o":"m 190 249 l 190 694 l 88 694 l 88 249 q 105 146 88 193 q 157 62 123 100 q 251 4 192 25 q 388 -17 310 -17 l 406 -17 q 533 17 472 -17 q 644 106 594 51 l 644 0 l 745 0 l 745 694 l 644 694 l 644 323 q 624 259 644 298 q 573 180 604 219 q 496 113 541 141 q 406 85 451 85 l 388 85 q 190 249 190 85 m 509 801 l 334 985 l 239 894 l 414 709 l 509 801 "},"ú":{"ha":833,"x_min":88,"x_max":745,"o":"m 190 249 l 190 694 l 88 694 l 88 249 q 105 146 88 193 q 157 62 123 100 q 251 4 192 25 q 388 -17 310 -17 l 406 -17 q 533 17 472 -17 q 644 106 594 51 l 644 0 l 745 0 l 745 694 l 644 694 l 644 323 q 624 259 644 298 q 573 180 604 219 q 496 113 541 141 q 406 85 451 85 l 388 85 q 190 249 190 85 m 427 709 l 602 894 l 507 985 l 332 801 l 427 709 "},"û":{"ha":833,"x_min":88,"x_max":745,"o":"m 190 249 l 190 694 l 88 694 l 88 249 q 105 146 88 193 q 157 62 123 100 q 251 4 192 25 q 388 -17 310 -17 l 406 -17 q 533 17 472 -17 q 644 106 594 51 l 644 0 l 745 0 l 745 694 l 644 694 l 644 323 q 624 259 644 298 q 573 180 604 219 q 496 113 541 141 q 406 85 451 85 l 388 85 q 190 249 190 85 m 476 954 l 359 954 l 221 878 l 270 789 l 418 870 l 566 789 l 614 878 l 476 954 "},"ü":{"ha":833,"x_min":88,"x_max":745,"o":"m 190 249 l 190 694 l 88 694 l 88 249 q 105 146 88 193 q 157 62 123 100 q 251 4 192 25 q 388 -17 310 -17 l 406 -17 q 533 17 472 -17 q 644 106 594 51 l 644 0 l 745 0 l 745 694 l 644 694 l 644 323 q 624 259 644 298 q 573 180 604 219 q 496 113 541 141 q 406 85 451 85 l 388 85 q 190 249 190 85 m 324 904 q 270 927 302 927 q 217 905 240 927 q 195 850 195 884 q 217 795 195 818 q 271 772 239 772 q 323 796 301 772 q 346 850 346 819 q 335 893 346 882 q 324 904 324 904 m 615 905 q 564 927 593 927 q 512 905 534 927 q 490 850 490 883 q 512 795 490 819 q 564 772 534 772 q 616 795 593 772 q 638 850 638 817 q 627 895 638 884 q 615 905 615 905 "},"ý":{"ha":833,"x_min":68,"x_max":772,"o":"m 512 -91 l 772 694 l 665 694 l 500 196 l 205 694 l 87 694 l 457 68 l 416 -58 q 292 -149 385 -149 l 271 -149 q 208 -133 241 -149 q 161 -100 174 -117 l 151 -85 l 68 -145 l 79 -159 q 166 -226 109 -201 q 271 -250 224 -250 l 292 -250 q 429 -209 372 -250 q 512 -91 487 -167 m 441 709 l 616 894 l 521 985 l 346 801 l 441 709 "},"þ":{"ha":833,"x_min":88,"x_max":745,"o":"m 745 361 q 722 519 745 451 q 656 629 699 587 q 557 691 613 670 q 432 711 501 711 l 404 711 q 190 638 277 711 l 190 949 l 88 949 l 88 -261 l 190 -261 l 190 52 q 408 -17 278 -17 l 428 -17 q 549 2 494 -17 q 649 60 604 20 q 720 169 694 99 q 745 334 745 239 l 745 361 m 432 610 q 588 552 533 610 q 644 361 644 494 l 644 334 q 588 143 644 201 q 428 85 532 85 l 408 85 q 251 133 311 85 q 190 260 190 182 l 190 424 q 249 554 190 499 q 404 610 307 610 l 432 610 "},"ÿ":{"ha":833,"x_min":68,"x_max":772,"o":"m 512 -91 l 772 694 l 665 694 l 500 196 l 205 694 l 87 694 l 457 68 l 416 -58 q 292 -149 385 -149 l 271 -149 q 208 -133 241 -149 q 161 -100 174 -117 l 151 -85 l 68 -145 l 79 -159 q 166 -226 109 -201 q 271 -250 224 -250 l 292 -250 q 429 -209 372 -250 q 512 -91 487 -167 m 337 904 q 283 927 315 927 q 231 905 254 927 q 208 850 208 884 q 231 795 208 818 q 284 772 253 772 q 337 796 315 772 q 359 850 359 819 q 348 893 359 882 q 337 904 337 904 m 629 905 q 578 927 606 927 q 526 905 548 927 q 503 850 503 883 q 526 795 503 819 q 578 772 548 772 q 629 795 607 772 q 652 850 652 817 q 640 895 652 884 q 629 905 629 905 "},"Ā":{"ha":833,"x_min":67,"x_max":768,"o":"m 262 271 l 418 754 l 574 271 l 262 271 m 229 169 l 606 169 l 661 0 l 768 0 l 456 966 l 379 966 l 67 0 l 174 0 l 229 169 m 264 1021 l 571 1021 l 571 1123 l 264 1123 l 264 1021 "},"ā":{"ha":833,"x_min":88,"x_max":745,"o":"m 426 85 l 409 85 q 312 96 356 85 q 242 125 268 108 q 203 159 217 142 q 190 189 190 176 l 190 229 q 196 247 190 236 q 218 273 202 258 q 257 300 234 288 q 320 321 281 313 q 409 330 360 330 l 644 330 l 644 205 q 634 186 644 200 q 606 156 625 173 q 562 122 587 138 q 501 96 537 106 q 426 85 465 85 m 88 229 l 88 189 q 136 77 88 125 q 255 6 184 28 q 409 -17 327 -17 l 426 -17 q 644 58 541 -17 l 644 0 l 745 0 l 745 467 q 738 530 745 500 q 709 595 731 561 q 654 654 688 629 q 561 695 620 679 q 426 711 503 711 l 409 711 q 119 593 194 711 l 206 538 q 409 610 250 610 l 426 610 q 644 467 644 610 l 644 431 l 409 431 q 262 411 327 431 q 161 360 197 391 q 106 295 125 329 q 88 229 88 261 m 277 770 l 584 770 l 584 871 l 277 871 l 277 770 "},"Ă":{"ha":833,"x_min":67,"x_max":768,"o":"m 262 271 l 418 754 l 574 271 l 262 271 m 229 169 l 606 169 l 661 0 l 768 0 l 456 966 l 379 966 l 67 0 l 174 0 l 229 169 m 416 998 q 526 1024 475 998 q 614 1093 576 1049 l 536 1158 q 416 1100 487 1100 q 299 1158 347 1100 l 222 1093 q 309 1023 258 1048 q 416 998 359 998 "},"ă":{"ha":833,"x_min":88,"x_max":745,"o":"m 426 85 l 409 85 q 312 96 356 85 q 242 125 268 108 q 203 159 217 142 q 190 189 190 176 l 190 229 q 196 247 190 236 q 218 273 202 258 q 257 300 234 288 q 320 321 281 313 q 409 330 360 330 l 644 330 l 644 205 q 634 186 644 200 q 606 156 625 173 q 562 122 587 138 q 501 96 537 106 q 426 85 465 85 m 88 229 l 88 189 q 136 77 88 125 q 255 6 184 28 q 409 -17 327 -17 l 426 -17 q 644 58 541 -17 l 644 0 l 745 0 l 745 467 q 738 530 745 500 q 709 595 731 561 q 654 654 688 629 q 561 695 620 679 q 426 711 503 711 l 409 711 q 119 593 194 711 l 206 538 q 409 610 250 610 l 426 610 q 644 467 644 610 l 644 431 l 409 431 q 262 411 327 431 q 161 360 197 391 q 106 295 125 329 q 88 229 88 261 m 429 793 q 538 818 488 793 q 627 888 589 844 l 549 953 q 429 895 500 895 q 312 952 360 895 l 235 887 q 322 818 271 843 q 429 793 372 793 "},"Ą":{"ha":833,"x_min":67,"x_max":785,"o":"m 262 271 l 418 754 l 574 271 l 262 271 m 229 169 l 606 169 l 661 0 l 768 0 l 456 966 l 379 966 l 67 0 l 174 0 l 229 169 m 766 -248 l 785 -231 l 717 -155 l 699 -171 q 675 -180 688 -180 q 650 -169 661 -180 q 640 -143 640 -158 q 650 -117 640 -127 l 749 -18 l 749 52 l 648 52 l 648 24 l 576 -47 q 538 -143 538 -87 q 578 -241 538 -200 q 675 -281 618 -281 q 766 -248 726 -281 "},"ą":{"ha":833,"x_min":88,"x_max":781,"o":"m 426 85 l 409 85 q 312 96 356 85 q 242 125 268 108 q 203 159 217 142 q 190 189 190 176 l 190 229 q 196 247 190 236 q 218 273 202 258 q 257 300 234 288 q 320 321 281 313 q 409 330 360 330 l 644 330 l 644 205 q 634 186 644 200 q 606 156 625 173 q 562 122 587 138 q 501 96 537 106 q 426 85 465 85 m 88 229 l 88 189 q 136 77 88 125 q 255 6 184 28 q 409 -17 327 -17 l 426 -17 q 644 58 541 -17 l 644 0 l 745 0 l 745 467 q 738 530 745 500 q 709 595 731 561 q 654 654 688 629 q 561 695 620 679 q 426 711 503 711 l 409 711 q 119 593 194 711 l 206 538 q 409 610 250 610 l 426 610 q 644 467 644 610 l 644 431 l 409 431 q 262 411 327 431 q 161 360 197 391 q 106 295 125 329 q 88 229 88 261 m 762 -260 l 781 -243 l 713 -168 l 695 -183 q 671 -192 684 -192 q 646 -181 656 -192 q 635 -155 635 -170 q 646 -130 635 -140 l 745 -30 l 745 40 l 644 40 l 644 12 l 572 -59 q 534 -155 534 -100 q 574 -253 534 -212 q 671 -294 614 -294 q 762 -260 722 -294 "},"Ć":{"ha":833,"x_min":88,"x_max":747,"o":"m 444 -17 q 626 39 553 -17 q 736 197 699 94 l 640 231 q 569 122 615 160 q 444 85 523 85 l 421 85 q 190 472 190 85 l 190 517 q 206 684 190 615 q 254 792 222 753 q 326 848 285 831 q 420 865 366 865 l 444 865 q 581 827 534 865 q 650 718 628 789 l 747 747 q 444 966 680 966 l 420 966 q 176 858 263 966 q 88 517 88 750 l 88 472 q 100 313 88 385 q 131 192 111 241 q 177 104 150 142 q 234 43 205 66 q 297 7 263 21 q 361 -12 332 -7 q 421 -17 390 -17 l 444 -17 m 454 939 l 629 1124 l 534 1215 l 359 1031 l 454 939 "},"ć":{"ha":833,"x_min":88,"x_max":727,"o":"m 426 609 q 633 529 597 609 l 727 570 q 426 711 665 711 l 409 711 q 171 626 254 711 q 88 405 88 541 l 88 290 q 131 130 88 201 q 247 21 174 59 q 409 -17 320 -17 l 426 -17 q 614 20 536 -17 q 725 125 691 56 l 634 170 q 557 106 612 127 q 426 85 502 85 l 409 85 q 253 141 315 85 q 190 290 190 198 l 190 405 q 246 556 190 503 q 409 609 302 609 l 426 609 m 461 709 l 636 894 l 541 985 l 366 801 l 461 709 "},"Ĉ":{"ha":833,"x_min":88,"x_max":747,"o":"m 444 -17 q 626 39 553 -17 q 736 197 699 94 l 640 231 q 569 122 615 160 q 444 85 523 85 l 421 85 q 190 472 190 85 l 190 517 q 206 684 190 615 q 254 792 222 753 q 326 848 285 831 q 420 865 366 865 l 444 865 q 581 827 534 865 q 650 718 628 789 l 747 747 q 444 966 680 966 l 420 966 q 176 858 263 966 q 88 517 88 750 l 88 472 q 100 313 88 385 q 131 192 111 241 q 177 104 150 142 q 234 43 205 66 q 297 7 263 21 q 361 -12 332 -7 q 421 -17 390 -17 l 444 -17 m 503 1156 l 386 1156 l 248 1080 l 296 990 l 444 1072 l 592 990 l 641 1080 l 503 1156 "},"ĉ":{"ha":833,"x_min":88,"x_max":727,"o":"m 426 609 q 633 529 597 609 l 727 570 q 426 711 665 711 l 409 711 q 171 626 254 711 q 88 405 88 541 l 88 290 q 131 130 88 201 q 247 21 174 59 q 409 -17 320 -17 l 426 -17 q 614 20 536 -17 q 725 125 691 56 l 634 170 q 557 106 612 127 q 426 85 502 85 l 409 85 q 253 141 315 85 q 190 290 190 198 l 190 405 q 246 556 190 503 q 409 609 302 609 l 426 609 m 510 954 l 393 954 l 255 878 l 304 789 l 452 870 l 600 789 l 648 878 l 510 954 "},"Ċ":{"ha":833,"x_min":88,"x_max":747,"o":"m 444 -17 q 626 39 553 -17 q 736 197 699 94 l 640 231 q 569 122 615 160 q 444 85 523 85 l 421 85 q 190 472 190 85 l 190 517 q 206 684 190 615 q 254 792 222 753 q 326 848 285 831 q 420 865 366 865 l 444 865 q 581 827 534 865 q 650 718 628 789 l 747 747 q 444 966 680 966 l 420 966 q 176 858 263 966 q 88 517 88 750 l 88 472 q 100 313 88 385 q 131 192 111 241 q 177 104 150 142 q 234 43 205 66 q 297 7 263 21 q 361 -12 332 -7 q 421 -17 390 -17 l 444 -17 m 378 1027 q 440 1002 404 1002 q 502 1027 476 1002 q 528 1089 528 1053 q 502 1151 528 1125 q 440 1177 476 1177 q 378 1151 404 1177 q 353 1089 353 1126 q 366 1040 353 1053 q 378 1027 378 1027 "},"ċ":{"ha":833,"x_min":88,"x_max":727,"o":"m 426 609 q 633 529 597 609 l 727 570 q 426 711 665 711 l 409 711 q 171 626 254 711 q 88 405 88 541 l 88 290 q 131 130 88 201 q 247 21 174 59 q 409 -17 320 -17 l 426 -17 q 614 20 536 -17 q 725 125 691 56 l 634 170 q 557 106 612 127 q 426 85 502 85 l 409 85 q 253 141 315 85 q 190 290 190 198 l 190 405 q 246 556 190 503 q 409 609 302 609 l 426 609 m 386 818 q 448 792 411 792 q 510 818 484 792 q 536 880 536 844 q 510 941 536 916 q 448 967 484 967 q 386 942 411 967 q 361 880 361 916 q 373 830 361 843 q 386 818 386 818 "},"Č":{"ha":833,"x_min":88,"x_max":747,"o":"m 444 -17 q 626 39 553 -17 q 736 197 699 94 l 640 231 q 569 122 615 160 q 444 85 523 85 l 421 85 q 190 472 190 85 l 190 517 q 206 684 190 615 q 254 792 222 753 q 326 848 285 831 q 420 865 366 865 l 444 865 q 581 827 534 865 q 650 718 628 789 l 747 747 q 444 966 680 966 l 420 966 q 176 858 263 966 q 88 517 88 750 l 88 472 q 100 313 88 385 q 131 192 111 241 q 177 104 150 142 q 234 43 205 66 q 297 7 263 21 q 361 -12 332 -7 q 421 -17 390 -17 l 444 -17 m 444 1093 l 296 1175 l 248 1085 l 386 1009 l 503 1009 l 641 1085 l 592 1175 l 444 1093 "},"č":{"ha":833,"x_min":88,"x_max":727,"o":"m 426 609 q 633 529 597 609 l 727 570 q 426 711 665 711 l 409 711 q 171 626 254 711 q 88 405 88 541 l 88 290 q 131 130 88 201 q 247 21 174 59 q 409 -17 320 -17 l 426 -17 q 614 20 536 -17 q 725 125 691 56 l 634 170 q 557 106 612 127 q 426 85 502 85 l 409 85 q 253 141 315 85 q 190 290 190 198 l 190 405 q 246 556 190 503 q 409 609 302 609 l 426 609 m 452 892 l 304 973 l 255 884 l 393 808 l 510 808 l 648 884 l 600 973 l 452 892 "},"Ď":{"ha":833,"x_min":88,"x_max":745,"o":"m 745 526 q 736 659 745 599 q 704 774 727 718 q 643 867 680 829 q 546 927 606 905 q 407 949 486 949 l 88 949 l 88 0 l 407 0 q 469 5 439 0 q 533 22 498 9 q 597 56 568 35 q 655 113 627 77 q 702 194 683 148 q 733 308 722 241 q 745 455 745 374 l 745 526 m 407 848 q 474 842 444 848 q 531 823 503 836 q 578 786 559 810 q 613 727 598 762 q 636 641 629 692 q 644 526 644 591 l 644 455 q 407 102 644 102 l 190 102 l 190 848 l 407 848 m 418 1093 l 270 1174 l 221 1084 l 359 1008 l 476 1008 l 614 1084 l 566 1174 l 418 1093 "},"ď":{"ha":833,"x_min":26,"x_max":810,"o":"m 117 405 q 167 556 117 503 q 312 610 217 610 l 327 610 q 472 557 423 610 q 521 405 521 504 l 521 290 q 472 137 521 190 q 327 85 423 85 l 312 85 q 173 141 229 85 q 117 290 117 198 l 117 405 m 312 711 q 100 626 174 711 q 26 405 26 541 l 26 290 q 65 130 26 201 q 168 21 103 59 q 312 -17 233 -17 l 327 -17 q 521 50 448 -17 l 521 0 l 612 0 l 612 949 l 521 949 l 521 644 q 327 711 448 711 l 312 711 "},"Đ":{"ha":833,"x_min":54,"x_max":744,"o":"m 744 517 q 397 949 744 949 l 149 949 l 149 564 l 54 564 l 54 462 l 149 462 l 149 0 l 397 0 q 452 4 426 0 q 510 17 479 7 q 568 43 541 26 q 623 84 595 60 q 671 145 650 109 q 709 228 692 182 q 735 337 726 274 q 744 475 744 400 l 744 517 m 397 848 q 498 833 456 848 q 574 782 541 818 q 625 680 608 745 q 642 517 642 614 l 642 475 q 578 190 642 277 q 397 102 515 102 l 251 102 l 251 462 l 389 462 l 389 564 l 251 564 l 251 848 l 397 848 "},"đ":{"ha":833,"x_min":88,"x_max":787,"o":"m 190 405 q 205 506 190 465 q 249 569 220 547 q 311 601 277 591 q 389 610 345 610 l 406 610 q 483 601 450 610 q 545 569 517 591 q 588 506 573 547 q 603 405 603 465 l 603 290 q 593 205 603 241 q 566 146 583 169 q 523 110 549 124 q 469 90 497 96 q 406 85 441 85 l 389 85 q 243 141 296 85 q 190 290 190 197 l 190 405 m 389 711 q 164 630 241 711 q 88 405 88 548 l 88 290 q 172 68 88 153 q 389 -17 256 -17 l 406 -17 q 603 41 528 -17 l 603 0 l 705 0 l 705 783 l 787 783 l 787 885 l 705 885 l 705 949 l 603 949 l 603 885 l 385 885 l 385 783 l 603 783 l 603 654 q 406 711 528 711 l 389 711 "},"Ē":{"ha":833,"x_min":88,"x_max":745,"o":"m 190 483 l 653 483 l 653 585 l 190 585 l 190 848 l 745 848 l 745 949 l 88 949 l 88 0 l 745 0 l 745 102 l 190 102 l 190 483 m 263 1019 l 570 1019 l 570 1121 l 263 1121 l 263 1019 "},"ē":{"ha":833,"x_min":88,"x_max":745,"o":"m 190 330 l 745 330 l 745 447 q 661 637 745 564 q 426 711 577 711 l 409 711 q 173 637 258 711 q 88 447 88 564 l 88 249 q 110 152 88 199 q 171 67 132 104 q 273 6 211 29 q 409 -17 335 -17 l 426 -17 q 624 24 547 -17 q 730 139 702 66 l 635 176 q 603 132 626 151 q 556 105 579 113 q 502 91 532 96 q 456 85 471 86 q 426 85 441 85 l 409 85 q 310 100 354 85 q 241 141 267 116 q 203 193 216 165 q 190 249 190 221 l 190 330 m 644 431 l 190 431 l 190 447 q 245 565 190 520 q 409 610 300 610 l 426 610 q 589 565 534 610 q 644 447 644 520 l 644 431 m 279 771 l 586 771 l 586 873 l 279 873 l 279 771 "},"Ĕ":{"ha":833,"x_min":88,"x_max":745,"o":"m 190 483 l 653 483 l 653 585 l 190 585 l 190 848 l 745 848 l 745 949 l 88 949 l 88 0 l 745 0 l 745 102 l 190 102 l 190 483 m 416 995 q 525 1020 474 995 q 613 1090 576 1046 l 536 1155 q 416 1097 486 1097 q 298 1154 347 1097 l 221 1089 q 308 1020 258 1045 q 416 995 359 995 "},"ĕ":{"ha":833,"x_min":88,"x_max":745,"o":"m 190 330 l 745 330 l 745 447 q 661 637 745 564 q 426 711 577 711 l 409 711 q 173 637 258 711 q 88 447 88 564 l 88 249 q 110 152 88 199 q 171 67 132 104 q 273 6 211 29 q 409 -17 335 -17 l 426 -17 q 624 24 547 -17 q 730 139 702 66 l 635 176 q 603 132 626 151 q 556 105 579 113 q 502 91 532 96 q 456 85 471 86 q 426 85 441 85 l 409 85 q 310 100 354 85 q 241 141 267 116 q 203 193 216 165 q 190 249 190 221 l 190 330 m 644 431 l 190 431 l 190 447 q 245 565 190 520 q 409 610 300 610 l 426 610 q 589 565 534 610 q 644 447 644 520 l 644 431 m 431 794 q 541 820 490 794 q 629 889 591 845 l 551 954 q 431 896 502 896 q 314 954 362 896 l 237 888 q 324 819 273 844 q 431 794 374 794 "},"Ė":{"ha":833,"x_min":88,"x_max":745,"o":"m 190 483 l 653 483 l 653 585 l 190 585 l 190 848 l 745 848 l 745 949 l 88 949 l 88 0 l 745 0 l 745 102 l 190 102 l 190 483 m 352 1026 q 414 1000 377 1000 q 476 1026 450 1000 q 502 1088 502 1052 q 476 1149 502 1124 q 414 1175 450 1175 q 352 1150 377 1175 q 327 1088 327 1124 q 339 1038 327 1051 q 352 1026 352 1026 "},"ė":{"ha":833,"x_min":88,"x_max":745,"o":"m 190 330 l 745 330 l 745 447 q 661 637 745 564 q 426 711 577 711 l 409 711 q 173 637 258 711 q 88 447 88 564 l 88 249 q 110 152 88 199 q 171 67 132 104 q 273 6 211 29 q 409 -17 335 -17 l 426 -17 q 624 24 547 -17 q 730 139 702 66 l 635 176 q 603 132 626 151 q 556 105 579 113 q 502 91 532 96 q 456 85 471 86 q 426 85 441 85 l 409 85 q 310 100 354 85 q 241 141 267 116 q 203 193 216 165 q 190 249 190 221 l 190 330 m 644 431 l 190 431 l 190 447 q 245 565 190 520 q 409 610 300 610 l 426 610 q 589 565 534 610 q 644 447 644 520 l 644 431 m 368 819 q 429 793 393 793 q 491 819 465 793 q 517 881 517 845 q 491 943 517 917 q 429 968 465 968 q 368 943 393 968 q 342 881 342 918 q 355 832 342 844 q 368 819 368 819 "},"Ę":{"ha":833,"x_min":88,"x_max":745,"o":"m 190 483 l 653 483 l 653 585 l 190 585 l 190 848 l 745 848 l 745 949 l 88 949 l 88 0 l 745 0 l 745 102 l 190 102 l 190 483 m 523 -248 l 542 -231 l 474 -155 l 456 -170 q 433 -179 446 -179 q 407 -168 418 -179 q 397 -142 397 -157 q 407 -117 397 -127 l 507 -17 l 507 53 l 405 53 l 405 25 l 334 -46 q 295 -142 295 -87 q 335 -240 295 -199 q 433 -281 376 -281 q 523 -248 483 -281 "},"ę":{"ha":833,"x_min":88,"x_max":745,"o":"m 190 330 l 745 330 l 745 447 q 661 637 745 564 q 426 711 577 711 l 409 711 q 173 637 258 711 q 88 447 88 564 l 88 249 q 110 152 88 199 q 171 67 132 104 q 273 6 211 29 q 409 -17 335 -17 l 426 -17 q 624 24 547 -17 q 730 139 702 66 l 635 176 q 603 132 626 151 q 556 105 579 113 q 502 91 532 96 q 456 85 471 86 q 426 85 441 85 l 409 85 q 310 100 354 85 q 241 141 267 116 q 203 193 216 165 q 190 249 190 221 l 190 330 m 644 431 l 190 431 l 190 447 q 245 565 190 520 q 409 610 300 610 l 426 610 q 589 565 534 610 q 644 447 644 520 l 644 431 m 498 -259 l 517 -242 l 450 -166 l 432 -182 q 408 -191 421 -191 q 383 -180 393 -191 q 372 -154 372 -169 q 382 -128 372 -138 l 482 -28 l 482 41 l 380 41 l 380 14 l 309 -58 q 271 -154 271 -98 q 311 -252 271 -211 q 408 -292 351 -292 q 498 -259 458 -292 "},"Ě":{"ha":833,"x_min":88,"x_max":745,"o":"m 190 483 l 653 483 l 653 585 l 190 585 l 190 848 l 745 848 l 745 949 l 88 949 l 88 0 l 745 0 l 745 102 l 190 102 l 190 483 m 418 1094 l 270 1175 l 221 1086 l 359 1010 l 476 1010 l 614 1086 l 566 1175 l 418 1094 "},"ě":{"ha":833,"x_min":88,"x_max":745,"o":"m 190 330 l 745 330 l 745 447 q 661 637 745 564 q 426 711 577 711 l 409 711 q 173 637 258 711 q 88 447 88 564 l 88 249 q 110 152 88 199 q 171 67 132 104 q 273 6 211 29 q 409 -17 335 -17 l 426 -17 q 624 24 547 -17 q 730 139 702 66 l 635 176 q 603 132 626 151 q 556 105 579 113 q 502 91 532 96 q 456 85 471 86 q 426 85 441 85 l 409 85 q 310 100 354 85 q 241 141 267 116 q 203 193 216 165 q 190 249 190 221 l 190 330 m 644 431 l 190 431 l 190 447 q 245 565 190 520 q 409 610 300 610 l 426 610 q 589 565 534 610 q 644 447 644 520 l 644 431 m 433 893 l 286 975 l 237 885 l 375 809 l 492 809 l 630 885 l 581 975 l 433 893 "},"Ĝ":{"ha":833,"x_min":88,"x_max":747,"o":"m 745 165 l 745 469 l 460 469 l 460 368 l 644 368 l 644 185 q 571 115 624 146 q 444 85 519 85 l 426 85 q 329 107 371 85 q 261 166 287 130 q 219 254 235 202 q 196 358 202 306 q 190 472 190 411 l 190 517 q 207 682 190 613 q 255 789 223 750 q 329 847 287 829 q 425 865 370 865 l 444 865 q 581 827 534 865 q 650 718 628 789 l 747 747 q 444 966 680 966 l 425 966 q 338 958 379 966 q 249 920 296 949 q 168 844 201 891 q 111 713 134 797 q 88 517 88 629 l 88 472 q 100 315 88 387 q 132 195 112 244 q 179 107 151 145 q 236 45 207 68 q 300 8 266 22 q 365 -12 334 -7 q 426 -17 395 -17 l 444 -17 q 630 31 548 -17 q 745 165 712 79 m 510 1156 l 393 1156 l 255 1080 l 304 991 l 452 1072 l 600 991 l 648 1080 l 510 1156 "},"ĝ":{"ha":833,"x_min":88,"x_max":763,"o":"m 190 -73 l 190 -59 q 200 -43 190 -53 q 229 -24 210 -34 q 275 -5 249 -14 q 336 10 300 4 q 409 16 372 16 l 426 16 q 510 8 471 16 q 573 -9 549 1 q 613 -31 596 -19 q 637 -50 630 -42 q 644 -60 644 -58 l 644 -73 q 613 -112 644 -92 q 531 -145 583 -132 q 426 -159 479 -159 l 409 -159 q 315 -149 359 -159 q 245 -126 272 -140 q 204 -98 219 -112 q 190 -73 190 -83 m 715 579 q 763 600 739 600 l 763 701 q 642 650 694 701 q 426 711 547 711 l 409 711 q 328 704 370 711 q 243 678 286 696 q 166 635 200 661 q 110 572 132 610 q 88 488 88 534 l 88 456 q 160 312 88 379 q 100 191 100 258 l 100 146 q 112 96 100 126 q 147 43 123 65 q 88 -59 88 -1 l 88 -73 q 180 -207 88 -152 q 409 -261 272 -261 l 426 -261 q 506 -255 465 -261 q 591 -235 547 -250 q 668 -200 634 -221 q 724 -146 702 -180 q 745 -73 745 -113 l 745 -59 q 655 63 745 8 q 426 117 564 117 l 409 117 q 252 94 326 117 q 202 146 202 118 l 202 191 q 213 220 202 203 q 250 251 224 237 q 409 214 328 214 l 426 214 q 579 248 505 214 q 700 338 654 281 q 745 456 745 395 l 745 488 q 715 579 745 534 m 644 488 l 644 456 q 576 363 644 410 q 426 316 508 316 l 409 316 q 258 363 327 316 q 190 456 190 410 l 190 488 q 224 549 190 520 q 309 594 258 578 q 409 610 359 610 l 426 610 q 521 596 477 610 q 590 564 564 583 q 630 524 616 544 q 644 488 644 504 m 452 962 l 335 962 l 197 886 l 245 796 l 393 878 l 541 796 l 590 886 l 452 962 "},"Ğ":{"ha":833,"x_min":88,"x_max":747,"o":"m 745 165 l 745 469 l 460 469 l 460 368 l 644 368 l 644 185 q 571 115 624 146 q 444 85 519 85 l 426 85 q 329 107 371 85 q 261 166 287 130 q 219 254 235 202 q 196 358 202 306 q 190 472 190 411 l 190 517 q 207 682 190 613 q 255 789 223 750 q 329 847 287 829 q 425 865 370 865 l 444 865 q 581 827 534 865 q 650 718 628 789 l 747 747 q 444 966 680 966 l 425 966 q 338 958 379 966 q 249 920 296 949 q 168 844 201 891 q 111 713 134 797 q 88 517 88 629 l 88 472 q 100 315 88 387 q 132 195 112 244 q 179 107 151 145 q 236 45 207 68 q 300 8 266 22 q 365 -12 334 -7 q 426 -17 395 -17 l 444 -17 q 630 31 548 -17 q 745 165 712 79 m 450 994 q 559 1020 508 994 q 647 1089 610 1045 l 570 1154 q 450 1096 520 1096 q 332 1154 380 1096 l 255 1088 q 342 1019 292 1044 q 450 994 393 994 "},"ğ":{"ha":833,"x_min":88,"x_max":763,"o":"m 190 -73 l 190 -59 q 200 -43 190 -53 q 229 -24 210 -34 q 275 -5 249 -14 q 336 10 300 4 q 409 16 372 16 l 426 16 q 510 8 471 16 q 573 -9 549 1 q 613 -31 596 -19 q 637 -50 630 -42 q 644 -60 644 -58 l 644 -73 q 613 -112 644 -92 q 531 -145 583 -132 q 426 -159 479 -159 l 409 -159 q 315 -149 359 -159 q 245 -126 272 -140 q 204 -98 219 -112 q 190 -73 190 -83 m 715 579 q 763 600 739 600 l 763 701 q 642 650 694 701 q 426 711 547 711 l 409 711 q 328 704 370 711 q 243 678 286 696 q 166 635 200 661 q 110 572 132 610 q 88 488 88 534 l 88 456 q 160 312 88 379 q 100 191 100 258 l 100 146 q 112 96 100 126 q 147 43 123 65 q 88 -59 88 -1 l 88 -73 q 180 -207 88 -152 q 409 -261 272 -261 l 426 -261 q 506 -255 465 -261 q 591 -235 547 -250 q 668 -200 634 -221 q 724 -146 702 -180 q 745 -73 745 -113 l 745 -59 q 655 63 745 8 q 426 117 564 117 l 409 117 q 252 94 326 117 q 202 146 202 118 l 202 191 q 213 220 202 203 q 250 251 224 237 q 409 214 328 214 l 426 214 q 579 248 505 214 q 700 338 654 281 q 745 456 745 395 l 745 488 q 715 579 745 534 m 644 488 l 644 456 q 576 363 644 410 q 426 316 508 316 l 409 316 q 258 363 327 316 q 190 456 190 410 l 190 488 q 224 549 190 520 q 309 594 258 578 q 409 610 359 610 l 426 610 q 521 596 477 610 q 590 564 564 583 q 630 524 616 544 q 644 488 644 504 m 391 800 q 500 826 450 800 q 589 895 551 851 l 511 960 q 391 902 462 902 q 274 960 322 902 l 197 895 q 284 825 233 850 q 391 800 334 800 "},"Ġ":{"ha":833,"x_min":88,"x_max":747,"o":"m 745 165 l 745 469 l 460 469 l 460 368 l 644 368 l 644 185 q 571 115 624 146 q 444 85 519 85 l 426 85 q 329 107 371 85 q 261 166 287 130 q 219 254 235 202 q 196 358 202 306 q 190 472 190 411 l 190 517 q 207 682 190 613 q 255 789 223 750 q 329 847 287 829 q 425 865 370 865 l 444 865 q 581 827 534 865 q 650 718 628 789 l 747 747 q 444 966 680 966 l 425 966 q 338 958 379 966 q 249 920 296 949 q 168 844 201 891 q 111 713 134 797 q 88 517 88 629 l 88 472 q 100 315 88 387 q 132 195 112 244 q 179 107 151 145 q 236 45 207 68 q 300 8 266 22 q 365 -12 334 -7 q 426 -17 395 -17 l 444 -17 q 630 31 548 -17 q 745 165 712 79 m 386 1026 q 448 1001 411 1001 q 510 1027 484 1001 q 536 1088 536 1053 q 510 1150 536 1124 q 448 1176 484 1176 q 386 1151 411 1176 q 361 1088 361 1125 q 373 1039 361 1052 q 386 1026 386 1026 "},"ġ":{"ha":833,"x_min":88,"x_max":763,"o":"m 190 -73 l 190 -59 q 200 -43 190 -53 q 229 -24 210 -34 q 275 -5 249 -14 q 336 10 300 4 q 409 16 372 16 l 426 16 q 510 8 471 16 q 573 -9 549 1 q 613 -31 596 -19 q 637 -50 630 -42 q 644 -60 644 -58 l 644 -73 q 613 -112 644 -92 q 531 -145 583 -132 q 426 -159 479 -159 l 409 -159 q 315 -149 359 -159 q 245 -126 272 -140 q 204 -98 219 -112 q 190 -73 190 -83 m 715 579 q 763 600 739 600 l 763 701 q 642 650 694 701 q 426 711 547 711 l 409 711 q 328 704 370 711 q 243 678 286 696 q 166 635 200 661 q 110 572 132 610 q 88 488 88 534 l 88 456 q 160 312 88 379 q 100 191 100 258 l 100 146 q 112 96 100 126 q 147 43 123 65 q 88 -59 88 -1 l 88 -73 q 180 -207 88 -152 q 409 -261 272 -261 l 426 -261 q 506 -255 465 -261 q 591 -235 547 -250 q 668 -200 634 -221 q 724 -146 702 -180 q 745 -73 745 -113 l 745 -59 q 655 63 745 8 q 426 117 564 117 l 409 117 q 252 94 326 117 q 202 146 202 118 l 202 191 q 213 220 202 203 q 250 251 224 237 q 409 214 328 214 l 426 214 q 579 248 505 214 q 700 338 654 281 q 745 456 745 395 l 745 488 q 715 579 745 534 m 644 488 l 644 456 q 576 363 644 410 q 426 316 508 316 l 409 316 q 258 363 327 316 q 190 456 190 410 l 190 488 q 224 549 190 520 q 309 594 258 578 q 409 610 359 610 l 426 610 q 521 596 477 610 q 590 564 564 583 q 630 524 616 544 q 644 488 644 504 m 328 825 q 389 800 353 800 q 451 825 425 800 q 477 887 477 851 q 451 949 477 923 q 389 975 425 975 q 328 949 353 975 q 302 887 302 924 q 315 838 302 850 q 328 825 328 825 "},"Ģ":{"ha":833,"x_min":88,"x_max":747,"o":"m 745 165 l 745 469 l 460 469 l 460 368 l 644 368 l 644 185 q 571 115 624 146 q 444 85 519 85 l 426 85 q 329 107 371 85 q 261 166 287 130 q 219 254 235 202 q 196 358 202 306 q 190 472 190 411 l 190 517 q 207 682 190 613 q 255 789 223 750 q 329 847 287 829 q 425 865 370 865 l 444 865 q 581 827 534 865 q 650 718 628 789 l 747 747 q 444 966 680 966 l 425 966 q 338 958 379 966 q 249 920 296 949 q 168 844 201 891 q 111 713 134 797 q 88 517 88 629 l 88 472 q 100 315 88 387 q 132 195 112 244 q 179 107 151 145 q 236 45 207 68 q 300 8 266 22 q 365 -12 334 -7 q 426 -17 395 -17 l 444 -17 q 630 31 548 -17 q 745 165 712 79 "},"ģ":{"ha":833,"x_min":88,"x_max":763,"o":"m 190 -73 l 190 -59 q 200 -43 190 -53 q 229 -24 210 -34 q 275 -5 249 -14 q 336 10 300 4 q 409 16 372 16 l 426 16 q 510 8 471 16 q 573 -9 549 1 q 613 -31 596 -19 q 637 -50 630 -42 q 644 -60 644 -58 l 644 -73 q 613 -112 644 -92 q 531 -145 583 -132 q 426 -159 479 -159 l 409 -159 q 315 -149 359 -159 q 245 -126 272 -140 q 204 -98 219 -112 q 190 -73 190 -83 m 715 579 q 763 600 739 600 l 763 701 q 642 650 694 701 q 426 711 547 711 l 409 711 q 328 704 370 711 q 243 678 286 696 q 166 635 200 661 q 110 572 132 610 q 88 488 88 534 l 88 456 q 160 312 88 379 q 100 191 100 258 l 100 146 q 112 96 100 126 q 147 43 123 65 q 88 -59 88 -1 l 88 -73 q 180 -207 88 -152 q 409 -261 272 -261 l 426 -261 q 506 -255 465 -261 q 591 -235 547 -250 q 668 -200 634 -221 q 724 -146 702 -180 q 745 -73 745 -113 l 745 -59 q 655 63 745 8 q 426 117 564 117 l 409 117 q 252 94 326 117 q 202 146 202 118 l 202 191 q 213 220 202 203 q 250 251 224 237 q 409 214 328 214 l 426 214 q 579 248 505 214 q 700 338 654 281 q 745 456 745 395 l 745 488 q 715 579 745 534 m 644 488 l 644 456 q 576 363 644 410 q 426 316 508 316 l 409 316 q 258 363 327 316 q 190 456 190 410 l 190 488 q 224 549 190 520 q 309 594 258 578 q 409 610 359 610 l 426 610 q 521 596 477 610 q 590 564 564 583 q 630 524 616 544 q 644 488 644 504 "},"Ĥ":{"ha":833,"x_min":88,"x_max":745,"o":"m 190 0 l 190 446 l 644 446 l 644 0 l 745 0 l 745 949 l 644 949 l 644 547 l 190 547 l 190 949 l 88 949 l 88 0 l 190 0 m 476 1156 l 359 1156 l 221 1080 l 270 991 l 418 1072 l 566 991 l 614 1080 l 476 1156 "},"ĥ":{"ha":833,"x_min":88,"x_max":745,"o":"m 644 467 l 644 0 l 745 0 l 745 467 q 658 640 745 569 q 426 711 571 711 l 409 711 q 190 614 287 711 l 190 949 l 88 949 l 88 0 l 190 0 l 190 405 q 207 464 190 429 q 251 531 223 498 q 321 587 278 564 q 409 610 363 610 l 426 610 q 526 596 482 610 q 594 562 569 583 q 631 516 618 540 q 644 467 644 492 m 557 1155 l 441 1155 l 302 1079 l 351 989 l 499 1071 l 647 989 l 696 1079 l 557 1155 "},"Ħ":{"ha":833,"x_min":54,"x_max":779,"o":"m 249 547 l 249 743 l 585 743 l 585 547 l 249 547 m 249 0 l 249 446 l 585 446 l 585 0 l 686 0 l 686 743 l 779 743 l 779 844 l 686 844 l 686 949 l 585 949 l 585 844 l 249 844 l 249 949 l 147 949 l 147 844 l 54 844 l 54 743 l 147 743 l 147 0 l 249 0 "},"ħ":{"ha":833,"x_min":54,"x_max":745,"o":"m 644 460 l 644 0 l 745 0 l 745 460 q 664 642 745 573 q 453 711 583 711 l 436 711 q 244 621 327 711 l 244 817 l 450 817 l 450 919 l 244 919 l 244 949 l 142 949 l 142 919 l 54 919 l 54 817 l 142 817 l 142 0 l 244 0 l 244 378 q 257 444 244 406 q 294 520 271 482 q 355 584 317 557 q 436 610 393 610 l 453 610 q 593 569 542 610 q 644 460 644 529 "},"Ĩ":{"ha":833,"x_min":136,"x_max":698,"o":"m 698 949 l 136 949 l 136 848 l 367 848 l 367 102 l 136 102 l 136 0 l 698 0 l 698 102 l 469 102 l 469 848 l 698 848 l 698 949 m 189 1111 l 177 1093 l 262 1038 l 274 1055 q 316 1089 296 1089 l 327 1089 q 369 1077 355 1089 l 381 1066 q 429 1040 398 1051 q 490 1028 460 1028 l 502 1028 l 524 1031 q 579 1055 546 1034 q 633 1112 612 1076 l 642 1128 l 554 1179 l 545 1163 q 523 1138 535 1147 q 502 1130 511 1130 l 490 1130 q 466 1135 479 1130 q 449 1142 452 1139 l 436 1154 q 327 1191 394 1191 l 316 1191 q 189 1111 241 1191 "},"ĩ":{"ha":833,"x_min":139,"x_max":694,"o":"m 200 694 l 200 593 l 367 593 l 367 102 l 139 102 l 139 0 l 694 0 l 694 102 l 469 102 l 469 694 l 200 694 m 194 895 l 182 878 l 268 822 l 279 840 q 321 873 301 873 l 332 873 q 374 861 361 873 l 387 850 q 434 824 404 836 q 496 812 465 812 l 507 812 l 529 816 q 584 839 551 819 q 638 896 617 860 l 648 912 l 559 964 l 550 947 q 528 923 541 931 q 507 914 516 914 l 496 914 q 471 919 485 914 q 454 926 457 924 l 441 938 q 332 975 399 975 l 321 975 q 194 895 246 975 "},"Ī":{"ha":833,"x_min":136,"x_max":698,"o":"m 698 949 l 136 949 l 136 848 l 367 848 l 367 102 l 136 102 l 136 0 l 698 0 l 698 102 l 469 102 l 469 848 l 698 848 l 698 949 m 264 1019 l 571 1019 l 571 1121 l 264 1121 l 264 1019 "},"ī":{"ha":833,"x_min":139,"x_max":694,"o":"m 200 694 l 200 593 l 367 593 l 367 102 l 139 102 l 139 0 l 694 0 l 694 102 l 469 102 l 469 694 l 200 694 m 269 770 l 576 770 l 576 871 l 269 871 l 269 770 "},"Ĭ":{"ha":833,"x_min":136,"x_max":698,"o":"m 698 949 l 136 949 l 136 848 l 367 848 l 367 102 l 136 102 l 136 0 l 698 0 l 698 102 l 469 102 l 469 848 l 698 848 l 698 949 m 416 995 q 526 1020 475 995 q 614 1090 576 1046 l 536 1155 q 416 1097 487 1097 q 299 1154 347 1097 l 222 1089 q 309 1020 258 1045 q 416 995 359 995 "},"ĭ":{"ha":833,"x_min":139,"x_max":694,"o":"m 200 694 l 200 593 l 367 593 l 367 102 l 139 102 l 139 0 l 694 0 l 694 102 l 469 102 l 469 694 l 200 694 m 422 793 q 531 818 480 793 q 619 888 582 844 l 542 953 q 422 895 492 895 q 304 952 353 895 l 227 887 q 314 818 264 843 q 422 793 365 793 "},"Į":{"ha":833,"x_min":136,"x_max":698,"o":"m 698 949 l 136 949 l 136 848 l 367 848 l 367 102 l 136 102 l 136 0 l 698 0 l 698 102 l 469 102 l 469 848 l 698 848 l 698 949 m 484 -243 l 503 -226 l 435 -150 l 418 -165 q 394 -174 407 -174 q 369 -163 379 -174 q 358 -138 358 -153 q 368 -112 358 -122 l 468 -12 l 468 58 l 366 58 l 366 30 l 295 -41 q 256 -138 256 -82 q 297 -235 256 -195 q 394 -276 337 -276 q 484 -243 444 -276 "},"į":{"ha":833,"x_min":139,"x_max":694,"o":"m 200 694 l 200 593 l 367 593 l 367 102 l 139 102 l 139 0 l 694 0 l 694 102 l 469 102 l 469 694 l 200 694 m 360 818 q 422 792 385 792 q 484 818 458 792 q 510 880 510 844 q 484 941 510 916 q 422 967 458 967 q 360 942 385 967 q 335 880 335 916 q 348 830 335 843 q 360 818 360 818 m 484 -243 l 503 -226 l 435 -150 l 418 -165 q 394 -174 407 -174 q 369 -163 379 -174 q 358 -138 358 -153 q 368 -112 358 -122 l 468 -12 l 468 58 l 366 58 l 366 30 l 295 -41 q 256 -138 256 -82 q 297 -235 256 -195 q 394 -276 337 -276 q 484 -243 444 -276 "},"İ":{"ha":833,"x_min":136,"x_max":698,"o":"m 698 949 l 136 949 l 136 848 l 367 848 l 367 102 l 136 102 l 136 0 l 698 0 l 698 102 l 469 102 l 469 848 l 698 848 l 698 949 m 353 1026 q 414 1000 378 1000 q 476 1026 450 1000 q 503 1088 503 1052 q 476 1149 503 1124 q 414 1175 450 1175 q 353 1150 378 1175 q 328 1088 328 1124 q 340 1038 328 1051 q 353 1026 353 1026 "},"ı":{"ha":833,"x_min":139,"x_max":694,"o":"m 200 694 l 200 593 l 367 593 l 367 102 l 139 102 l 139 0 l 694 0 l 694 102 l 469 102 l 469 694 l 200 694 "},"Ĳ":{"ha":833,"x_min":54,"x_max":779,"o":"m 464 279 l 388 279 l 388 178 l 464 178 q 588 241 544 178 q 631 405 631 304 l 631 848 l 779 848 l 779 949 l 54 949 l 54 848 l 203 848 l 203 102 l 54 102 l 54 0 l 505 0 l 505 102 l 304 102 l 304 848 l 530 848 l 530 405 q 528 371 530 388 q 520 331 526 353 q 499 294 514 308 q 464 279 485 279 "},"ĳ":{"ha":833,"x_min":54,"x_max":823,"o":"m 115 695 l 115 593 l 281 593 l 281 102 l 54 102 l 54 1 l 609 1 l 609 102 l 383 102 l 383 695 l 115 695 m 275 818 q 336 793 300 793 q 398 819 372 793 q 425 880 425 844 q 398 942 425 916 q 336 968 372 968 q 275 942 300 968 q 250 880 250 917 q 262 831 250 844 q 275 818 275 818 m 601 -136 q 520 -101 557 -136 q 483 -35 483 -66 l 381 -35 q 448 -173 381 -107 q 601 -238 515 -238 q 756 -178 689 -238 q 823 -35 823 -117 l 823 707 l 481 707 l 481 605 l 721 605 l 721 -35 q 684 -105 721 -75 q 601 -136 646 -136 m 652 830 q 713 804 677 804 q 775 830 749 804 q 802 892 802 856 q 775 954 802 928 q 713 979 749 979 q 652 954 677 979 q 627 892 627 928 q 639 842 627 855 q 652 830 652 830 "},"Ĵ":{"ha":833,"x_min":71,"x_max":745,"o":"m 745 949 l 262 949 l 262 848 l 496 848 l 496 242 q 456 128 496 171 q 336 85 416 85 l 319 85 q 260 89 286 85 q 219 100 234 94 q 192 117 203 106 q 176 136 181 127 q 168 157 172 145 l 71 125 q 113 52 85 81 q 175 8 140 22 q 245 -12 211 -6 q 319 -17 279 -17 l 336 -17 q 526 54 454 -17 q 597 242 597 125 l 597 848 l 745 848 l 745 949 m 559 1156 l 442 1156 l 304 1080 l 353 991 l 500 1072 l 648 991 l 697 1080 l 559 1156 "},"ĵ":{"ha":833,"x_min":212,"x_max":750,"o":"m 432 -149 q 351 -113 389 -149 q 314 -47 314 -78 l 212 -47 q 279 -185 212 -119 q 432 -250 347 -250 q 587 -190 520 -250 q 654 -47 654 -130 l 654 694 l 313 694 l 313 593 l 552 593 l 552 -47 q 515 -118 552 -87 q 432 -149 477 -149 m 612 954 l 495 954 l 357 878 l 406 789 l 553 870 l 701 789 l 750 878 l 612 954 "},"Ķ":{"ha":833,"x_min":87,"x_max":782,"o":"m 330 467 l 658 0 l 782 0 l 400 545 l 766 949 l 629 949 l 189 463 l 189 949 l 87 949 l 87 0 l 189 0 l 189 311 l 330 467 "},"ķ":{"ha":833,"x_min":88,"x_max":764,"o":"m 330 352 l 630 0 l 764 0 l 409 417 l 727 682 l 662 760 l 190 367 l 190 966 l 88 966 l 88 0 l 190 0 l 190 235 l 330 352 "},"ĸ":{"ha":833,"x_min":88,"x_max":771,"o":""},"Ĺ":{"ha":833,"x_min":88,"x_max":745,"o":"m 190 102 l 190 949 l 88 949 l 88 0 l 745 0 l 745 102 l 190 102 m 393 938 l 568 1122 l 473 1214 l 298 1029 l 393 938 "},"ĺ":{"ha":833,"x_min":139,"x_max":694,"o":"m 139 930 l 139 830 l 367 830 l 367 100 l 139 100 l 139 0 l 694 0 l 694 100 l 469 100 l 469 930 l 139 930 m 427 939 l 602 1123 l 507 1215 l 332 1030 l 427 939 "},"Ļ":{"ha":833,"x_min":88,"x_max":745,"o":"m 190 102 l 190 949 l 88 949 l 88 0 l 745 0 l 745 102 l 190 102 "},"ļ":{"ha":833,"x_min":139,"x_max":694,"o":"m 139 949 l 139 848 l 367 848 l 367 102 l 139 102 l 139 0 l 694 0 l 694 102 l 469 102 l 469 949 l 139 949 "},"Ľ":{"ha":833,"x_min":88,"x_max":745,"o":"m 190 102 l 190 949 l 88 949 l 88 0 l 745 0 l 745 102 l 190 102 "},"ľ":{"ha":833,"x_min":92,"x_max":701,"o":"m 92 949 l 92 848 l 319 848 l 319 102 l 92 102 l 92 0 l 647 0 l 647 102 l 421 102 l 421 949 l 92 949 "},"Ŀ":{"ha":833,"x_min":88,"x_max":745,"o":"m 190 102 l 190 949 l 88 949 l 88 0 l 745 0 l 745 102 l 190 102 m 627 529 q 566 554 603 554 q 504 529 528 554 q 480 469 480 503 q 505 408 480 433 q 566 383 529 383 q 627 408 603 383 q 652 469 652 433 q 640 516 652 504 q 627 529 627 529 "},"ŀ":{"ha":833,"x_min":92,"x_max":687,"o":"m 92 949 l 92 848 l 319 848 l 319 102 l 92 102 l 92 0 l 647 0 l 647 102 l 421 102 l 421 949 l 92 949 m 663 553 q 601 578 638 578 q 539 553 564 578 q 515 493 515 528 q 540 433 515 458 q 601 408 564 408 q 663 433 638 408 q 687 493 687 458 q 675 541 687 528 q 663 553 663 553 "},"Ł":{"ha":833,"x_min":41,"x_max":745,"o":"m 246 102 l 246 347 l 611 446 l 584 544 l 246 452 l 246 949 l 144 949 l 144 425 l 41 396 l 68 298 l 144 319 l 144 0 l 745 0 l 745 102 l 246 102 "},"ł":{"ha":833,"x_min":106,"x_max":730,"o":"m 705 545 l 469 486 l 469 949 l 139 949 l 139 848 l 367 848 l 367 461 l 106 397 l 130 298 l 367 356 l 367 102 l 139 102 l 139 0 l 694 0 l 694 102 l 469 102 l 469 381 l 730 446 l 705 545 "},"Ń":{"ha":833,"x_min":88,"x_max":745,"o":"m 190 0 l 190 740 l 656 0 l 745 0 l 745 949 l 644 949 l 644 211 l 178 949 l 88 949 l 88 0 l 190 0 m 427 939 l 602 1123 l 507 1215 l 332 1030 l 427 939 "},"ń":{"ha":833,"x_min":88,"x_max":745,"o":"m 644 460 l 644 0 l 745 0 l 745 460 q 662 644 745 576 q 426 711 578 711 l 409 711 q 190 610 286 711 l 190 694 l 88 694 l 88 0 l 190 0 l 190 391 q 200 439 190 411 q 231 496 211 467 q 277 552 251 526 q 338 593 303 577 q 409 610 373 610 l 426 610 q 490 606 460 610 q 548 591 519 602 q 598 565 577 581 q 631 522 618 549 q 644 460 644 495 m 429 711 l 604 895 l 509 987 l 334 802 l 429 711 "},"Ņ":{"ha":833,"x_min":88,"x_max":745,"o":"m 190 0 l 190 740 l 656 0 l 745 0 l 745 949 l 644 949 l 644 211 l 178 949 l 88 949 l 88 0 l 190 0 "},"ņ":{"ha":833,"x_min":88,"x_max":745,"o":"m 644 460 l 644 0 l 745 0 l 745 460 q 662 644 745 576 q 426 711 578 711 l 409 711 q 190 610 286 711 l 190 694 l 88 694 l 88 0 l 190 0 l 190 391 q 200 439 190 411 q 231 496 211 467 q 277 552 251 526 q 338 593 303 577 q 409 610 373 610 l 426 610 q 490 606 460 610 q 548 591 519 602 q 598 565 577 581 q 631 522 618 549 q 644 460 644 495 "},"Ň":{"ha":833,"x_min":88,"x_max":745,"o":"m 190 0 l 190 740 l 656 0 l 745 0 l 745 949 l 644 949 l 644 211 l 178 949 l 88 949 l 88 0 l 190 0 m 418 1090 l 270 1172 l 221 1082 l 359 1006 l 476 1006 l 614 1082 l 566 1172 l 418 1090 "},"ň":{"ha":833,"x_min":88,"x_max":745,"o":"m 644 460 l 644 0 l 745 0 l 745 460 q 662 644 745 576 q 426 711 578 711 l 409 711 q 190 610 286 711 l 190 694 l 88 694 l 88 0 l 190 0 l 190 391 q 200 439 190 411 q 231 496 211 467 q 277 552 251 526 q 338 593 303 577 q 409 610 373 610 l 426 610 q 490 606 460 610 q 548 591 519 602 q 598 565 577 581 q 631 522 618 549 q 644 460 644 495 m 418 893 l 270 975 l 221 885 l 359 809 l 476 809 l 614 885 l 566 975 l 418 893 "},"ŉ":{"ha":833,"x_min":96,"x_max":800,"o":"m 698 460 l 698 0 l 800 0 l 800 460 q 716 644 800 576 q 480 711 633 711 l 463 711 q 244 610 340 711 l 244 694 l 142 694 l 142 0 l 244 0 l 244 391 q 255 439 244 411 q 285 496 265 467 q 331 552 305 526 q 392 593 357 577 q 463 610 427 610 l 480 610 q 544 606 514 610 q 603 591 574 602 q 652 565 631 581 q 685 522 673 549 q 698 460 698 495 m 191 822 l 304 1013 q 314 1053 314 1030 q 293 1111 314 1086 q 238 1137 273 1137 q 184 1120 210 1137 q 152 1077 158 1103 l 99 861 q 96 840 96 849 q 109 803 96 817 q 140 789 121 789 q 191 822 172 789 "},"Ŋ":{"ha":833,"x_min":88,"x_max":745,"o":"m 431 -149 q 371 -133 400 -149 q 330 -100 341 -117 l 245 -155 q 326 -224 273 -198 q 431 -250 378 -250 l 482 -250 q 592 -227 541 -250 q 676 -167 643 -204 q 727 -84 709 -130 q 745 8 745 -38 l 745 694 q 724 800 745 751 q 664 886 703 849 q 563 945 625 924 q 426 966 502 966 l 409 966 q 190 852 288 966 l 190 949 l 88 949 l 88 0 l 190 0 l 190 623 q 207 688 190 648 q 252 768 224 728 q 322 836 280 808 q 409 865 365 865 l 426 865 q 588 817 533 865 q 644 694 644 769 l 644 8 q 599 -99 644 -50 q 482 -149 555 -149 l 431 -149 "},"ŋ":{"ha":833,"x_min":88,"x_max":745,"o":"m 431 -149 q 320 -89 389 -149 l 255 -166 q 431 -250 355 -250 l 482 -250 q 592 -227 541 -250 q 676 -167 643 -204 q 727 -84 709 -130 q 745 8 745 -38 l 745 460 q 662 644 745 576 q 426 711 578 711 l 409 711 q 190 602 288 711 l 190 694 l 88 694 l 88 0 l 190 0 l 190 378 q 207 442 190 404 q 252 518 224 481 q 322 583 280 556 q 409 610 365 610 l 426 610 q 490 606 460 610 q 548 591 519 602 q 598 565 577 581 q 631 522 618 549 q 644 460 644 495 l 644 8 q 599 -99 644 -50 q 482 -149 555 -149 l 431 -149 "},"Ō":{"ha":833,"x_min":88,"x_max":745,"o":"m 745 519 q 742 613 745 569 q 729 703 739 656 q 705 787 720 750 q 665 859 690 825 q 607 916 640 893 q 527 953 574 939 q 424 966 481 966 l 412 966 q 274 940 333 966 q 181 873 216 914 q 124 770 146 831 q 96 650 103 709 q 88 517 88 590 l 88 472 q 103 286 88 368 q 146 148 119 204 q 214 54 174 91 q 304 0 255 17 q 412 -17 353 -17 l 424 -17 q 745 472 745 -16 l 745 519 m 424 865 q 517 849 479 865 q 586 794 556 833 q 629 688 615 756 q 644 519 644 619 l 644 472 q 629 290 644 366 q 584 170 614 214 q 515 105 555 125 q 424 85 476 85 l 412 85 q 294 121 342 85 q 218 244 246 157 q 190 472 190 332 l 190 517 q 205 686 190 618 q 250 793 220 755 q 318 848 279 832 q 412 865 357 865 l 424 865 m 267 1019 l 574 1019 l 574 1121 l 267 1121 l 267 1019 "},"ō":{"ha":833,"x_min":88,"x_max":745,"o":"m 745 381 q 666 621 745 531 q 435 711 587 711 l 396 711 q 167 620 245 711 q 88 380 88 530 l 88 326 q 107 192 88 253 q 162 83 125 130 q 259 9 199 36 q 397 -17 319 -17 l 432 -17 q 572 9 511 -17 q 670 81 633 35 q 726 190 707 128 q 745 326 745 251 l 745 381 m 435 609 q 644 381 644 609 l 644 326 q 432 85 644 85 l 397 85 q 312 99 349 85 q 253 135 275 113 q 215 190 230 158 q 195 255 201 222 q 190 326 190 288 l 190 380 q 396 609 190 609 l 435 609 m 271 770 l 578 770 l 578 871 l 271 871 l 271 770 "},"Ŏ":{"ha":833,"x_min":88,"x_max":745,"o":"m 745 519 q 742 613 745 569 q 729 703 739 656 q 705 787 720 750 q 665 859 690 825 q 607 916 640 893 q 527 953 574 939 q 424 966 481 966 l 412 966 q 274 940 333 966 q 181 873 216 914 q 124 770 146 831 q 96 650 103 709 q 88 517 88 590 l 88 472 q 103 286 88 368 q 146 148 119 204 q 214 54 174 91 q 304 0 255 17 q 412 -17 353 -17 l 424 -17 q 745 472 745 -16 l 745 519 m 424 865 q 517 849 479 865 q 586 794 556 833 q 629 688 615 756 q 644 519 644 619 l 644 472 q 629 290 644 366 q 584 170 614 214 q 515 105 555 125 q 424 85 476 85 l 412 85 q 294 121 342 85 q 218 244 246 157 q 190 472 190 332 l 190 517 q 205 686 190 618 q 250 793 220 755 q 318 848 279 832 q 412 865 357 865 l 424 865 m 420 996 q 529 1022 478 996 q 617 1091 580 1047 l 540 1156 q 420 1098 490 1098 q 302 1156 351 1098 l 225 1090 q 312 1021 262 1046 q 420 996 363 996 "},"ŏ":{"ha":833,"x_min":88,"x_max":745,"o":"m 745 381 q 666 621 745 531 q 435 711 587 711 l 396 711 q 167 620 245 711 q 88 380 88 530 l 88 326 q 107 192 88 253 q 162 83 125 130 q 259 9 199 36 q 397 -17 319 -17 l 432 -17 q 572 9 511 -17 q 670 81 633 35 q 726 190 707 128 q 745 326 745 251 l 745 381 m 435 609 q 644 381 644 609 l 644 326 q 432 85 644 85 l 397 85 q 312 99 349 85 q 253 135 275 113 q 215 190 230 158 q 195 255 201 222 q 190 326 190 288 l 190 380 q 396 609 190 609 l 435 609 m 424 793 q 533 818 482 793 q 621 888 584 844 l 544 953 q 424 895 494 895 q 307 952 355 895 l 229 887 q 316 818 266 843 q 424 793 367 793 "},"Ő":{"ha":833,"x_min":88,"x_max":745,"o":"m 745 519 q 742 613 745 569 q 729 703 739 656 q 705 787 720 750 q 665 859 690 825 q 607 916 640 893 q 527 953 574 939 q 424 966 481 966 l 412 966 q 274 940 333 966 q 181 873 216 914 q 124 770 146 831 q 96 650 103 709 q 88 517 88 590 l 88 472 q 103 286 88 368 q 146 148 119 204 q 214 54 174 91 q 304 0 255 17 q 412 -17 353 -17 l 424 -17 q 745 472 745 -16 l 745 519 m 424 865 q 517 849 479 865 q 586 794 556 833 q 629 688 615 756 q 644 519 644 619 l 644 472 q 629 290 644 366 q 584 170 614 214 q 515 105 555 125 q 424 85 476 85 l 412 85 q 294 121 342 85 q 218 244 246 157 q 190 472 190 332 l 190 517 q 205 686 190 618 q 250 793 220 755 q 318 848 279 832 q 412 865 357 865 l 424 865 "},"ő":{"ha":833,"x_min":88,"x_max":745,"o":"m 745 381 q 666 621 745 531 q 435 711 587 711 l 396 711 q 167 620 245 711 q 88 380 88 530 l 88 326 q 107 192 88 253 q 162 83 125 130 q 259 9 199 36 q 397 -17 319 -17 l 432 -17 q 572 9 511 -17 q 670 81 633 35 q 726 190 707 128 q 745 326 745 251 l 745 381 m 435 609 q 644 381 644 609 l 644 326 q 432 85 644 85 l 397 85 q 312 99 349 85 q 253 135 275 113 q 215 190 230 158 q 195 255 201 222 q 190 326 190 288 l 190 380 q 396 609 190 609 l 435 609 "},"Œ":{"ha":833,"x_min":88,"x_max":745,"o":"m 289 949 q 201 930 241 949 q 137 879 161 910 q 101 812 113 848 q 88 743 88 777 l 88 193 q 111 102 88 145 q 180 30 133 59 q 289 0 227 0 l 310 0 q 399 21 360 0 l 399 0 l 745 0 l 745 102 l 500 102 l 500 446 l 655 446 l 655 547 l 500 547 l 500 848 l 745 848 l 745 949 l 399 949 l 399 926 q 310 949 359 949 l 289 949 m 190 743 q 215 813 190 779 q 289 848 241 848 l 310 848 q 375 814 351 848 q 399 743 399 781 l 399 193 q 375 131 399 159 q 310 102 352 102 l 289 102 q 214 131 238 102 q 190 193 190 161 l 190 743 "},"œ":{"ha":833,"x_min":88,"x_max":745,"o":"m 469 526 q 491 584 469 557 q 556 610 513 610 q 644 526 644 610 l 644 418 l 469 418 l 469 526 m 469 169 l 469 317 l 745 317 l 745 526 q 695 659 745 606 q 556 711 645 711 q 418 654 473 711 q 279 711 365 711 q 139 658 191 711 q 88 526 88 604 l 88 169 q 139 36 88 89 q 279 -17 189 -17 q 417 40 363 -17 q 556 -17 472 -17 q 695 36 644 -17 q 745 169 745 90 l 644 169 q 624 109 644 134 q 556 85 604 85 q 491 110 513 85 q 469 169 469 135 m 190 526 q 210 585 190 560 q 279 610 231 610 q 345 584 323 610 q 367 526 367 559 l 367 169 q 344 111 367 137 q 279 85 321 85 q 190 169 190 85 l 190 526 "},"Ŕ":{"ha":833,"x_min":88,"x_max":792,"o":"m 190 435 l 388 435 l 671 0 l 792 0 l 507 439 q 745 660 745 465 l 745 721 q 730 815 745 774 q 688 881 715 855 q 620 922 661 906 q 532 943 578 937 q 426 949 486 949 l 88 949 l 88 0 l 190 0 l 190 435 m 426 537 l 190 537 l 190 848 l 426 848 q 522 842 482 848 q 585 826 562 836 q 622 800 609 817 q 640 765 635 783 q 644 721 644 747 l 644 660 q 634 609 644 630 q 601 571 625 588 q 534 546 578 554 q 426 537 490 537 m 288 939 l 463 1123 l 368 1215 l 193 1030 l 288 939 "},"ŕ":{"ha":833,"x_min":88,"x_max":743,"o":"m 496 610 q 661 555 621 610 l 743 616 q 496 711 673 711 l 479 711 q 322 672 398 711 q 190 566 247 632 l 190 694 l 88 694 l 88 0 l 190 0 l 190 319 q 230 448 190 380 q 338 563 269 515 q 479 610 406 610 l 496 610 m 425 711 l 600 895 l 505 987 l 330 802 l 425 711 "},"Ŗ":{"ha":833,"x_min":88,"x_max":792,"o":"m 190 435 l 388 435 l 671 0 l 792 0 l 507 439 q 745 660 745 465 l 745 721 q 730 815 745 774 q 688 881 715 855 q 620 922 661 906 q 532 943 578 937 q 426 949 486 949 l 88 949 l 88 0 l 190 0 l 190 435 m 426 537 l 190 537 l 190 848 l 426 848 q 522 842 482 848 q 585 826 562 836 q 622 800 609 817 q 640 765 635 783 q 644 721 644 747 l 644 660 q 634 609 644 630 q 601 571 625 588 q 534 546 578 554 q 426 537 490 537 "},"ŗ":{"ha":833,"x_min":88,"x_max":743,"o":"m 496 610 q 661 555 621 610 l 743 616 q 496 711 673 711 l 479 711 q 322 672 398 711 q 190 566 247 632 l 190 694 l 88 694 l 88 0 l 190 0 l 190 319 q 230 448 190 380 q 338 563 269 515 q 479 610 406 610 l 496 610 "},"Ř":{"ha":833,"x_min":88,"x_max":792,"o":"m 190 435 l 388 435 l 671 0 l 792 0 l 507 439 q 745 660 745 465 l 745 721 q 730 815 745 774 q 688 881 715 855 q 620 922 661 906 q 532 943 578 937 q 426 949 486 949 l 88 949 l 88 0 l 190 0 l 190 435 m 426 537 l 190 537 l 190 848 l 426 848 q 522 842 482 848 q 585 826 562 836 q 622 800 609 817 q 640 765 635 783 q 644 721 644 747 l 644 660 q 634 609 644 630 q 601 571 625 588 q 534 546 578 554 q 426 537 490 537 m 387 1093 l 239 1175 l 191 1085 l 329 1009 l 446 1009 l 584 1085 l 535 1175 l 387 1093 "},"ř":{"ha":833,"x_min":88,"x_max":743,"o":"m 496 610 q 661 555 621 610 l 743 616 q 496 711 673 711 l 479 711 q 322 672 398 711 q 190 566 247 632 l 190 694 l 88 694 l 88 0 l 190 0 l 190 319 q 230 448 190 380 q 338 563 269 515 q 479 610 406 610 l 496 610 m 416 893 l 268 975 l 219 885 l 357 809 l 474 809 l 612 885 l 564 975 l 416 893 "},"Ś":{"ha":833,"x_min":87,"x_max":745,"o":"m 409 85 q 251 134 314 85 q 189 242 189 184 l 87 242 q 111 146 87 193 q 177 63 135 100 q 279 5 218 27 q 409 -17 340 -17 l 426 -17 q 553 5 493 -17 q 655 63 613 27 q 721 146 696 99 q 745 242 745 193 l 745 262 q 734 341 745 304 q 706 404 723 378 q 664 450 688 429 q 614 484 639 471 q 563 507 590 497 l 301 597 q 256 642 275 607 q 237 701 237 677 l 237 721 q 247 766 237 742 q 277 812 257 789 q 334 850 298 835 q 415 865 370 865 l 422 865 q 632 777 593 865 l 724 819 q 422 966 659 966 l 415 966 q 295 944 350 966 q 206 885 240 921 q 154 806 172 848 q 135 721 135 763 l 135 701 q 140 657 135 682 q 158 602 145 633 q 199 543 171 570 q 267 501 228 515 l 529 410 q 619 351 594 388 q 644 262 644 313 l 644 242 q 581 135 644 184 q 426 85 518 85 l 409 85 m 380 939 l 555 1123 l 460 1215 l 286 1030 l 380 939 "},"ś":{"ha":833,"x_min":88,"x_max":745,"o":"m 117 535 l 117 527 q 152 427 117 477 q 256 358 186 376 l 582 274 q 621 250 599 269 q 644 204 644 231 l 644 180 q 605 127 644 150 q 518 95 567 104 q 426 85 470 85 l 378 85 q 244 126 299 85 q 190 215 190 168 l 88 215 q 173 54 88 124 q 378 -17 257 -17 l 426 -17 q 493 -13 457 -17 q 575 4 528 -9 q 658 37 622 17 q 720 94 694 57 q 745 180 745 132 l 745 204 q 712 306 745 258 q 607 372 679 353 l 281 456 q 235 486 250 464 q 219 527 219 508 l 219 535 q 229 559 219 547 q 260 583 239 572 q 320 602 281 595 q 409 610 359 610 l 426 610 q 553 584 496 610 q 633 522 610 558 l 719 576 q 596 676 678 641 q 426 711 513 711 l 409 711 q 288 700 340 711 q 203 670 235 688 q 152 627 172 652 q 124 581 132 603 q 117 535 117 558 m 385 711 l 560 895 l 465 987 l 290 802 l 385 711 "},"Ŝ":{"ha":833,"x_min":87,"x_max":745,"o":"m 409 85 q 251 134 314 85 q 189 242 189 184 l 87 242 q 111 146 87 193 q 177 63 135 100 q 279 5 218 27 q 409 -17 340 -17 l 426 -17 q 553 5 493 -17 q 655 63 613 27 q 721 146 696 99 q 745 242 745 193 l 745 262 q 734 341 745 304 q 706 404 723 378 q 664 450 688 429 q 614 484 639 471 q 563 507 590 497 l 301 597 q 256 642 275 607 q 237 701 237 677 l 237 721 q 247 766 237 742 q 277 812 257 789 q 334 850 298 835 q 415 865 370 865 l 422 865 q 632 777 593 865 l 724 819 q 422 966 659 966 l 415 966 q 295 944 350 966 q 206 885 240 921 q 154 806 172 848 q 135 721 135 763 l 135 701 q 140 657 135 682 q 158 602 145 633 q 199 543 171 570 q 267 501 228 515 l 529 410 q 619 351 594 388 q 644 262 644 313 l 644 242 q 581 135 644 184 q 426 85 518 85 l 409 85 m 490 1156 l 373 1156 l 235 1080 l 283 990 l 431 1072 l 579 990 l 628 1080 l 490 1156 "},"ŝ":{"ha":833,"x_min":88,"x_max":745,"o":"m 117 535 l 117 527 q 152 427 117 477 q 256 358 186 376 l 582 274 q 621 250 599 269 q 644 204 644 231 l 644 180 q 605 127 644 150 q 518 95 567 104 q 426 85 470 85 l 378 85 q 244 126 299 85 q 190 215 190 168 l 88 215 q 173 54 88 124 q 378 -17 257 -17 l 426 -17 q 493 -13 457 -17 q 575 4 528 -9 q 658 37 622 17 q 720 94 694 57 q 745 180 745 132 l 745 204 q 712 306 745 258 q 607 372 679 353 l 281 456 q 235 486 250 464 q 219 527 219 508 l 219 535 q 229 559 219 547 q 260 583 239 572 q 320 602 281 595 q 409 610 359 610 l 426 610 q 553 584 496 610 q 633 522 610 558 l 719 576 q 596 676 678 641 q 426 711 513 711 l 409 711 q 288 700 340 711 q 203 670 235 688 q 152 627 172 652 q 124 581 132 603 q 117 535 117 558 m 495 956 l 378 956 l 240 880 l 289 790 l 437 871 l 585 790 l 633 880 l 495 956 "},"Ş":{"ha":833,"x_min":87,"x_max":745,"o":"m 409 85 q 251 134 314 85 q 189 242 189 184 l 87 242 q 111 146 87 193 q 177 63 135 100 q 279 5 218 27 q 409 -17 340 -17 l 426 -17 q 553 5 493 -17 q 655 63 613 27 q 721 146 696 99 q 745 242 745 193 l 745 262 q 734 341 745 304 q 706 404 723 378 q 664 450 688 429 q 614 484 639 471 q 563 507 590 497 l 301 597 q 256 642 275 607 q 237 701 237 677 l 237 721 q 247 766 237 742 q 277 812 257 789 q 334 850 298 835 q 415 865 370 865 l 422 865 q 632 777 593 865 l 724 819 q 422 966 659 966 l 415 966 q 295 944 350 966 q 206 885 240 921 q 154 806 172 848 q 135 721 135 763 l 135 701 q 140 657 135 682 q 158 602 145 633 q 199 543 171 570 q 267 501 228 515 l 529 410 q 619 351 594 388 q 644 262 644 313 l 644 242 q 581 135 644 184 q 426 85 518 85 l 409 85 m 496 -191 q 476 -234 496 -218 q 421 -249 456 -249 q 318 -209 364 -249 l 252 -273 q 421 -337 326 -337 q 506 -323 467 -337 q 571 -274 545 -309 q 598 -191 598 -240 q 467 -50 598 -73 l 470 -9 l 470 5 l 368 5 l 368 -5 l 359 -134 l 413 -134 q 496 -191 496 -134 "},"ş":{"ha":833,"x_min":88,"x_max":745,"o":"m 117 535 l 117 527 q 152 427 117 477 q 256 358 186 376 l 582 274 q 621 250 599 269 q 644 204 644 231 l 644 180 q 605 127 644 150 q 518 95 567 104 q 426 85 470 85 l 378 85 q 244 126 299 85 q 190 215 190 168 l 88 215 q 173 54 88 124 q 378 -17 257 -17 l 426 -17 q 493 -13 457 -17 q 575 4 528 -9 q 658 37 622 17 q 720 94 694 57 q 745 180 745 132 l 745 204 q 712 306 745 258 q 607 372 679 353 l 281 456 q 235 486 250 464 q 219 527 219 508 l 219 535 q 229 559 219 547 q 260 583 239 572 q 320 602 281 595 q 409 610 359 610 l 426 610 q 553 584 496 610 q 633 522 610 558 l 719 576 q 596 676 678 641 q 426 711 513 711 l 409 711 q 288 700 340 711 q 203 670 235 688 q 152 627 172 652 q 124 581 132 603 q 117 535 117 558 m 505 -191 q 484 -234 505 -218 q 429 -249 464 -249 q 326 -209 372 -249 l 260 -273 q 429 -337 334 -337 q 514 -323 475 -337 q 579 -274 553 -309 q 606 -191 606 -240 q 475 -50 606 -73 l 478 -9 l 478 5 l 376 5 l 376 -5 l 367 -134 l 421 -134 q 505 -191 505 -134 "},"Š":{"ha":833,"x_min":87,"x_max":745,"o":"m 409 85 q 251 134 314 85 q 189 242 189 184 l 87 242 q 111 146 87 193 q 177 63 135 100 q 279 5 218 27 q 409 -17 340 -17 l 426 -17 q 553 5 493 -17 q 655 63 613 27 q 721 146 696 99 q 745 242 745 193 l 745 262 q 734 341 745 304 q 706 404 723 378 q 664 450 688 429 q 614 484 639 471 q 563 507 590 497 l 301 597 q 256 642 275 607 q 237 701 237 677 l 237 721 q 247 766 237 742 q 277 812 257 789 q 334 850 298 835 q 415 865 370 865 l 422 865 q 632 777 593 865 l 724 819 q 422 966 659 966 l 415 966 q 295 944 350 966 q 206 885 240 921 q 154 806 172 848 q 135 721 135 763 l 135 701 q 140 657 135 682 q 158 602 145 633 q 199 543 171 570 q 267 501 228 515 l 529 410 q 619 351 594 388 q 644 262 644 313 l 644 242 q 581 135 644 184 q 426 85 518 85 l 409 85 m 431 1092 l 283 1173 l 235 1084 l 373 1008 l 490 1008 l 628 1084 l 579 1173 l 431 1092 "},"š":{"ha":833,"x_min":88,"x_max":745,"o":"m 117 535 l 117 527 q 152 427 117 477 q 256 358 186 376 l 582 274 q 621 250 599 269 q 644 204 644 231 l 644 180 q 605 127 644 150 q 518 95 567 104 q 426 85 470 85 l 378 85 q 244 126 299 85 q 190 215 190 168 l 88 215 q 173 54 88 124 q 378 -17 257 -17 l 426 -17 q 493 -13 457 -17 q 575 4 528 -9 q 658 37 622 17 q 720 94 694 57 q 745 180 745 132 l 745 204 q 712 306 745 258 q 607 372 679 353 l 281 456 q 235 486 250 464 q 219 527 219 508 l 219 535 q 229 559 219 547 q 260 583 239 572 q 320 602 281 595 q 409 610 359 610 l 426 610 q 553 584 496 610 q 633 522 610 558 l 719 576 q 596 676 678 641 q 426 711 513 711 l 409 711 q 288 700 340 711 q 203 670 235 688 q 152 627 172 652 q 124 581 132 603 q 117 535 117 558 m 437 893 l 289 975 l 240 885 l 378 809 l 495 809 l 633 885 l 585 975 l 437 893 "},"Ţ":{"ha":833,"x_min":88,"x_max":745,"o":"m 745 949 l 88 949 l 88 848 l 367 848 l 367 0 l 469 0 l 469 848 l 745 848 l 745 949 m 494 -174 q 473 -217 494 -202 q 418 -233 453 -233 q 315 -193 361 -233 l 249 -256 q 418 -321 323 -321 q 503 -307 465 -321 q 569 -258 542 -292 q 595 -174 595 -224 q 465 -34 595 -56 l 467 7 l 467 21 l 366 21 l 366 11 l 356 -118 l 410 -118 q 494 -174 494 -118 "},"ţ":{"ha":833,"x_min":89,"x_max":707,"o":"m 349 212 l 378 582 l 627 582 l 627 684 l 386 684 l 408 966 l 306 966 l 283 684 l 89 684 l 89 582 l 276 582 l 247 203 q 316 47 247 111 q 479 -17 385 -17 l 496 -17 q 628 25 572 -17 q 707 122 684 68 l 614 163 q 569 108 600 132 q 496 85 538 85 l 479 85 q 437 92 458 85 q 396 112 416 98 q 362 152 375 126 q 349 212 349 178 m 549 -187 q 529 -230 549 -215 q 474 -245 509 -245 q 371 -205 417 -245 l 304 -269 q 474 -334 379 -334 q 559 -319 520 -334 q 624 -271 597 -305 q 651 -187 651 -237 q 520 -47 651 -69 l 523 -6 l 523 8 l 421 8 l 421 -2 l 412 -131 l 466 -131 q 549 -187 549 -131 "},"Ť":{"ha":833,"x_min":88,"x_max":745,"o":"m 745 949 l 88 949 l 88 848 l 367 848 l 367 0 l 469 0 l 469 848 l 745 848 l 745 949 m 418 1093 l 270 1175 l 221 1085 l 359 1009 l 476 1009 l 614 1085 l 566 1175 l 418 1093 "},"ť":{"ha":833,"x_min":89,"x_max":707,"o":"m 349 212 l 378 582 l 627 582 l 627 684 l 386 684 l 408 966 l 306 966 l 283 684 l 89 684 l 89 582 l 276 582 l 247 203 q 316 47 247 111 q 479 -17 385 -17 l 496 -17 q 628 25 572 -17 q 707 122 684 68 l 614 163 q 569 108 600 132 q 496 85 538 85 l 479 85 q 437 92 458 85 q 396 112 416 98 q 362 152 375 126 q 349 212 349 178 "},"Ŧ":{"ha":833,"x_min":88,"x_max":745,"o":"m 745 949 l 88 949 l 88 848 l 367 848 l 367 431 l 88 431 l 88 329 l 367 329 l 367 0 l 469 0 l 469 329 l 745 329 l 745 431 l 469 431 l 469 848 l 745 848 l 745 949 "},"ŧ":{"ha":833,"x_min":88,"x_max":745,"o":"m 496 85 l 479 85 q 391 120 432 85 q 349 203 349 156 l 349 219 l 358 329 l 745 329 l 745 431 l 366 431 l 378 582 l 633 582 l 633 684 l 386 684 l 408 966 l 306 966 l 284 684 l 108 684 l 108 582 l 276 582 l 264 431 l 88 431 l 88 329 l 256 329 l 248 223 l 248 203 q 281 93 248 144 q 368 12 315 41 q 479 -17 421 -17 l 496 -17 q 572 -2 532 -17 q 653 48 613 12 q 710 134 693 83 l 611 158 q 564 107 601 129 q 496 85 527 85 "},"Ũ":{"ha":833,"x_min":88,"x_max":745,"o":"m 190 262 l 190 949 l 88 949 l 88 262 q 174 64 88 144 q 409 -17 259 -17 l 426 -17 q 661 64 576 -17 q 745 262 745 144 l 745 949 l 644 949 l 644 262 q 588 135 644 186 q 426 85 532 85 l 409 85 q 246 135 302 85 q 190 262 190 186 m 189 1106 l 177 1088 l 262 1033 l 274 1050 q 316 1084 296 1084 l 327 1084 q 369 1072 355 1084 l 381 1061 q 429 1035 398 1046 q 490 1023 460 1023 l 502 1023 l 524 1027 q 579 1050 546 1029 q 633 1107 612 1071 l 642 1123 l 554 1175 l 545 1158 q 523 1134 535 1142 q 502 1125 511 1125 l 490 1125 q 466 1130 479 1125 q 449 1137 452 1135 l 436 1149 q 327 1186 394 1186 l 316 1186 q 189 1106 241 1186 "},"ũ":{"ha":833,"x_min":88,"x_max":745,"o":"m 190 249 l 190 694 l 88 694 l 88 249 q 105 146 88 193 q 157 62 123 100 q 251 4 192 25 q 388 -17 310 -17 l 406 -17 q 533 17 472 -17 q 644 106 594 51 l 644 0 l 745 0 l 745 694 l 644 694 l 644 323 q 624 259 644 298 q 573 180 604 219 q 496 113 541 141 q 406 85 451 85 l 388 85 q 190 249 190 85 m 189 895 l 177 878 l 262 822 l 274 840 q 316 873 296 873 l 327 873 q 369 861 355 873 l 381 850 q 429 824 398 836 q 490 812 460 812 l 502 812 l 524 816 q 579 839 546 819 q 633 896 612 860 l 642 912 l 554 964 l 545 947 q 523 923 535 931 q 502 914 511 914 l 490 914 q 466 919 479 914 q 449 926 452 924 l 436 938 q 327 975 394 975 l 316 975 q 189 895 241 975 "},"Ū":{"ha":833,"x_min":88,"x_max":745,"o":"m 190 262 l 190 949 l 88 949 l 88 262 q 174 64 88 144 q 409 -17 259 -17 l 426 -17 q 661 64 576 -17 q 745 262 745 144 l 745 949 l 644 949 l 644 262 q 588 135 644 186 q 426 85 532 85 l 409 85 q 246 135 302 85 q 190 262 190 186 m 263 1019 l 570 1019 l 570 1121 l 263 1121 l 263 1019 "},"ū":{"ha":833,"x_min":88,"x_max":745,"o":"m 190 249 l 190 694 l 88 694 l 88 249 q 105 146 88 193 q 157 62 123 100 q 251 4 192 25 q 388 -17 310 -17 l 406 -17 q 533 17 472 -17 q 644 106 594 51 l 644 0 l 745 0 l 745 694 l 644 694 l 644 323 q 624 259 644 298 q 573 180 604 219 q 496 113 541 141 q 406 85 451 85 l 388 85 q 190 249 190 85 m 263 770 l 570 770 l 570 871 l 263 871 l 263 770 "},"Ŭ":{"ha":833,"x_min":88,"x_max":745,"o":"m 190 262 l 190 949 l 88 949 l 88 262 q 174 64 88 144 q 409 -17 259 -17 l 426 -17 q 661 64 576 -17 q 745 262 745 144 l 745 949 l 644 949 l 644 262 q 588 135 644 186 q 426 85 532 85 l 409 85 q 246 135 302 85 q 190 262 190 186 m 416 995 q 525 1020 474 995 q 613 1090 576 1046 l 536 1155 q 416 1097 486 1097 q 298 1154 347 1097 l 221 1089 q 308 1020 258 1045 q 416 995 359 995 "},"ŭ":{"ha":833,"x_min":88,"x_max":745,"o":"m 190 249 l 190 694 l 88 694 l 88 249 q 105 146 88 193 q 157 62 123 100 q 251 4 192 25 q 388 -17 310 -17 l 406 -17 q 533 17 472 -17 q 644 106 594 51 l 644 0 l 745 0 l 745 694 l 644 694 l 644 323 q 624 259 644 298 q 573 180 604 219 q 496 113 541 141 q 406 85 451 85 l 388 85 q 190 249 190 85 m 416 793 q 525 818 474 793 q 613 888 576 844 l 536 953 q 416 895 486 895 q 298 952 347 895 l 221 887 q 308 818 258 843 q 416 793 359 793 "},"Ů":{"ha":833,"x_min":88,"x_max":745,"o":"m 190 240 l 190 871 l 88 871 l 88 240 q 174 57 88 131 q 409 -17 259 -17 l 426 -17 q 661 57 576 -17 q 745 240 745 131 l 745 871 l 644 871 l 644 240 q 588 123 644 169 q 426 77 532 77 l 409 77 q 246 123 302 77 q 190 240 190 169 m 314 915 q 410 875 353 875 q 508 915 467 875 q 549 1012 549 955 q 508 1109 549 1069 q 410 1149 467 1149 q 314 1109 353 1149 q 275 1012 275 1069 q 294 935 275 955 q 314 915 314 915 m 367 1056 q 411 1074 385 1074 q 455 1056 437 1074 q 474 1012 474 1038 q 455 968 474 986 q 411 949 437 949 q 367 968 385 949 q 349 1012 349 986 q 358 1047 349 1038 q 367 1056 367 1056 "},"ů":{"ha":833,"x_min":88,"x_max":745,"o":"m 190 249 l 190 694 l 88 694 l 88 249 q 105 146 88 193 q 157 62 123 100 q 251 4 192 25 q 388 -17 310 -17 l 406 -17 q 533 17 472 -17 q 644 106 594 51 l 644 0 l 745 0 l 745 694 l 644 694 l 644 323 q 624 259 644 298 q 573 180 604 219 q 496 113 541 141 q 406 85 451 85 l 388 85 q 190 249 190 85 m 314 831 q 410 791 353 791 q 508 831 467 791 q 549 928 549 871 q 508 1025 549 985 q 410 1065 467 1065 q 314 1025 353 1065 q 275 928 275 985 q 294 851 275 871 q 314 831 314 831 m 367 972 q 411 991 385 991 q 455 972 437 991 q 474 928 474 954 q 455 884 474 903 q 411 866 437 866 q 367 884 385 866 q 349 928 349 903 q 358 963 349 954 q 367 972 367 972 "},"Ű":{"ha":833,"x_min":88,"x_max":745,"o":"m 190 262 l 190 949 l 88 949 l 88 262 q 174 64 88 144 q 409 -17 259 -17 l 426 -17 q 661 64 576 -17 q 745 262 745 144 l 745 949 l 644 949 l 644 262 q 588 135 644 186 q 426 85 532 85 l 409 85 q 246 135 302 85 q 190 262 190 186 "},"ű":{"ha":833,"x_min":88,"x_max":745,"o":"m 190 249 l 190 694 l 88 694 l 88 249 q 105 146 88 193 q 157 62 123 100 q 251 4 192 25 q 388 -17 310 -17 l 406 -17 q 533 17 472 -17 q 644 106 594 51 l 644 0 l 745 0 l 745 694 l 644 694 l 644 323 q 624 259 644 298 q 573 180 604 219 q 496 113 541 141 q 406 85 451 85 l 388 85 q 190 249 190 85 "},"Ų":{"ha":833,"x_min":88,"x_max":745,"o":"m 190 262 l 190 949 l 88 949 l 88 262 q 174 64 88 144 q 409 -17 259 -17 l 426 -17 q 661 64 576 -17 q 745 262 745 144 l 745 949 l 644 949 l 644 262 q 588 135 644 186 q 426 85 532 85 l 409 85 q 246 135 302 85 q 190 262 190 186 m 484 -260 l 503 -243 l 435 -168 l 417 -183 q 393 -192 406 -192 q 368 -181 378 -192 q 357 -155 357 -170 q 368 -130 357 -140 l 467 -30 l 467 40 l 366 40 l 366 12 l 294 -59 q 256 -155 256 -100 q 296 -253 256 -212 q 393 -294 336 -294 q 484 -260 444 -294 "},"ų":{"ha":833,"x_min":88,"x_max":779,"o":"m 190 249 l 190 694 l 88 694 l 88 249 q 105 146 88 193 q 157 62 123 100 q 251 4 192 25 q 388 -17 310 -17 l 406 -17 q 533 17 472 -17 q 644 106 594 51 l 644 0 l 745 0 l 745 694 l 644 694 l 644 323 q 624 259 644 298 q 573 180 604 219 q 496 113 541 141 q 406 85 451 85 l 388 85 q 190 249 190 85 m 760 -260 l 779 -243 l 711 -168 l 694 -183 q 670 -192 683 -192 q 645 -181 655 -192 q 634 -155 634 -170 q 644 -130 634 -140 l 744 -30 l 744 40 l 642 40 l 642 12 l 571 -59 q 532 -155 532 -100 q 573 -253 532 -212 q 670 -294 613 -294 q 760 -260 720 -294 "},"Ŵ":{"ha":833,"x_min":62,"x_max":772,"o":"m 150 0 l 254 0 l 418 536 l 581 0 l 685 0 l 772 949 l 671 949 l 607 262 l 442 807 l 394 807 l 228 262 l 164 949 l 62 949 l 150 0 m 477 1154 l 360 1154 l 222 1078 l 271 988 l 418 1069 l 566 988 l 615 1078 l 477 1154 "},"ŵ":{"ha":833,"x_min":57,"x_max":778,"o":"m 147 0 l 235 0 l 418 446 l 600 0 l 688 0 l 778 694 l 675 694 l 615 231 l 447 644 l 389 644 l 220 231 l 159 694 l 57 694 l 147 0 m 477 954 l 360 954 l 222 878 l 271 789 l 418 870 l 566 789 l 615 878 l 477 954 "},"Ŷ":{"ha":833,"x_min":69,"x_max":766,"o":"m 418 465 l 182 949 l 69 949 l 367 336 l 367 -17 l 469 -17 l 469 336 l 766 949 l 652 949 l 418 465 m 477 1149 l 360 1149 l 222 1074 l 271 984 l 418 1065 l 566 984 l 615 1074 l 477 1149 "},"ŷ":{"ha":833,"x_min":68,"x_max":772,"o":"m 512 -91 l 772 694 l 665 694 l 500 196 l 205 694 l 87 694 l 457 68 l 416 -58 q 292 -149 385 -149 l 271 -149 q 208 -133 241 -149 q 161 -100 174 -117 l 151 -85 l 68 -145 l 79 -159 q 166 -226 109 -201 q 271 -250 224 -250 l 292 -250 q 429 -209 372 -250 q 512 -91 487 -167 m 490 954 l 373 954 l 235 878 l 283 789 l 431 870 l 579 789 l 628 878 l 490 954 "},"Ÿ":{"ha":833,"x_min":69,"x_max":766,"o":"m 418 465 l 182 949 l 69 949 l 367 336 l 367 -17 l 469 -17 l 469 336 l 766 949 l 652 949 l 418 465 m 325 1134 q 271 1156 302 1156 q 218 1135 241 1156 q 195 1080 195 1113 q 218 1024 195 1047 q 271 1002 240 1002 q 324 1025 302 1002 q 347 1080 347 1048 q 336 1122 347 1111 q 325 1134 325 1134 m 616 1135 q 565 1156 593 1156 q 513 1134 535 1156 q 490 1080 490 1112 q 513 1025 490 1048 q 565 1002 535 1002 q 616 1024 594 1002 q 639 1080 639 1046 q 627 1124 639 1113 q 616 1135 616 1135 "},"Ź":{"ha":833,"x_min":88,"x_max":745,"o":"m 88 848 l 617 848 l 88 95 l 88 0 l 745 0 l 745 102 l 218 102 l 745 854 l 745 949 l 88 949 l 88 848 m 425 938 l 600 1122 l 505 1214 l 330 1029 l 425 938 "},"ź":{"ha":833,"x_min":87,"x_max":744,"o":"m 87 100 l 87 0 l 744 0 l 744 102 l 233 102 l 744 608 l 744 694 l 98 694 l 98 593 l 585 593 l 87 100 m 426 709 l 601 894 l 506 985 l 331 801 l 426 709 "},"Ż":{"ha":833,"x_min":88,"x_max":745,"o":"m 88 848 l 617 848 l 88 95 l 88 0 l 745 0 l 745 102 l 218 102 l 745 854 l 745 949 l 88 949 l 88 848 m 350 1026 q 412 1001 375 1001 q 474 1027 448 1001 q 500 1088 500 1053 q 474 1150 500 1124 q 412 1176 448 1176 q 350 1151 375 1176 q 325 1088 325 1125 q 337 1039 325 1052 q 350 1026 350 1026 "},"ż":{"ha":833,"x_min":87,"x_max":744,"o":"m 87 100 l 87 0 l 744 0 l 744 102 l 233 102 l 744 608 l 744 694 l 98 694 l 98 593 l 585 593 l 87 100 m 351 818 q 412 792 376 792 q 474 818 448 792 q 500 880 500 844 q 474 941 500 916 q 412 967 448 967 q 351 942 376 967 q 326 880 326 916 q 338 830 326 843 q 351 818 351 818 "},"Ž":{"ha":833,"x_min":88,"x_max":745,"o":"m 88 848 l 617 848 l 88 95 l 88 0 l 745 0 l 745 102 l 218 102 l 745 854 l 745 949 l 88 949 l 88 848 m 416 1092 l 268 1173 l 219 1084 l 357 1008 l 474 1008 l 612 1084 l 564 1173 l 416 1092 "},"ž":{"ha":833,"x_min":87,"x_max":744,"o":"m 87 100 l 87 0 l 744 0 l 744 102 l 233 102 l 744 608 l 744 694 l 98 694 l 98 593 l 585 593 l 87 100 m 416 892 l 269 973 l 220 884 l 358 808 l 475 808 l 613 884 l 564 973 l 416 892 "},"ſ":{"ha":833,"x_min":88,"x_max":745,"o":"m 117 535 l 117 527 q 152 427 117 477 q 256 358 186 376 l 582 274 q 621 250 599 269 q 644 204 644 231 l 644 180 q 605 127 644 150 q 518 95 567 104 q 426 85 470 85 l 378 85 q 244 126 299 85 q 190 215 190 168 l 88 215 q 173 54 88 124 q 378 -17 257 -17 l 426 -17 q 493 -13 457 -17 q 575 4 528 -9 q 658 37 622 17 q 720 94 694 57 q 745 180 745 132 l 745 204 q 712 306 745 258 q 607 372 679 353 l 281 456 q 235 486 250 464 q 219 527 219 508 l 219 535 q 229 559 219 547 q 260 583 239 572 q 320 602 281 595 q 409 610 359 610 l 426 610 q 553 584 496 610 q 633 522 610 558 l 719 576 q 596 676 678 641 q 426 711 513 711 l 409 711 q 288 700 340 711 q 203 670 235 688 q 152 627 172 652 q 124 581 132 603 q 117 535 117 558 "},"ƒ":{"ha":833,"x_min":69,"x_max":757,"o":"m 694 612 l 490 612 l 502 763 q 593 865 509 865 q 640 855 625 865 q 673 819 654 846 l 757 876 q 688 945 725 924 q 593 966 650 966 q 459 915 512 966 q 400 771 407 864 l 389 612 l 189 612 l 189 510 l 381 510 l 340 -48 q 311 -129 336 -97 q 242 -160 285 -160 q 194 -143 216 -160 q 168 -105 172 -126 l 69 -125 q 133 -223 82 -186 q 242 -261 184 -261 q 380 -203 326 -261 q 441 -56 435 -145 l 483 510 l 694 510 l 694 612 "},"ȷ":{"ha":833,"x_min":212,"x_max":654,"o":"m 432 -149 q 351 -113 389 -149 q 314 -47 314 -78 l 212 -47 q 279 -185 212 -119 q 432 -250 347 -250 q 587 -190 520 -250 q 654 -47 654 -130 l 654 694 l 313 694 l 313 593 l 552 593 l 552 -47 q 515 -118 552 -87 q 432 -149 477 -149 "},"ˆ":{"ha":833,"x_min":221,"x_max":614,"o":"m 476 1111 l 359 1111 l 221 1035 l 270 945 l 418 1027 l 566 945 l 614 1035 l 476 1111 "},"ˇ":{"ha":833,"x_min":221,"x_max":614,"o":"m 418 1048 l 270 1130 l 221 1040 l 359 964 l 476 964 l 614 1040 l 566 1130 l 418 1048 "},"ˉ":{"ha":833,"x_min":263,"x_max":570,"o":"m 263 992 l 570 992 l 570 1094 l 263 1094 l 263 992 "},"ˋ":{"ha":833,"x_min":302,"x_max":572,"o":"m 572 986 l 397 1171 l 302 1079 l 477 895 l 572 986 "},"˘":{"ha":833,"x_min":221,"x_max":613,"o":"m 416 953 q 525 978 474 953 q 613 1048 576 1004 l 536 1113 q 416 1055 486 1055 q 298 1112 347 1055 l 221 1047 q 308 978 258 1003 q 416 953 359 953 "},"˙":{"ha":833,"x_min":327,"x_max":502,"o":"m 352 960 q 414 935 377 935 q 476 960 450 935 q 502 1022 502 986 q 476 1084 502 1058 q 414 1109 450 1109 q 352 1084 377 1109 q 327 1022 327 1059 q 339 973 327 985 q 352 960 352 960 "},"˚":{"ha":833,"x_min":275,"x_max":549,"o":"m 314 869 q 410 829 353 829 q 508 869 467 829 q 549 966 549 909 q 508 1063 549 1023 q 410 1103 467 1103 q 314 1063 353 1103 q 275 966 275 1023 q 294 889 275 909 q 314 869 314 869 m 367 1010 q 411 1029 385 1029 q 455 1010 437 1029 q 474 966 474 992 q 455 922 474 941 q 411 904 437 904 q 367 922 385 904 q 349 966 349 941 q 358 1001 349 992 q 367 1010 367 1010 "},"˛":{"ha":833,"x_min":303,"x_max":550,"o":"m 531 -252 l 550 -235 l 482 -159 l 465 -174 q 441 -183 454 -183 q 415 -172 426 -183 q 405 -146 405 -161 q 415 -121 405 -131 l 515 -21 l 515 49 l 413 49 l 413 21 l 342 -50 q 303 -146 303 -91 q 343 -244 303 -203 q 441 -285 384 -285 q 531 -252 491 -285 "},"˜":{"ha":833,"x_min":185,"x_max":650,"o":"m 197 1064 l 185 1046 l 271 991 l 282 1008 q 324 1042 304 1042 l 335 1042 q 377 1030 363 1042 l 389 1019 q 437 993 406 1004 q 498 981 468 981 l 510 981 l 532 985 q 587 1008 554 987 q 641 1065 620 1029 l 650 1081 l 562 1133 l 553 1116 q 531 1092 543 1100 q 510 1083 519 1083 l 498 1083 q 474 1088 488 1083 q 457 1095 460 1093 l 444 1107 q 335 1144 402 1144 l 324 1144 q 197 1064 249 1144 "},"˝":{"ha":833,"x_min":117,"x_max":670,"o":"m 495 895 l 670 1079 l 575 1171 l 400 986 l 495 895 m 212 890 l 387 1075 l 292 1166 l 117 982 l 212 890 "},"̀":{"ha":833,"x_min":302,"x_max":572,"o":"m 572 986 l 397 1171 l 302 1079 l 477 895 l 572 986 "},"́":{"ha":833,"x_min":262,"x_max":532,"o":"m 357 895 l 532 1079 l 437 1171 l 262 986 l 357 895 "},"̃":{"ha":833,"x_min":185,"x_max":650,"o":"m 197 1064 l 185 1046 l 271 991 l 282 1008 q 324 1042 304 1042 l 335 1042 q 377 1030 363 1042 l 389 1019 q 437 993 406 1004 q 498 981 468 981 l 510 981 l 532 985 q 587 1008 554 987 q 641 1065 620 1029 l 650 1081 l 562 1133 l 553 1116 q 531 1092 543 1100 q 510 1083 519 1083 l 498 1083 q 474 1088 488 1083 q 457 1095 460 1093 l 444 1107 q 335 1144 402 1144 l 324 1144 q 197 1064 249 1144 "},"̈":{"ha":833,"x_min":214,"x_max":612,"o":"m 365 927 q 343 980 365 958 q 289 1002 321 1002 q 236 981 259 1002 q 214 927 214 960 q 236 871 214 895 q 290 848 259 848 q 342 872 320 848 q 365 927 365 896 m 612 927 q 590 981 612 960 q 538 1002 567 1002 q 486 981 508 1002 q 464 927 464 960 q 486 871 464 895 q 538 848 509 848 q 590 870 568 848 q 612 927 612 893 "},"̉":{"ha":833,"x_min":266,"x_max":607,"o":"m 607 1014 q 553 1107 607 1074 q 430 1140 500 1140 q 266 1093 337 1140 l 321 1028 q 430 1059 368 1059 q 480 1047 456 1059 q 505 1014 505 1036 q 422 971 505 971 l 371 971 l 371 851 l 473 851 l 473 892 q 502 897 487 893 q 536 908 516 900 q 571 929 556 917 q 596 964 586 942 q 607 1014 607 986 "},"̌":{"ha":833,"x_min":221,"x_max":614,"o":"m 418 1048 l 270 1130 l 221 1040 l 359 964 l 476 964 l 614 1040 l 566 1130 l 418 1048 "},"̒":{"ha":833,"x_min":275,"x_max":621,"o":"m 519 -183 q 499 -226 519 -211 q 444 -241 479 -241 q 341 -201 387 -241 l 275 -265 q 444 -330 349 -330 q 529 -315 490 -330 q 594 -267 568 -301 q 621 -183 621 -233 q 490 -43 621 -65 l 493 -2 l 493 12 l 391 12 l 391 2 l 382 -127 l 436 -127 q 519 -183 519 -127 "},"̕":{"ha":833,"x_min":500,"x_max":712,"o":"m 574 797 q 598 751 598 785 q 566 694 598 722 q 500 654 533 667 l 510 617 q 607 645 567 623 q 669 703 647 667 q 702 780 692 738 q 712 875 711 822 q 684 944 712 916 q 612 973 655 973 q 542 944 570 973 q 513 875 513 915 q 530 831 513 851 q 574 797 547 810 "},"̣":{"ha":833,"x_min":338,"x_max":497,"o":"m 361 -241 q 417 -264 384 -264 q 474 -241 450 -264 q 497 -185 497 -218 q 474 -129 497 -152 q 417 -106 450 -106 q 361 -129 384 -106 q 338 -185 338 -152 q 350 -230 338 -218 q 361 -241 361 -241 "},"̦":{"ha":833,"x_min":314,"x_max":526,"o":"m 388 -225 q 412 -271 412 -237 q 380 -328 412 -300 q 314 -368 347 -355 l 324 -405 q 421 -377 381 -399 q 484 -319 461 -355 q 516 -242 506 -284 q 526 -147 526 -200 q 498 -78 526 -106 q 427 -49 469 -49 q 356 -78 384 -49 q 328 -147 328 -107 q 344 -191 328 -171 q 388 -225 361 -212 "},"΄":{"ha":833,"x_min":262,"x_max":532,"o":"m 357 895 l 532 1079 l 437 1171 l 262 986 l 357 895 "},"Α":{"ha":833,"x_min":67,"x_max":768,"o":"m 262 271 l 418 754 l 574 271 l 262 271 m 229 169 l 606 169 l 661 0 l 768 0 l 456 966 l 379 966 l 67 0 l 174 0 l 229 169 "},"Β":{"ha":833,"x_min":88,"x_max":745,"o":"m 426 0 q 745 229 745 0 l 745 329 q 633 542 745 479 q 696 694 696 593 l 696 743 q 683 827 696 791 q 643 887 669 863 q 577 924 618 910 q 489 944 537 939 q 377 949 441 949 l 88 949 l 88 0 l 426 0 m 644 229 q 596 134 644 166 q 426 102 548 102 l 190 102 l 190 483 l 426 483 q 516 475 478 483 q 579 455 555 468 q 618 423 604 443 q 638 380 633 403 q 644 329 644 358 l 644 229 m 377 585 l 190 585 l 190 848 l 377 848 q 517 836 470 848 q 580 804 565 825 q 595 743 595 783 l 595 694 q 591 658 595 673 q 574 628 587 643 q 538 604 561 613 q 474 590 515 595 q 377 585 434 585 "},"Γ":{"ha":833,"x_min":88,"x_max":745,"o":"m 88 0 l 190 0 l 190 848 l 745 848 l 745 949 l 88 949 l 88 0 "},"Δ":{"ha":833,"x_min":70,"x_max":764,"o":"m 625 102 l 208 102 l 418 764 l 625 102 m 70 0 l 764 0 l 460 966 l 375 966 l 70 0 "},"Ε":{"ha":833,"x_min":88,"x_max":745,"o":"m 190 483 l 653 483 l 653 585 l 190 585 l 190 848 l 745 848 l 745 949 l 88 949 l 88 0 l 745 0 l 745 102 l 190 102 l 190 483 "},"Ζ":{"ha":833,"x_min":88,"x_max":745,"o":"m 88 848 l 617 848 l 88 95 l 88 0 l 745 0 l 745 102 l 218 102 l 745 854 l 745 949 l 88 949 l 88 848 "},"Η":{"ha":833,"x_min":88,"x_max":745,"o":"m 190 0 l 190 446 l 644 446 l 644 0 l 745 0 l 745 949 l 644 949 l 644 547 l 190 547 l 190 949 l 88 949 l 88 0 l 190 0 "},"Θ":{"ha":833,"x_min":88,"x_max":745,"o":"m 745 519 q 656 842 745 717 q 424 966 568 966 l 412 966 q 177 844 265 966 q 88 517 88 722 l 88 472 q 98 338 88 404 q 132 207 108 272 q 192 92 156 141 q 285 13 228 43 q 412 -17 342 -17 l 424 -17 q 657 115 570 -17 q 745 472 745 247 l 745 519 m 424 865 q 520 836 477 865 q 589 759 563 808 q 630 649 616 711 q 644 519 644 588 l 644 472 q 638 372 644 422 q 616 270 632 323 q 577 176 601 216 q 514 111 553 136 q 424 85 474 85 l 412 85 q 321 111 361 85 q 257 177 281 137 q 217 271 233 218 q 196 373 201 324 q 190 472 190 422 l 190 517 q 196 607 190 563 q 217 700 201 652 q 257 783 233 747 q 321 842 281 819 q 412 865 361 865 l 424 865 m 500 525 l 336 525 l 336 423 l 500 423 l 500 525 "},"Ι":{"ha":833,"x_min":136,"x_max":698,"o":"m 698 949 l 136 949 l 136 848 l 367 848 l 367 102 l 136 102 l 136 0 l 698 0 l 698 102 l 469 102 l 469 848 l 698 848 l 698 949 "},"Κ":{"ha":833,"x_min":87,"x_max":782,"o":"m 330 467 l 658 0 l 782 0 l 400 545 l 766 949 l 629 949 l 189 463 l 189 949 l 87 949 l 87 0 l 189 0 l 189 311 l 330 467 "},"Λ":{"ha":833,"x_min":67,"x_max":768,"o":"m 174 0 l 418 766 l 661 0 l 768 0 l 460 966 l 375 966 l 67 0 l 174 0 "},"Μ":{"ha":833,"x_min":59,"x_max":774,"o":"m 59 0 l 161 0 l 224 691 l 394 143 l 441 143 l 610 690 l 673 0 l 774 0 l 688 949 l 583 949 l 418 411 l 250 949 l 146 949 l 59 0 "},"Ν":{"ha":833,"x_min":88,"x_max":745,"o":"m 190 0 l 190 740 l 656 0 l 745 0 l 745 949 l 644 949 l 644 211 l 178 949 l 88 949 l 88 0 l 190 0 "},"Ξ":{"ha":833,"x_min":88,"x_max":745,"o":"m 190 102 l 190 229 l 88 229 l 88 0 l 745 0 l 745 229 l 644 229 l 644 102 l 190 102 m 546 526 l 290 526 l 290 424 l 546 424 l 546 526 m 88 711 l 190 711 l 190 848 l 644 848 l 644 711 l 745 711 l 745 949 l 88 949 l 88 711 "},"Ο":{"ha":833,"x_min":88,"x_max":745,"o":"m 745 519 q 742 613 745 569 q 729 703 739 656 q 705 787 720 750 q 665 859 690 825 q 607 916 640 893 q 527 953 574 939 q 424 966 481 966 l 412 966 q 274 940 333 966 q 181 873 216 914 q 124 770 146 831 q 96 650 103 709 q 88 517 88 590 l 88 472 q 103 286 88 368 q 146 148 119 204 q 214 54 174 91 q 304 0 255 17 q 412 -17 353 -17 l 424 -17 q 745 472 745 -16 l 745 519 m 424 865 q 517 849 479 865 q 586 794 556 833 q 629 688 615 756 q 644 519 644 619 l 644 472 q 629 290 644 366 q 584 170 614 214 q 515 105 555 125 q 424 85 476 85 l 412 85 q 294 121 342 85 q 218 244 246 157 q 190 472 190 332 l 190 517 q 205 686 190 618 q 250 793 220 755 q 318 848 279 832 q 412 865 357 865 l 424 865 "},"Π":{"ha":833,"x_min":88,"x_max":745,"o":"m 88 0 l 190 0 l 190 848 l 644 848 l 644 0 l 745 0 l 745 949 l 88 949 l 88 0 "},"Ρ":{"ha":833,"x_min":88,"x_max":745,"o":"m 190 423 l 426 423 q 668 491 591 423 q 745 680 745 558 l 745 721 q 730 815 745 774 q 688 881 715 855 q 620 922 661 906 q 532 943 578 937 q 426 949 486 949 l 88 949 l 88 0 l 190 0 l 190 423 m 426 525 l 190 525 l 190 848 l 426 848 q 522 842 482 848 q 585 826 562 836 q 622 800 609 817 q 640 765 635 783 q 644 721 644 747 l 644 680 q 634 616 644 642 q 601 568 625 589 q 534 536 577 547 q 426 525 490 525 "},"Σ":{"ha":833,"x_min":88,"x_max":745,"o":"m 88 949 l 88 846 l 375 496 l 88 90 l 88 -17 l 745 -17 l 745 85 l 209 85 l 503 500 l 218 848 l 745 848 l 745 949 l 88 949 "},"Τ":{"ha":833,"x_min":88,"x_max":745,"o":"m 745 949 l 88 949 l 88 848 l 367 848 l 367 0 l 469 0 l 469 848 l 745 848 l 745 949 "},"Υ":{"ha":833,"x_min":69,"x_max":766,"o":"m 418 465 l 182 949 l 69 949 l 367 336 l 367 -17 l 469 -17 l 469 336 l 766 949 l 652 949 l 418 465 "},"Φ":{"ha":833,"x_min":88,"x_max":745,"o":"m 745 493 l 745 532 q 739 641 745 590 q 715 740 732 691 q 672 823 699 789 q 603 879 646 858 q 506 900 561 900 l 469 900 l 469 966 l 367 966 l 367 900 l 329 900 q 231 879 274 900 q 162 823 189 858 q 119 740 136 789 q 95 640 102 691 q 88 531 88 589 l 88 493 q 93 417 88 457 q 108 330 98 376 q 138 242 119 283 q 182 166 157 200 q 246 111 208 132 q 330 91 284 91 l 367 91 l 367 -17 l 469 -17 l 469 91 l 506 91 q 603 115 560 91 q 672 179 646 140 q 715 272 698 218 q 739 379 732 326 q 745 493 745 433 m 644 532 l 644 493 q 601 278 644 363 q 506 193 557 193 l 469 193 l 469 798 l 506 798 q 611 734 579 798 q 644 532 644 671 m 190 493 l 190 531 q 222 734 190 670 q 329 798 255 798 l 367 798 l 367 193 l 330 193 q 265 234 298 193 q 211 346 233 275 q 190 493 190 417 "},"Χ":{"ha":833,"x_min":73,"x_max":762,"o":"m 418 574 l 192 949 l 73 949 l 358 475 l 73 0 l 192 0 l 418 376 l 643 0 l 762 0 l 477 475 l 762 949 l 643 949 l 418 574 "},"Ψ":{"ha":833,"x_min":68,"x_max":766,"o":"m 469 -16 l 469 296 l 532 296 q 700 366 633 296 q 766 528 766 436 l 766 916 l 665 916 l 665 528 q 627 438 665 477 q 532 398 589 398 l 469 398 l 469 966 l 367 966 l 367 398 l 303 398 q 211 437 251 398 q 170 528 170 476 l 170 916 l 68 916 l 68 528 q 139 365 68 433 q 303 296 210 296 l 367 296 l 367 -16 l 469 -16 "},"Ω":{"ha":833,"x_min":87,"x_max":745,"o":"m 250 102 l 87 102 l 87 0 l 352 0 l 352 254 l 319 267 q 224 367 259 289 q 189 547 189 446 l 189 585 q 195 656 189 621 q 217 730 201 692 q 256 798 233 769 q 320 846 280 827 q 412 865 361 865 l 424 865 q 514 846 474 865 q 577 798 553 827 q 616 730 601 768 q 638 656 632 691 q 644 586 644 621 l 644 547 q 609 367 644 448 q 517 268 574 286 l 481 256 l 481 0 l 745 0 l 745 102 l 583 102 l 583 185 q 661 253 627 209 q 711 349 694 297 q 737 451 729 401 q 745 547 745 500 l 745 586 q 733 696 745 642 q 696 800 722 750 q 634 886 671 849 q 543 945 597 923 q 424 967 488 967 l 412 967 q 237 916 312 967 q 125 778 163 864 q 87 585 87 692 l 87 547 q 96 449 87 498 q 122 349 104 399 q 173 255 140 298 q 250 186 205 212 l 250 102 "},"Ϊ":{"ha":833,"x_min":136,"x_max":698,"o":"m 698 949 l 136 949 l 136 848 l 367 848 l 367 102 l 136 102 l 136 0 l 698 0 l 698 102 l 469 102 l 469 848 l 698 848 l 698 949 m 325 1150 q 271 1173 302 1173 q 218 1151 241 1173 q 195 1096 195 1129 q 218 1041 195 1063 q 271 1018 240 1018 q 324 1041 302 1018 q 347 1096 347 1065 q 336 1138 347 1127 q 325 1150 325 1150 m 616 1151 q 565 1173 593 1173 q 513 1151 535 1173 q 490 1096 490 1128 q 513 1041 490 1064 q 565 1018 535 1018 q 616 1040 594 1018 q 639 1096 639 1063 q 627 1140 639 1129 q 616 1151 616 1151 "},"Ϋ":{"ha":833,"x_min":69,"x_max":766,"o":"m 418 465 l 182 949 l 69 949 l 367 336 l 367 -17 l 469 -17 l 469 336 l 766 949 l 652 949 l 418 465 m 325 1132 q 271 1155 302 1155 q 218 1133 241 1155 q 195 1078 195 1112 q 218 1023 195 1046 q 271 1000 240 1000 q 324 1024 302 1000 q 347 1078 347 1047 q 336 1121 347 1109 q 325 1132 325 1132 m 616 1133 q 565 1155 593 1155 q 513 1133 535 1155 q 490 1078 490 1111 q 513 1023 490 1046 q 565 1000 535 1000 q 616 1023 594 1000 q 639 1078 639 1045 q 627 1122 639 1112 q 616 1133 616 1133 "},"ά":{"ha":833,"x_min":88,"x_max":762,"o":"m 524 348 l 460 182 q 411 105 438 125 q 349 85 383 85 l 336 85 q 236 157 282 85 q 190 336 190 229 l 190 359 q 236 537 190 465 q 336 610 282 610 l 349 610 q 418 588 396 610 q 460 512 439 566 l 524 348 m 555 145 l 579 208 l 667 -17 l 762 18 l 633 348 l 760 676 l 665 713 l 578 488 l 555 549 q 525 610 541 585 q 486 661 510 636 q 428 699 463 686 q 349 711 393 711 l 336 711 q 211 663 268 711 q 121 534 153 615 q 88 359 88 453 l 88 336 q 120 161 88 241 q 210 32 152 80 q 336 -17 267 -17 l 349 -17 q 555 145 492 -17 m 326 709 l 500 894 l 406 985 l 231 801 l 326 709 "},"έ":{"ha":833,"x_min":88,"x_max":703,"o":"m 375 610 l 447 610 q 562 595 512 610 q 632 560 611 580 l 703 633 q 596 691 665 670 q 447 711 528 711 l 375 711 q 305 709 336 711 q 239 699 273 706 q 179 678 205 692 q 132 643 153 664 q 99 591 111 623 q 88 518 88 559 q 108 433 88 475 q 173 360 127 391 q 109 291 130 331 q 88 211 88 250 l 88 199 q 94 143 88 170 q 117 86 99 117 q 165 34 136 56 q 249 -2 195 12 q 375 -17 303 -17 l 447 -17 q 699 66 604 -17 l 632 143 q 557 100 600 115 q 447 85 515 85 l 375 85 q 291 92 326 85 q 237 110 256 99 q 207 136 218 120 q 193 166 196 153 q 190 199 190 180 l 190 211 q 235 279 190 248 q 378 311 281 311 l 577 311 l 577 412 l 378 412 q 310 417 341 412 q 250 433 279 422 q 206 466 222 444 q 190 518 190 488 q 196 556 190 541 q 222 584 203 571 q 279 604 241 597 q 375 610 317 610 m 360 718 l 535 902 l 440 994 l 265 809 l 360 718 "},"ή":{"ha":833,"x_min":88,"x_max":745,"o":"m 190 0 l 190 405 q 207 464 190 429 q 251 531 223 498 q 321 587 278 564 q 409 610 363 610 l 426 610 q 534 601 490 610 q 601 576 577 593 q 634 538 625 559 q 644 488 644 517 l 644 -261 l 745 -261 l 745 488 q 426 711 745 711 l 409 711 q 190 614 287 711 l 190 694 l 88 694 l 88 0 l 190 0 m 393 716 l 568 901 l 473 992 l 298 808 l 393 716 "},"ί":{"ha":833,"x_min":139,"x_max":694,"o":"m 300 709 l 475 894 l 380 985 l 205 801 l 300 709 "},"ΰ":{"ha":833,"x_min":88,"x_max":745,"o":"m 361 906 l 536 1090 l 441 1182 l 266 998 l 361 906 "},"α":{"ha":833,"x_min":88,"x_max":762,"o":"m 524 348 l 460 182 q 411 105 438 125 q 349 85 383 85 l 336 85 q 236 157 282 85 q 190 336 190 229 l 190 359 q 236 537 190 465 q 336 610 282 610 l 349 610 q 418 588 396 610 q 460 512 439 566 l 524 348 m 555 145 l 579 208 l 667 -17 l 762 18 l 633 348 l 760 676 l 665 713 l 578 488 l 555 549 q 525 610 541 585 q 486 661 510 636 q 428 699 463 686 q 349 711 393 711 l 336 711 q 211 663 268 711 q 121 534 153 615 q 88 359 88 453 l 88 336 q 120 161 88 241 q 210 32 152 80 q 336 -17 267 -17 l 349 -17 q 555 145 492 -17 "},"β":{"ha":833,"x_min":88,"x_max":745,"o":"m 190 230 l 190 427 q 247 556 190 503 q 410 610 304 610 l 427 610 q 611 522 611 610 l 611 513 q 593 469 611 487 q 546 441 576 450 q 486 427 517 431 q 420 423 455 423 l 319 423 l 319 321 l 453 321 q 541 314 504 321 q 597 297 578 307 q 627 273 616 288 q 641 247 638 258 q 644 220 644 235 l 644 203 q 625 145 644 169 q 575 108 607 121 q 511 90 544 96 q 441 85 478 85 l 404 85 q 244 130 299 85 q 190 230 190 176 m 88 427 l 88 -218 l 190 -218 l 190 44 q 404 -17 276 -17 l 441 -17 q 564 -3 509 -17 q 651 33 618 11 q 706 85 684 55 q 737 143 728 115 q 745 203 745 172 l 745 220 q 650 384 745 332 q 713 513 713 435 l 713 522 q 707 571 713 548 q 682 621 701 595 q 632 667 663 648 q 549 699 602 686 q 427 711 496 711 l 410 711 q 272 688 334 711 q 171 625 210 665 q 110 534 131 585 q 88 427 88 483 "},"γ":{"ha":833,"x_min":83,"x_max":750,"o":"m 366 24 l 366 -261 l 468 -261 l 468 24 l 750 694 l 640 694 l 417 165 l 194 694 l 83 694 l 366 24 "},"δ":{"ha":833,"x_min":88,"x_max":745,"o":"m 339 705 q 154 592 220 683 q 88 378 88 501 l 88 323 q 113 196 88 258 q 180 87 138 134 q 282 12 222 40 q 409 -17 342 -17 l 426 -17 q 564 11 502 -17 q 664 86 625 39 q 724 194 703 134 q 745 323 745 255 l 745 378 q 705 551 745 473 q 592 670 665 628 l 300 848 l 694 848 l 694 949 l 106 949 l 106 848 l 339 705 m 190 378 q 213 493 190 441 q 286 577 235 544 q 409 610 336 610 l 426 610 q 549 577 498 610 q 621 493 599 544 q 644 378 644 442 l 644 323 q 630 232 644 275 q 591 157 617 190 q 523 104 565 123 q 426 85 480 85 l 409 85 q 255 156 320 85 q 190 323 190 227 l 190 378 "},"ε":{"ha":833,"x_min":88,"x_max":703,"o":"m 375 610 l 447 610 q 562 595 512 610 q 632 560 611 580 l 703 633 q 596 691 665 670 q 447 711 528 711 l 375 711 q 305 709 336 711 q 239 699 273 706 q 179 678 205 692 q 132 643 153 664 q 99 591 111 623 q 88 518 88 559 q 108 433 88 475 q 173 360 127 391 q 109 291 130 331 q 88 211 88 250 l 88 199 q 94 143 88 170 q 117 86 99 117 q 165 34 136 56 q 249 -2 195 12 q 375 -17 303 -17 l 447 -17 q 699 66 604 -17 l 632 143 q 557 100 600 115 q 447 85 515 85 l 375 85 q 291 92 326 85 q 237 110 256 99 q 207 136 218 120 q 193 166 196 153 q 190 199 190 180 l 190 211 q 235 279 190 248 q 378 311 281 311 l 577 311 l 577 412 l 378 412 q 310 417 341 412 q 250 433 279 422 q 206 466 222 444 q 190 518 190 488 q 196 556 190 541 q 222 584 203 571 q 279 604 241 597 q 375 610 317 610 "},"ζ":{"ha":833,"x_min":88,"x_max":745,"o":"m 644 -64 l 644 -79 q 625 -117 644 -102 q 579 -138 607 -132 q 533 -146 551 -144 q 500 -149 515 -149 l 418 -149 l 418 -250 l 500 -250 q 620 -232 566 -250 q 710 -173 675 -213 q 745 -79 745 -134 l 745 -64 q 734 -9 745 -33 q 707 30 723 15 q 665 57 691 45 q 619 73 640 68 q 569 81 598 78 q 524 84 539 84 q 487 85 509 85 l 375 85 q 280 95 317 85 q 223 124 242 104 q 197 169 204 144 q 190 229 190 193 l 190 242 q 232 322 190 277 q 332 389 273 368 l 532 462 q 745 600 667 511 l 745 694 l 673 694 q 384 739 465 694 l 353 756 l 304 667 l 335 650 q 577 595 418 603 q 496 557 536 571 l 296 484 q 150 384 212 454 q 88 242 88 313 l 88 229 q 104 128 88 172 q 145 57 119 84 q 209 13 171 30 q 287 -11 246 -4 q 375 -17 327 -17 l 487 -17 q 610 -29 576 -17 q 644 -64 644 -41 "},"η":{"ha":833,"x_min":88,"x_max":745,"o":"m 190 0 l 190 405 q 207 464 190 429 q 251 531 223 498 q 321 587 278 564 q 409 610 363 610 l 426 610 q 534 601 490 610 q 601 576 577 593 q 634 538 625 559 q 644 488 644 517 l 644 -261 l 745 -261 l 745 488 q 426 711 745 711 l 409 711 q 190 614 287 711 l 190 694 l 88 694 l 88 0 l 190 0 "},"θ":{"ha":833,"x_min":88,"x_max":745,"o":"m 643 296 q 584 142 637 199 q 432 85 531 85 l 397 85 q 251 143 304 85 q 191 296 197 201 l 643 296 m 745 381 q 662 619 745 528 q 435 711 578 711 l 396 711 q 174 618 259 711 q 88 380 88 525 l 88 319 q 173 76 88 170 q 397 -17 258 -17 l 432 -17 q 662 76 578 -17 q 745 319 745 170 l 745 381 m 435 609 q 586 551 532 609 q 643 398 639 494 l 191 398 q 251 551 196 493 q 396 609 305 609 l 435 609 "},"ι":{"ha":833,"x_min":139,"x_max":694,"o":"m 200 694 l 200 593 l 367 593 l 367 102 l 139 102 l 139 0 l 694 0 l 694 102 l 469 102 l 469 694 l 200 694 "},"κ":{"ha":833,"x_min":88,"x_max":771,"o":"m 357 239 l 620 0 l 771 0 l 427 313 l 731 630 l 658 701 l 190 212 l 190 694 l 88 694 l 88 0 l 190 0 l 190 65 l 357 239 "},"λ":{"ha":833,"x_min":85,"x_max":751,"o":"m 751 0 l 353 956 l 243 956 l 363 661 l 85 0 l 195 0 l 418 530 l 641 0 l 751 0 "},"μ":{"ha":833,"x_min":53,"x_max":763,"o":"m 687 -61 l 763 7 q 745 67 745 24 l 745 694 l 644 694 l 644 269 q 627 214 644 245 q 584 154 611 182 q 514 105 556 125 q 426 85 471 85 l 409 85 q 247 138 303 85 q 190 269 190 192 l 190 694 l 88 694 l 88 -17 q 82 -129 88 -92 q 53 -214 77 -165 l 145 -258 q 182 -149 174 -197 q 190 -17 190 -101 l 190 53 q 409 -17 277 -17 l 426 -17 q 644 71 547 -17 l 644 67 q 687 -61 644 -14 "},"ν":{"ha":833,"x_min":81,"x_max":755,"o":"m 384 -17 l 452 -17 l 755 694 l 644 694 l 418 163 l 191 694 l 81 694 l 384 -17 "},"ξ":{"ha":833,"x_min":89,"x_max":745,"o":"m 644 -64 l 644 -79 q 625 -117 644 -102 q 579 -138 607 -132 q 533 -146 551 -144 q 500 -149 515 -149 l 418 -149 l 418 -250 l 500 -250 q 584 -242 544 -250 q 662 -215 625 -233 q 723 -161 700 -196 q 745 -79 745 -126 l 745 -64 q 734 -9 745 -33 q 707 30 723 15 q 665 57 690 45 q 618 73 639 68 q 568 81 597 78 q 524 84 538 84 q 487 85 509 85 l 375 85 q 290 91 326 85 q 236 105 255 97 q 206 128 217 114 q 193 154 195 142 q 190 183 190 166 l 190 195 q 251 269 190 241 q 412 297 312 297 l 604 297 l 604 399 l 412 399 q 252 429 314 399 q 191 495 191 458 l 191 513 q 331 605 191 580 l 434 624 q 579 673 528 641 l 594 682 l 594 779 l 555 785 q 430 817 482 795 q 366 857 377 839 l 352 878 l 267 823 l 280 802 q 322 761 291 785 q 398 721 353 736 l 312 705 q 241 687 275 699 q 170 653 207 675 q 111 595 134 631 q 89 513 89 559 l 89 495 q 92 459 89 474 q 104 426 95 444 q 134 389 113 408 q 186 350 154 370 q 112 278 135 320 q 89 195 89 237 l 89 183 q 104 101 89 136 q 145 43 119 66 q 209 7 171 21 q 286 -12 246 -6 q 375 -17 326 -17 l 487 -17 q 609 -29 575 -17 q 644 -64 644 -41 "},"ο":{"ha":833,"x_min":88,"x_max":745,"o":"m 745 381 q 666 621 745 531 q 435 711 587 711 l 396 711 q 167 620 245 711 q 88 380 88 530 l 88 326 q 107 192 88 253 q 162 83 125 130 q 259 9 199 36 q 397 -17 319 -17 l 432 -17 q 572 9 511 -17 q 670 81 633 35 q 726 190 707 128 q 745 326 745 251 l 745 381 m 435 609 q 644 381 644 609 l 644 326 q 432 85 644 85 l 397 85 q 312 99 349 85 q 253 135 275 113 q 215 190 230 158 q 195 255 201 222 q 190 326 190 288 l 190 380 q 396 609 190 609 l 435 609 "},"π":{"ha":833,"x_min":49,"x_max":785,"o":"m 250 694 q 49 652 138 694 l 49 535 q 145 580 91 565 l 145 155 q 124 74 145 115 q 68 0 103 32 l 199 0 q 247 155 247 77 l 247 593 l 571 593 l 571 155 q 630 0 571 79 l 769 0 q 700 78 728 35 q 673 155 673 120 l 673 600 q 785 632 736 610 l 785 749 q 585 694 711 694 l 250 694 "},"ρ":{"ha":833,"x_min":88,"x_max":745,"o":"m 644 310 q 589 149 644 212 q 426 85 534 85 l 409 85 q 245 148 300 85 q 190 310 190 212 l 190 405 q 245 557 190 504 q 409 610 301 610 l 426 610 q 582 553 519 610 q 644 405 644 496 l 644 310 m 426 -17 q 600 27 526 -17 q 709 145 673 72 q 745 310 745 218 l 745 405 q 653 625 745 539 q 426 711 562 711 l 409 711 q 171 627 254 711 q 88 405 88 542 l 88 -261 l 190 -261 l 190 60 q 409 -17 276 -17 l 426 -17 "},"ς":{"ha":833,"x_min":88,"x_max":745,"o":"m 644 -64 l 644 -79 q 625 -117 644 -102 q 579 -138 607 -132 q 533 -146 551 -144 q 500 -149 515 -149 l 418 -149 l 418 -250 l 500 -250 q 676 -203 608 -250 q 745 -79 745 -155 l 745 -64 q 734 -9 745 -33 q 707 30 723 15 q 665 57 691 45 q 619 73 640 68 q 569 81 598 78 q 524 84 539 84 q 487 85 509 85 l 375 85 q 240 148 291 85 q 190 317 190 210 l 190 385 q 210 466 190 426 q 264 538 229 506 q 351 589 298 570 q 463 609 403 609 l 510 609 q 579 595 537 609 q 644 568 621 582 l 685 542 l 741 627 l 701 653 q 613 692 671 673 q 510 711 556 711 l 463 711 q 314 684 384 711 q 194 612 243 657 q 117 508 145 568 q 88 385 88 449 l 88 317 q 169 75 88 167 q 375 -17 250 -17 l 487 -17 q 610 -29 576 -17 q 644 -64 644 -41 "},"σ":{"ha":833,"x_min":88,"x_max":779,"o":"m 745 381 q 688 582 745 497 l 779 582 l 779 684 l 568 683 q 433 711 506 711 l 395 711 q 173 618 258 711 q 88 380 88 526 l 88 333 q 174 83 88 183 q 396 -17 260 -17 l 431 -17 q 596 30 524 -17 q 707 156 668 77 q 745 332 745 235 l 745 381 m 433 609 q 587 546 530 609 q 644 381 644 482 l 644 332 q 585 155 644 226 q 431 85 527 85 l 396 85 q 245 156 301 85 q 190 333 190 228 l 190 380 q 244 546 190 482 q 395 609 299 609 l 433 609 "},"τ":{"ha":833,"x_min":88,"x_max":745,"o":"m 283 694 q 88 632 196 694 l 88 511 q 283 593 200 593 l 367 593 l 367 243 q 318 99 367 172 q 210 -17 270 26 l 359 -17 q 439 109 409 41 q 469 243 469 177 l 469 593 l 545 593 q 745 669 633 593 l 745 796 q 641 724 694 753 q 545 694 587 694 l 283 694 "},"υ":{"ha":833,"x_min":88,"x_max":745,"o":"m 454 712 l 367 712 l 367 610 l 454 610 q 532 597 498 610 q 586 562 566 584 q 620 510 607 541 q 638 448 633 479 q 644 381 644 417 l 644 322 q 582 152 644 220 q 428 85 521 85 l 407 85 q 318 100 357 85 q 255 141 279 116 q 217 201 232 165 q 196 272 201 236 q 190 348 190 307 l 190 694 l 88 694 l 88 348 q 99 238 88 290 q 134 139 110 186 q 195 57 159 92 q 285 3 231 23 q 407 -17 340 -17 l 428 -17 q 591 28 518 -17 q 705 151 664 73 q 745 322 745 229 l 745 381 q 728 510 745 451 q 676 614 711 568 q 585 686 642 660 q 454 712 528 712 "},"φ":{"ha":833,"x_min":88,"x_max":745,"o":"m 529 610 l 546 610 q 590 586 570 610 q 621 525 610 562 q 638 450 632 488 q 644 376 644 411 l 644 342 q 639 273 644 305 q 622 207 634 240 q 590 149 609 174 q 540 107 571 124 q 469 86 509 90 l 469 498 q 487 585 469 559 q 529 610 505 610 m 367 498 l 367 86 q 190 339 190 102 l 190 660 l 88 660 l 88 339 q 103 211 88 270 q 149 101 118 151 q 236 19 180 50 q 367 -16 292 -12 l 367 -261 l 469 -261 l 469 -16 q 595 20 541 -12 q 682 102 650 52 q 729 213 713 153 q 745 342 745 273 l 745 376 q 744 419 745 397 q 738 476 743 442 q 724 541 732 510 q 701 603 716 571 q 665 659 686 635 q 614 696 645 682 q 546 711 583 711 l 529 711 q 487 706 508 711 q 444 685 466 701 q 405 647 422 670 q 378 585 389 624 q 367 498 367 547 "},"χ":{"ha":833,"x_min":64,"x_max":779,"o":"m 467 203 l 750 694 l 633 694 l 422 329 l 397 397 q 323 552 370 473 q 227 678 275 632 l 211 694 l 64 694 l 158 604 q 234 504 192 572 q 301 363 275 436 l 355 214 l 79 -261 l 197 -261 l 400 88 q 611 -261 494 -172 l 779 -261 l 666 -176 q 581 -64 628 -146 q 496 123 534 18 l 467 203 "},"ψ":{"ha":833,"x_min":88,"x_max":745,"o":"m 745 348 l 745 660 l 644 660 l 644 348 q 623 230 644 292 q 567 127 602 169 q 496 85 532 85 l 469 85 l 469 711 l 367 711 l 367 85 l 337 85 q 267 126 302 85 q 211 229 232 168 q 190 348 190 290 l 190 660 l 88 660 l 88 348 q 106 228 88 291 q 154 110 123 165 q 234 19 185 55 q 337 -17 282 -17 l 367 -17 l 367 -261 l 469 -261 l 469 -17 l 496 -17 q 581 6 540 -17 q 650 68 621 30 q 702 155 680 106 q 734 253 724 203 q 745 348 745 302 "},"ω":{"ha":833,"x_min":88,"x_max":745,"o":"m 88 498 l 88 228 q 105 114 88 163 q 150 37 123 64 q 207 -3 178 10 q 266 -17 237 -17 l 281 -17 q 419 37 369 -17 q 547 -17 469 -17 l 565 -17 q 630 -3 600 -17 q 688 38 661 10 q 730 115 714 66 q 745 229 745 164 l 745 498 q 731 602 745 546 q 684 694 718 657 l 545 694 l 606 629 q 632 576 621 613 q 644 498 644 539 l 644 229 q 643 211 644 219 q 641 183 643 202 q 634 149 639 164 q 621 118 629 134 q 598 94 612 102 q 565 85 584 85 l 547 85 q 507 95 524 85 q 483 121 491 104 q 472 153 475 137 q 469 186 469 169 l 469 496 l 367 496 l 367 186 q 346 109 367 133 q 281 85 326 85 l 266 85 q 215 124 239 85 q 190 228 190 163 l 190 498 q 203 572 190 531 q 229 629 216 614 l 282 694 l 151 694 q 106 602 123 661 q 88 498 88 543 "},"ϊ":{"ha":833,"x_min":139,"x_max":694,"o":"m 200 694 l 200 593 l 367 593 l 367 102 l 139 102 l 139 0 l 694 0 l 694 102 l 469 102 l 469 694 l 200 694 m 325 904 q 271 927 302 927 q 218 905 241 927 q 195 850 195 884 q 218 795 195 818 q 271 772 240 772 q 324 796 302 772 q 347 850 347 819 q 336 893 347 882 q 325 904 325 904 m 616 905 q 565 927 593 927 q 513 905 535 927 q 490 850 490 883 q 513 795 490 819 q 565 772 535 772 q 616 795 594 772 q 639 850 639 817 q 627 895 639 884 q 616 905 616 905 "},"ϋ":{"ha":833,"x_min":88,"x_max":745,"o":"m 454 712 l 367 712 l 367 610 l 454 610 q 532 597 498 610 q 586 562 566 584 q 620 510 607 541 q 638 448 633 479 q 644 381 644 417 l 644 322 q 582 152 644 220 q 428 85 521 85 l 407 85 q 318 100 357 85 q 255 141 279 116 q 217 201 232 165 q 196 272 201 236 q 190 348 190 307 l 190 694 l 88 694 l 88 348 q 99 238 88 290 q 134 139 110 186 q 195 57 159 92 q 285 3 231 23 q 407 -17 340 -17 l 428 -17 q 591 28 518 -17 q 705 151 664 73 q 745 322 745 229 l 745 381 q 728 510 745 451 q 676 614 711 568 q 585 686 642 660 q 454 712 528 712 m 256 904 q 202 927 234 927 q 150 905 172 927 q 127 850 127 884 q 149 795 127 818 q 203 772 172 772 q 256 796 233 772 q 278 850 278 819 q 267 893 278 882 q 256 904 256 904 m 548 905 q 496 927 525 927 q 444 905 467 927 q 422 850 422 883 q 444 795 422 819 q 496 772 467 772 q 548 795 526 772 q 570 850 570 817 q 559 895 570 884 q 548 905 548 905 "},"ό":{"ha":833,"x_min":88,"x_max":745,"o":"m 745 381 q 666 621 745 531 q 435 711 587 711 l 396 711 q 167 620 245 711 q 88 380 88 530 l 88 326 q 107 192 88 253 q 162 83 125 130 q 259 9 199 36 q 397 -17 319 -17 l 432 -17 q 572 9 511 -17 q 670 81 633 35 q 726 190 707 128 q 745 326 745 251 l 745 381 m 435 609 q 644 381 644 609 l 644 326 q 432 85 644 85 l 397 85 q 312 99 349 85 q 253 135 275 113 q 215 190 230 158 q 195 255 201 222 q 190 326 190 288 l 190 380 q 396 609 190 609 l 435 609 m 368 709 l 543 894 l 448 985 l 273 801 l 368 709 "},"ύ":{"ha":833,"x_min":88,"x_max":745,"o":"m 454 712 l 367 712 l 367 610 l 454 610 q 532 597 498 610 q 586 562 566 584 q 620 510 607 541 q 638 448 633 479 q 644 381 644 417 l 644 322 q 582 152 644 220 q 428 85 521 85 l 407 85 q 318 100 357 85 q 255 141 279 116 q 217 201 232 165 q 196 272 201 236 q 190 348 190 307 l 190 694 l 88 694 l 88 348 q 99 238 88 290 q 134 139 110 186 q 195 57 159 92 q 285 3 231 23 q 407 -17 340 -17 l 428 -17 q 591 28 518 -17 q 705 151 664 73 q 745 322 745 229 l 745 381 q 728 510 745 451 q 676 614 711 568 q 585 686 642 660 q 454 712 528 712 m 361 709 l 536 894 l 441 985 l 266 801 l 361 709 "},"ώ":{"ha":833,"x_min":88,"x_max":745,"o":"m 88 498 l 88 228 q 105 114 88 163 q 150 37 123 64 q 207 -3 178 10 q 266 -17 237 -17 l 281 -17 q 419 37 369 -17 q 547 -17 469 -17 l 565 -17 q 630 -3 600 -17 q 688 38 661 10 q 730 115 714 66 q 745 229 745 164 l 745 498 q 731 602 745 546 q 684 694 718 657 l 545 694 l 606 629 q 632 576 621 613 q 644 498 644 539 l 644 229 q 643 211 644 219 q 641 183 643 202 q 634 149 639 164 q 621 118 629 134 q 598 94 612 102 q 565 85 584 85 l 547 85 q 507 95 524 85 q 483 121 491 104 q 472 153 475 137 q 469 186 469 169 l 469 496 l 367 496 l 367 186 q 346 109 367 133 q 281 85 326 85 l 266 85 q 215 124 239 85 q 190 228 190 163 l 190 498 q 203 572 190 531 q 229 629 216 614 l 282 694 l 151 694 q 106 602 123 661 q 88 498 88 543 m 361 709 l 536 894 l 441 985 l 266 801 l 361 709 "},"Ϝ":{"ha":833,"x_min":88,"x_max":745,"o":"m 190 483 l 654 483 l 654 585 l 190 585 l 190 848 l 745 848 l 745 949 l 88 949 l 88 -17 l 190 -17 l 190 483 "},"ϲ":{"ha":833,"x_min":88,"x_max":745,"o":"m 644 -64 l 644 -79 q 625 -117 644 -102 q 579 -138 607 -132 q 533 -146 551 -144 q 500 -149 515 -149 l 418 -149 l 418 -250 l 500 -250 q 676 -203 608 -250 q 745 -79 745 -155 l 745 -64 q 734 -9 745 -33 q 707 30 723 15 q 665 57 691 45 q 619 73 640 68 q 569 81 598 78 q 524 84 539 84 q 487 85 509 85 l 375 85 q 240 148 291 85 q 190 317 190 210 l 190 385 q 210 466 190 426 q 264 538 229 506 q 351 589 298 570 q 463 609 403 609 l 510 609 q 579 595 537 609 q 644 568 621 582 l 685 542 l 741 627 l 701 653 q 613 692 671 673 q 510 711 556 711 l 463 711 q 314 684 384 711 q 194 612 243 657 q 117 508 145 568 q 88 385 88 449 l 88 317 q 169 75 88 167 q 375 -17 250 -17 l 487 -17 q 610 -29 576 -17 q 644 -64 644 -41 "},"ϳ":{"ha":833,"x_min":212,"x_max":654,"o":"m 432 -149 q 351 -113 389 -149 q 314 -47 314 -78 l 212 -47 q 279 -185 212 -119 q 432 -250 347 -250 q 587 -190 520 -250 q 654 -47 654 -130 l 654 694 l 313 694 l 313 593 l 552 593 l 552 -47 q 515 -118 552 -87 q 432 -149 477 -149 m 483 818 q 545 792 508 792 q 607 818 581 792 q 633 880 633 844 q 607 941 633 916 q 545 967 581 967 q 483 942 508 967 q 458 880 458 916 q 470 830 458 843 q 483 818 483 818 "},"Ѐ":{"ha":833,"x_min":88,"x_max":745,"o":"m 543 1034 l 368 1219 l 273 1127 l 448 943 l 543 1034 "},"Ё":{"ha":833,"x_min":88,"x_max":745,"o":"m 327 1143 q 273 1166 304 1166 q 220 1144 243 1166 q 197 1089 197 1122 q 220 1034 197 1057 q 273 1011 242 1011 q 326 1035 304 1011 q 349 1089 349 1058 q 338 1132 349 1120 q 327 1143 327 1143 m 618 1144 q 567 1166 595 1166 q 515 1144 537 1166 q 492 1089 492 1122 q 515 1034 492 1057 q 567 1011 537 1011 q 618 1034 596 1011 q 641 1089 641 1056 q 630 1133 641 1122 q 618 1144 618 1144 "},"Ђ":{"ha":833,"x_min":88,"x_max":745,"o":"m 517 562 l 536 562 q 614 528 585 562 q 643 440 643 493 l 643 262 q 640 210 643 235 q 628 159 636 185 q 602 118 619 134 q 561 102 585 102 l 488 102 l 488 0 l 561 0 q 651 25 613 0 q 708 91 689 50 q 736 175 728 132 q 745 262 745 217 l 745 440 q 686 600 745 535 q 536 664 628 664 l 517 664 q 487 661 504 664 q 446 649 469 657 q 399 621 422 640 q 357 574 375 602 l 357 848 l 745 848 l 745 949 l 88 949 l 88 848 l 255 848 l 255 0 l 357 0 l 357 283 q 374 399 357 344 q 417 488 392 454 q 470 542 443 522 q 517 562 497 562 "},"Ѓ":{"ha":833,"x_min":88,"x_max":745,"o":"m 88 0 l 190 0 l 190 848 l 745 848 l 745 949 l 88 949 l 88 0 m 427 938 l 602 1122 l 507 1214 l 332 1029 l 427 938 "},"Є":{"ha":833,"x_min":88,"x_max":720,"o":"m 456 563 l 191 564 q 211 709 194 650 q 257 803 227 769 q 323 850 286 836 q 412 865 361 865 l 424 865 q 504 853 469 865 q 562 820 539 842 q 599 773 585 799 q 623 714 613 748 l 720 743 q 617 907 690 848 q 424 966 544 966 l 412 966 q 274 940 333 966 q 181 873 216 914 q 124 770 146 831 q 96 650 103 709 q 88 517 88 590 l 88 472 q 103 286 88 368 q 146 148 119 204 q 214 54 174 91 q 304 0 255 17 q 412 -17 353 -17 l 424 -17 q 503 -8 465 -17 q 579 23 541 1 q 650 86 617 45 q 704 186 682 127 l 609 221 q 541 121 585 157 q 424 85 498 85 l 412 85 q 321 104 360 85 q 252 168 281 124 q 206 285 222 211 q 190 462 191 359 l 456 462 l 456 563 "},"Ѕ":{"ha":833,"x_min":87,"x_max":745,"o":"m 409 85 q 251 134 314 85 q 189 242 189 184 l 87 242 q 111 146 87 193 q 177 63 135 100 q 279 5 218 27 q 409 -17 340 -17 l 426 -17 q 553 5 493 -17 q 655 63 613 27 q 721 146 696 99 q 745 242 745 193 l 745 262 q 734 341 745 304 q 706 404 723 378 q 664 450 688 429 q 614 484 639 471 q 563 507 590 497 l 301 597 q 256 642 275 607 q 237 701 237 677 l 237 721 q 247 766 237 742 q 277 812 257 789 q 334 850 298 835 q 415 865 370 865 l 422 865 q 632 777 593 865 l 724 819 q 422 966 659 966 l 415 966 q 295 944 350 966 q 206 885 240 921 q 154 806 172 848 q 135 721 135 763 l 135 701 q 140 657 135 682 q 158 602 145 633 q 199 543 171 570 q 267 501 228 515 l 529 410 q 619 351 594 388 q 644 262 644 313 l 644 242 q 581 135 644 184 q 426 85 518 85 l 409 85 "},"І":{"ha":833,"x_min":136,"x_max":698,"o":"m 698 949 l 136 949 l 136 848 l 367 848 l 367 102 l 136 102 l 136 0 l 698 0 l 698 102 l 469 102 l 469 848 l 698 848 l 698 949 "},"Ї":{"ha":833,"x_min":136,"x_max":698,"o":"m 698 949 l 136 949 l 136 848 l 367 848 l 367 102 l 136 102 l 136 0 l 698 0 l 698 102 l 469 102 l 469 848 l 698 848 l 698 949 m 325 1134 q 271 1156 302 1156 q 218 1135 241 1156 q 195 1080 195 1113 q 218 1024 195 1047 q 271 1002 240 1002 q 324 1025 302 1002 q 347 1080 347 1048 q 336 1122 347 1111 q 325 1134 325 1134 m 616 1135 q 565 1156 593 1156 q 513 1134 535 1156 q 490 1080 490 1112 q 513 1025 490 1048 q 565 1002 535 1002 q 616 1024 594 1002 q 639 1080 639 1046 q 627 1124 639 1113 q 616 1135 616 1135 "},"Ј":{"ha":833,"x_min":71,"x_max":745,"o":"m 745 949 l 262 949 l 262 848 l 496 848 l 496 242 q 456 128 496 171 q 336 85 416 85 l 319 85 q 260 89 286 85 q 219 100 234 94 q 192 117 203 106 q 176 136 181 127 q 168 157 172 145 l 71 125 q 113 52 85 81 q 175 8 140 22 q 245 -12 211 -6 q 319 -17 279 -17 l 336 -17 q 526 54 454 -17 q 597 242 597 125 l 597 848 l 745 848 l 745 949 "},"Љ":{"ha":833,"x_min":62,"x_max":745,"o":"m 468 490 l 503 490 q 572 476 543 490 q 616 440 601 463 q 637 392 631 417 q 644 336 644 366 l 644 283 q 503 102 644 102 l 468 102 l 468 490 m 157 736 l 62 0 l 164 0 l 257 722 q 268 778 261 754 q 283 814 275 802 q 299 836 290 827 q 313 846 307 844 q 324 848 319 848 l 366 848 l 366 0 l 503 0 q 680 73 614 0 q 745 283 745 146 l 745 336 q 680 522 745 452 q 503 591 615 591 l 468 591 l 468 949 l 324 949 q 266 937 292 949 q 222 902 239 924 q 192 858 205 880 q 172 808 180 835 q 162 765 165 781 q 157 736 159 750 "},"Њ":{"ha":833,"x_min":88,"x_max":745,"o":"m 468 490 l 509 490 q 609 456 575 490 q 644 336 644 422 l 644 283 q 637 222 644 252 q 617 165 631 193 q 575 119 603 136 q 509 102 547 102 l 468 102 l 468 490 m 509 591 l 468 591 l 468 949 l 366 949 l 366 591 l 190 591 l 190 949 l 88 949 l 88 0 l 190 0 l 190 490 l 366 490 l 366 0 l 509 0 q 681 79 616 0 q 745 283 745 157 l 745 336 q 686 523 745 455 q 509 591 626 591 "},"Ћ":{"ha":833,"x_min":88,"x_max":745,"o":"m 745 949 l 88 949 l 88 848 l 238 848 l 238 0 l 340 0 l 340 337 q 353 444 340 395 q 386 522 366 492 q 430 572 406 551 q 473 601 454 593 q 507 610 493 610 l 526 610 q 611 580 578 610 q 644 501 644 550 l 644 0 l 745 0 l 745 501 q 683 652 745 592 q 526 711 621 711 l 507 711 q 423 690 467 711 q 340 627 378 668 l 340 848 l 745 848 l 745 949 "},"Ќ":{"ha":833,"x_min":87,"x_max":782,"o":"m 345 938 l 519 1122 l 425 1214 l 250 1029 l 345 938 "},"Ѝ":{"ha":833,"x_min":88,"x_max":745,"o":"m 88 0 l 178 0 l 644 739 l 644 0 l 745 0 l 745 949 l 656 949 l 190 210 l 190 949 l 88 949 l 88 0 m 587 1029 l 412 1214 l 317 1122 l 492 938 l 587 1029 "},"Ў":{"ha":833,"x_min":71,"x_max":770,"o":"m 197 91 l 169 111 l 109 28 l 139 7 q 230 -17 172 -17 l 257 -17 q 341 -6 304 -17 q 413 38 378 5 q 469 127 449 71 l 770 949 l 661 949 l 473 432 l 188 949 l 71 949 l 426 305 l 374 163 q 332 101 358 117 q 257 85 305 85 l 230 85 q 197 91 205 85 m 430 994 q 539 1020 488 994 q 627 1089 590 1045 l 550 1154 q 430 1096 500 1096 q 313 1154 361 1096 l 235 1088 q 322 1019 272 1044 q 430 994 373 994 "},"Џ":{"ha":833,"x_min":88,"x_max":745,"o":"m 190 102 l 190 949 l 88 949 l 88 0 l 367 0 l 367 -261 l 469 -261 l 469 0 l 745 0 l 745 949 l 644 949 l 644 102 l 190 102 "},"А":{"ha":833,"x_min":67,"x_max":768,"o":"m 262 271 l 418 754 l 574 271 l 262 271 m 229 169 l 606 169 l 661 0 l 768 0 l 456 966 l 379 966 l 67 0 l 174 0 l 229 169 "},"Б":{"ha":833,"x_min":88,"x_max":745,"o":"m 190 483 l 399 483 q 577 441 511 483 q 644 329 644 399 l 644 262 q 579 146 644 191 q 399 102 514 102 l 190 102 l 190 483 m 399 585 l 190 585 l 190 848 l 694 848 l 694 949 l 88 949 l 88 0 l 399 0 q 652 73 558 0 q 745 262 745 146 l 745 329 q 650 514 745 444 q 399 585 554 585 "},"В":{"ha":833,"x_min":88,"x_max":745,"o":"m 426 0 q 745 229 745 0 l 745 329 q 633 542 745 479 q 696 694 696 593 l 696 743 q 683 827 696 791 q 643 887 669 863 q 577 924 618 910 q 489 944 537 939 q 377 949 441 949 l 88 949 l 88 0 l 426 0 m 644 229 q 596 134 644 166 q 426 102 548 102 l 190 102 l 190 483 l 426 483 q 516 475 478 483 q 579 455 555 468 q 618 423 604 443 q 638 380 633 403 q 644 329 644 358 l 644 229 m 377 585 l 190 585 l 190 848 l 377 848 q 517 836 470 848 q 580 804 565 825 q 595 743 595 783 l 595 694 q 591 658 595 673 q 574 628 587 643 q 538 604 561 613 q 474 590 515 595 q 377 585 434 585 "},"Г":{"ha":833,"x_min":88,"x_max":745,"o":"m 88 0 l 190 0 l 190 848 l 745 848 l 745 949 l 88 949 l 88 0 "},"Д":{"ha":833,"x_min":64,"x_max":769,"o":"m 597 102 l 241 102 l 368 644 q 404 726 376 680 q 474 810 431 772 q 558 848 517 848 l 597 848 l 597 102 m 269 667 l 136 102 l 64 102 l 64 -29 l 112 -110 l 166 -110 l 166 0 l 667 0 l 667 -110 l 722 -110 l 769 -30 l 769 102 l 699 102 l 699 949 l 558 949 q 468 928 512 949 q 391 873 424 906 q 332 802 359 841 q 290 728 306 762 q 269 667 275 693 "},"Е":{"ha":833,"x_min":88,"x_max":745,"o":"m 190 483 l 653 483 l 653 585 l 190 585 l 190 848 l 745 848 l 745 949 l 88 949 l 88 0 l 745 0 l 745 102 l 190 102 l 190 483 "},"Ж":{"ha":833,"x_min":18,"x_max":817,"o":"m 367 136 l 367 0 l 469 0 l 469 136 l 557 344 l 706 0 l 817 0 l 612 473 l 813 949 l 703 949 l 469 397 l 469 916 l 367 916 l 367 396 l 132 949 l 22 949 l 223 474 l 18 0 l 129 0 l 278 345 l 367 136 "},"З":{"ha":833,"x_min":88,"x_max":745,"o":"m 388 966 q 223 933 298 966 q 113 831 149 899 l 202 783 q 274 844 224 823 q 388 865 323 865 l 426 865 q 485 859 457 865 q 540 842 513 854 q 583 805 567 829 q 599 748 599 781 l 599 720 q 541 634 599 669 q 408 600 483 600 l 259 600 l 259 498 l 426 498 q 644 303 644 498 l 644 290 q 588 139 644 193 q 426 85 532 85 l 388 85 q 298 100 342 85 q 222 149 254 115 q 190 229 190 183 l 88 229 q 131 100 88 157 q 241 13 173 43 q 388 -17 309 -17 l 426 -17 q 663 69 580 -17 q 745 290 745 155 l 745 303 q 711 455 745 389 q 610 558 677 521 q 701 720 701 623 l 701 748 q 626 906 701 846 q 426 966 551 966 l 388 966 "},"И":{"ha":833,"x_min":88,"x_max":745,"o":"m 88 0 l 178 0 l 644 739 l 644 0 l 745 0 l 745 949 l 656 949 l 190 210 l 190 949 l 88 949 l 88 0 "},"Й":{"ha":833,"x_min":88,"x_max":745,"o":"m 88 0 l 178 0 l 644 739 l 644 0 l 745 0 l 745 949 l 656 949 l 190 210 l 190 949 l 88 949 l 88 0 m 428 995 q 537 1020 486 995 q 625 1090 588 1046 l 548 1155 q 428 1097 498 1097 q 311 1154 359 1097 l 233 1089 q 320 1020 270 1045 q 428 995 371 995 "},"К":{"ha":833,"x_min":87,"x_max":782,"o":"m 330 467 l 658 0 l 782 0 l 400 545 l 766 949 l 629 949 l 189 463 l 189 949 l 87 949 l 87 0 l 189 0 l 189 311 l 330 467 "},"Л":{"ha":833,"x_min":48,"x_max":745,"o":"m 253 671 l 48 0 l 155 0 l 351 640 q 431 764 370 702 q 565 848 492 826 l 644 848 l 644 0 l 745 0 l 745 949 l 551 949 q 361 838 442 920 q 253 671 279 756 "},"М":{"ha":833,"x_min":59,"x_max":774,"o":"m 59 0 l 161 0 l 224 691 l 394 143 l 441 143 l 610 690 l 673 0 l 774 0 l 688 949 l 583 949 l 418 411 l 250 949 l 146 949 l 59 0 "},"Н":{"ha":833,"x_min":88,"x_max":745,"o":"m 190 0 l 190 446 l 644 446 l 644 0 l 745 0 l 745 949 l 644 949 l 644 547 l 190 547 l 190 949 l 88 949 l 88 0 l 190 0 "},"О":{"ha":833,"x_min":88,"x_max":745,"o":"m 745 519 q 742 613 745 569 q 729 703 739 656 q 705 787 720 750 q 665 859 690 825 q 607 916 640 893 q 527 953 574 939 q 424 966 481 966 l 412 966 q 274 940 333 966 q 181 873 216 914 q 124 770 146 831 q 96 650 103 709 q 88 517 88 590 l 88 472 q 103 286 88 368 q 146 148 119 204 q 214 54 174 91 q 304 0 255 17 q 412 -17 353 -17 l 424 -17 q 745 472 745 -16 l 745 519 m 424 865 q 517 849 479 865 q 586 794 556 833 q 629 688 615 756 q 644 519 644 619 l 644 472 q 629 290 644 366 q 584 170 614 214 q 515 105 555 125 q 424 85 476 85 l 412 85 q 294 121 342 85 q 218 244 246 157 q 190 472 190 332 l 190 517 q 205 686 190 618 q 250 793 220 755 q 318 848 279 832 q 412 865 357 865 l 424 865 "},"П":{"ha":833,"x_min":88,"x_max":745,"o":"m 88 0 l 190 0 l 190 848 l 644 848 l 644 0 l 745 0 l 745 949 l 88 949 l 88 0 "},"Р":{"ha":833,"x_min":88,"x_max":745,"o":"m 190 423 l 426 423 q 668 491 591 423 q 745 680 745 558 l 745 721 q 730 815 745 774 q 688 881 715 855 q 620 922 661 906 q 532 943 578 937 q 426 949 486 949 l 88 949 l 88 0 l 190 0 l 190 423 m 426 525 l 190 525 l 190 848 l 426 848 q 522 842 482 848 q 585 826 562 836 q 622 800 609 817 q 640 765 635 783 q 644 721 644 747 l 644 680 q 634 616 644 642 q 601 568 625 589 q 534 536 577 547 q 426 525 490 525 "},"С":{"ha":833,"x_min":88,"x_max":747,"o":"m 444 -17 q 626 39 553 -17 q 736 197 699 94 l 640 231 q 569 122 615 160 q 444 85 523 85 l 421 85 q 190 472 190 85 l 190 517 q 206 684 190 615 q 254 792 222 753 q 326 848 285 831 q 420 865 366 865 l 444 865 q 581 827 534 865 q 650 718 628 789 l 747 747 q 444 966 680 966 l 420 966 q 176 858 263 966 q 88 517 88 750 l 88 472 q 100 313 88 385 q 131 192 111 241 q 177 104 150 142 q 234 43 205 66 q 297 7 263 21 q 361 -12 332 -7 q 421 -17 390 -17 l 444 -17 "},"Т":{"ha":833,"x_min":88,"x_max":745,"o":"m 745 949 l 88 949 l 88 848 l 367 848 l 367 0 l 469 0 l 469 848 l 745 848 l 745 949 "},"У":{"ha":833,"x_min":71,"x_max":770,"o":"m 197 91 l 169 111 l 109 28 l 139 7 q 230 -17 172 -17 l 257 -17 q 341 -6 304 -17 q 413 38 378 5 q 469 127 449 71 l 770 949 l 661 949 l 473 432 l 188 949 l 71 949 l 426 305 l 374 163 q 332 101 358 117 q 257 85 305 85 l 230 85 q 197 91 205 85 "},"Ф":{"ha":833,"x_min":88,"x_max":745,"o":"m 745 493 l 745 532 q 739 641 745 590 q 715 740 732 691 q 672 823 699 789 q 603 879 646 858 q 506 900 561 900 l 469 900 l 469 966 l 367 966 l 367 900 l 329 900 q 231 879 274 900 q 162 823 189 858 q 119 740 136 789 q 95 640 102 691 q 88 531 88 589 l 88 493 q 93 417 88 457 q 108 330 98 376 q 138 242 119 283 q 182 166 157 200 q 246 111 208 132 q 330 91 284 91 l 367 91 l 367 -17 l 469 -17 l 469 91 l 506 91 q 603 115 560 91 q 672 179 646 140 q 715 272 698 218 q 739 379 732 326 q 745 493 745 433 m 644 532 l 644 493 q 601 278 644 363 q 506 193 557 193 l 469 193 l 469 798 l 506 798 q 611 734 579 798 q 644 532 644 671 m 190 493 l 190 531 q 222 734 190 670 q 329 798 255 798 l 367 798 l 367 193 l 330 193 q 265 234 298 193 q 211 346 233 275 q 190 493 190 417 "},"Х":{"ha":833,"x_min":73,"x_max":762,"o":"m 418 574 l 192 949 l 73 949 l 358 475 l 73 0 l 192 0 l 418 376 l 643 0 l 762 0 l 477 475 l 762 949 l 643 949 l 418 574 "},"Ц":{"ha":833,"x_min":88,"x_max":766,"o":"m 190 102 l 190 949 l 88 949 l 88 0 l 646 0 l 592 -105 l 683 -151 l 766 11 l 766 102 l 677 102 l 677 949 l 575 949 l 575 102 l 190 102 "},"Ч":{"ha":833,"x_min":88,"x_max":745,"o":"m 745 0 l 745 949 l 644 949 l 644 398 l 409 398 q 247 453 304 398 q 190 586 190 507 l 190 949 l 88 949 l 88 586 q 109 478 88 530 q 170 386 130 427 q 271 320 209 345 q 409 296 333 296 l 644 296 l 644 0 l 745 0 "},"Ш":{"ha":833,"x_min":88,"x_max":745,"o":"m 469 102 l 469 803 l 367 803 l 367 102 l 190 102 l 190 949 l 88 949 l 88 0 l 745 0 l 745 949 l 644 949 l 644 102 l 469 102 "},"Щ":{"ha":833,"x_min":88,"x_max":800,"o":"m 745 102 l 745 949 l 644 949 l 644 102 l 469 102 l 469 803 l 367 803 l 367 102 l 190 102 l 190 949 l 88 949 l 88 0 l 686 0 l 626 -102 l 714 -154 l 800 -8 l 800 102 l 745 102 "},"Ъ":{"ha":833,"x_min":54,"x_max":745,"o":"m 319 456 l 473 456 q 529 450 502 456 q 584 429 557 444 q 627 388 610 415 q 644 322 644 360 l 644 249 q 594 142 644 182 q 473 102 545 102 l 319 102 l 319 456 m 473 557 l 319 557 l 319 949 l 54 949 l 54 650 l 88 650 l 172 848 l 218 848 l 218 0 l 473 0 q 666 70 587 0 q 745 249 745 140 l 745 322 q 669 492 745 427 q 473 557 593 557 "}}}
